<ttFont>
          <CharString index="0">
            26.2799987793 0 28.3600006104 134 11 67 -42 0 -11 -67 rlineto
            return
          </CharString>
          <CharString index="1">
            -13 -84.6600036621 32.1399993896 -40.3399963379 90.1800079346 0 rrcurveto
            101 hlineto
            102.019989014 0 30.9800109863 37.2799987793 13.6799926758 87.7200012207 rrcurveto
            21 133 rlineto
            13.3399963379 87.0399932861 -27.0800018311 37.9600067139 -93.9199981689 0 rrcurveto
            -101 hlineto
            -104.399993896 0 -30.9400024414 -40.6799926758 -13 -84.3200073242 rrcurveto
            return
          </CharString>
          <CharString index="2">
            21 133 rlineto
            11.6199951172 74.0399932861 28.8000030518 18.9600067139 71.8600006104 0 rrcurveto
            101 hlineto
            75.8000030518 0 14.5599975586 -24.8600006104 -10.6399993896 -68.1399993896 rrcurveto
            -21 -133 rlineto
            -11.9600067139 -75.0599975586 -29.799987793 -17.9400024414 -69.5200042725 0 rrcurveto
            -101 hlineto
            -67.4600067139 0 -25.2200012207 19.5800018311 11.9600067139 73.4199981689 rrcurveto
            return
          </CharString>
          <CharString index="3">
            -13.0000152588 -84.6600036621 31.1399993896 -40.3400115967 90.1800079346 0 rrcurveto
            101 hlineto
            102.020004272 -1.52587890625e-05 31.9800109863 37.2799987793 13.6799926758 87.7200012207 rrcurveto
            21 133 rlineto
            13.3399810791 87.0399932861 -28.3999938965 37.9599914551 -93.9199981689 0 rrcurveto
            -101 hlineto
            -104.400009155 -1.52587890625e-05 -29.6199951172 -40.6799926758 -13 -84.3200073242 rrcurveto
            return
          </CharString>
          <CharString index="4">
            21 133 rlineto
            11.6199798584 74.0399932861 27.8000030518 18.9599914551 71.8600006104 0 rrcurveto
            101 hlineto
            75.799987793 -1.52587890625e-05 15.5599975586 -24.8600006104 -10.6399993896 -68.1399993896 rrcurveto
            -21 -133 rlineto
            -11.9600067139 -75.0600128174 -30.8000030518 -17.9400024414 -69.5200042725 0 rrcurveto
            -101 hlineto
            -67.4600219727 -1.52587890625e-05 -24.2199859619 19.5800018311 11.9599914551 73.4199981689 rrcurveto
            return
          </CharString>
          <CharString index="5">
            -143.339996338 -12.5 rlineto
            return
          </CharString>
          <CharString index="6">
            -19 -120 74 -42 91 0 rrcurveto
            144.199996948 hlineto
            102.0599823 0 71.9400024414 43 19 119 rrcurveto
            65 408 rlineto
            13.6599884033 86.9199981689 -34 75.0800018311 -121.660003662 0 rrcurveto
            -144.199996948 hlineto
            -99.7599945068 0 -79.9000091553 -51.6199951172 -17.3399963379 -110.380004883 rrcurveto
            return
          </CharString>
          <CharString index="7">
            478.5 0 6.7200012207 41 -398.740005493 0 rlineto
            67.5399932861 45.1199951172 383.940002441 258.220001221 26.2399902344 186.339996338 17.2600097656 118.540008545 -42.6800079346 92.7799987793 -143.580001831 0 rrcurveto
            return
          </CharString>
          <CharString index="8">
            -71.3999938965 0 -110.820007324 -0.399993896484 -104.659988403 -13 rrcurveto
            -4.38000488281 -28.6000061035 rlineto
            return
          </CharString>
          <CharString index="9">
            279.899993896 hlineto
            106.199996948 0 51.7600097656 -46.3999938965 -19.9199981689 -120.920013428 -27.3200073242 -166 -368.319992065 -247.339996338 -119.86000061 -81.0399932861 rrcurveto
            return
          </CharString>
          <CharString index="10">
            53.3000030518 -15.8199920654 115.879989624 -0.960006713867 114 0 122 0 65 59 17 109 rrcurveto
            9.33999633789 59 rlineto
            14.6400146484 94.4799957275 -60.5800018311 39.7400054932 -33.0400085449 10.4400024414 33.4000091553 5.05999755859 74.5999908447 33.4400024414 15.6399993896 96.8399963379 rrcurveto
            10.3399963379 69 rlineto
            15.0000152588 93.0200042725 -46.8400115967 69.9799957275 -111.179992676 2 rrcurveto
            return
          </CharString>
          <CharString index="11">
            -117 2 -113 -0.320007324219 -72.5399932861 -17.799987793 rrcurveto
            -3.69999694824 -24.8800048828 rlineto
            return
          </CharString>
          <CharString index="12">
            294.5 hlineto
            71.799987793 0 56.6000061035 -30.1799926758 -14.6399993896 -91.1800079346 rrcurveto
            -10.3399963379 -69 rlineto
            -11.9799957275 -76.8400115967 -68.7200012207 -37.6399993896 -74.9400024414 -1.68000793457 rrcurveto
            return
          </CharString>
          <CharString index="13">
            -224.199996948 -7.36000061035 -4.7200012207 -28.9600067139 rlineto
            return
          </CharString>
          <CharString index="14">
            222.199996948 -7 rlineto
            55.9799957275 -2 75.7200012207 -17.8600006104 -16 -100 rrcurveto
            -9.33999633789 -59 rlineto
            -16.2799987793 -99.9999847412 -73.2399902344 -29.3000030518 -68.4600067139 0 rrcurveto
            return
          </CharString>
          <CharString index="15">
            -281.5 hlineto
            return
          </CharString>
          <CharString index="16">
            14.8000030518 -29.0800018311 383.779998779 0 -31.6399993896 -201.5 42.0200042725 0 31.6399993896 201.5 rlineto
            return
          </CharString>
          <CharString index="17">
            92.3399963379 13.0599975586 4.38000488281 29.3000030518 rlineto
            return
          </CharString>
          <CharString index="18">
            -90 0 47.6399993896 301.13999939 -21.8200073242 0 -32.1999969482 -75 rlineto
            return
          </CharString>
          <CharString index="19">
            -35.6399993896 -226.13999939 rlineto
            return
          </CharString>
          <CharString index="20">
            -343.320007324 0 377.899993896 486.13999939 -49.4400024414 0 rlineto
            return
          </CharString>
          <CharString index="21">
            -48.6799926758 -307.080001831 78.0599975586 -77.5800018311 104.239990234 0 rrcurveto
            131.820007324 hlineto
            94 0 63.0999908447 36.6600036621 18 112 rrcurveto
            18.6799926758 117.800003052 rlineto
            11.6399993896 73.1600189209 -20.8999938965 74.5399932861 -134.340011597 -0.679992675781 -74 -0.34001159668 -111.599990845 -4.05999755859 -87 -10 16.9799957275 102.479995728 56.6000061035 196.100006104 113.059997559 0 rrcurveto
            return
          </CharString>
          <CharString index="22">
            273.820007324 0 4.38000488281 28.6000061035 rlineto
            return
          </CharString>
          <CharString index="23">
            275.539993286 hlineto
            76.8600006104 0 40.8200073242 -19.9400024414 -14.6199951172 -90.0400085449 rrcurveto
            -17.6799926758 -112.460006714 rlineto
            -14.9599914551 -92.7799987793 -67.5800018311 -16.6199951172 -52.1399993896 0 rrcurveto
            -129.199996948 hlineto
            -129.039993286 0 9.38000488281 190.119995117 22.6199951172 141.720001221 rrcurveto
            return
          </CharString>
          <CharString index="24">
            414.100006104 0 -354.080001831 -691 48.3999938965 0 357.820007324 700.5 -14.3800048828 31.5 -445.13999939 0 rlineto
            return
          </CharString>
          <CharString index="25">
            -6 -39.6399993896 -9.02000427246 -114.36000061 170.63999939 0 rrcurveto
            125.199996948 hlineto
            68.4199981689 0 93.2799987793 19.9199981689 21.6799926758 134.080001831 rrcurveto
            15 98 rlineto
            9.31999206543 56.1999969482 -14.3200073242 52.8200073242 -62.5800018311 19.3199920654 62.7799987793 7.74000549316 37.1800079346 63.1799926758 6.61999511719 43.120010376 rrcurveto
            10.3399963379 65 rlineto
            18.3199920654 118.580001831 -49.6999969482 59.0399932861 -107.580001831 0 rrcurveto
            -126.199996948 hlineto
            -106.400009155 0 -71.6399993896 -34.0399932861 -21 -134.340011597 rrcurveto
            -10.3399963379 -65 rlineto
            -8 -51.299987793 7.08000183105 -69.620010376 77.8800048828 -17.379989624 -42.0600128174 -1.70001220703 -61.8999938965 -35.6399993896 -12 -75.3199920654 rrcurveto
            return
          </CharString>
          <CharString index="26">
            17 105 rlineto
            11.9799957275 75.1999969482 82.3200073242 22.3000030518 46 0 rrcurveto
            141.839996338 hlineto
            47.9600067139 0 64.4000091553 -8.16000366211 -14.2799987793 -89.3399963379 rrcurveto
            -17 -105 rlineto
            -12.9600067139 -83.7599945068 -71.4799957275 -26.2400054932 -53.5200042725 0 rrcurveto
            -120.580001831 hlineto
            -80.9199981689 0 -53.7200012207 28.8999938965 12.9600067139 81.1000061035 rrcurveto
            return
          </CharString>
          <CharString index="27">
            10.3399963379 68 rlineto
            13.6399993896 92.4400024414 39.8400115967 41.5599975586 100.159988403 0 rrcurveto
            124.880004883 hlineto
            83.1400146484 0 36.8399963379 -34.1999969482 -15.6399993896 -99.8000030518 rrcurveto
            -11 -68 rlineto
            -6.6600189209 -42.6000061035 -39.1399993896 -57.8999938965 -88.8399963379 0 rrcurveto
            -139.199996948 hlineto
            -55.1199798584 0 -67.5400085449 11.0599975586 14.3000030518 89.4400024414 rrcurveto
            return
          </CharString>
          <CharString index="28">
            -273.820007324 hlineto
            return
          </CharString>
          <CharString index="29">
            17.6799926758 117.080001831 rlineto
            14.299987793 92.7799987793 72.1999969482 16.6199951172 52.1399993896 0 rrcurveto
            129.86000061 hlineto
            128.379989624 0 -12.0200042725 -190.119995117 -22.6199951172 -141.720001221 rrcurveto
            -272.240005493 hlineto
            -71.5800170898 0 -50.7200012207 15.3199920654 14.620010376 90.0400085449 rrcurveto
            return
          </CharString>
          <CharString index="30">
            427 0 7.05999755859 41 -427 0 rlineto
            return
          </CharString>
          <CharString index="31">
            -17 -107 60 -81 104 0 rrcurveto
            98 hlineto
            return
          </CharString>
          <CharString index="32">
            126 0 114.679992676 5.7799987793 50 10 rrcurveto
            4.03999328613 25.2200012207 rlineto
            return
          </CharString>
          <CharString index="33">
            -384.679992676 hlineto
            -86.0000152588 0 -42.3199920654 57.6600036621 14.2799987793 89.3399963379 rrcurveto
            81 512 rlineto
            10.2799987793 65.3200073242 38.1399993896 71.3399963379 111.5 0 rrcurveto
            376.720001221 hlineto
            67.7199859619 0 50.9600067139 -20.0800018311 -17.3200073242 -116.580001831 rrcurveto
            -53 -354 rlineto
            -17.6199951172 -115.320007324 -69.6600036621 -8.33999633789 -48 0 rrcurveto
            64.2799987793 438.660003662 rlineto
            -51 49 -99.7200012207 17.6199951172 -76.2799987793 -4.61999511719 -74 -4.61999511719 -107 -43.3800048828 -34 -221 rrcurveto
            return
          </CharString>
          <CharString index="34">
            -34 -227 75 -54 111 2 73 1 85 32 31 34 rrcurveto
            return
          </CharString>
          <CharString index="35">
            6.5 -60 37.5 0 rlineto
            144 0 19.3200073242 124.919998169 5.67999267578 39.0800018311 rrcurveto
            53 354 rlineto
            17 113 -46 65 -111 0 rrcurveto
            -375 hlineto
            -138 0 -52 -86 -15 -92 rrcurveto
            return
          </CharString>
          <CharString index="36">
            27.6199951172 221.960006714 100.36000061 25.3999938965 55.3000030518 1.31999206543 57.1799926758 1.32000732422 54.9199981689 -3.30000305176 65.9400024414 -29.8600006104 rrcurveto
            -56.2799987793 -373.839996338 rlineto
            return
          </CharString>
          <CharString index="37">
            -65.0000152588 -49 -76.9799957275 -12 -55 1 -78 1 -52.6800079346 35.3600006104 22.620010376 180.63999939 rrcurveto
            return
          </CharString>
          <CharString index="38">
            41 0 116 732 -41 0 rlineto
            return
          </CharString>
          <CharString index="39">
            -53.0000152588 -333 96.3000030518 -36.6199951172 173.880004883 0 177.619995117 0 101.080001831 37.3800048828 50.3199920654 323 52.6400146484 338.919998169 -95.1400146484 41.6999969482 -173.339996338 0 -173.019989014 0 -103.340011597 -28.3800048828 -54 -343 rrcurveto
            return
          </CharString>
          <CharString index="40">
            50.9599914551 324.080001831 91.5200042725 10.9199981689 142.899993896 0 147.759994507 0 80.700012207 -19.5 -49.6400146484 -315.5 -44.2799987793 -280.020004272 -77.9599914551 -43.9799957275 -161.13999939 0 -169.13999939 0 -56.6399993896 39.9400024414 44.9599914551 284.059997559 rrcurveto
            return
          </CharString>
          <CharString index="41">
            116.080001831 -133 32.6999969482 0 -102.039993286 133 rlineto
            return
          </CharString>
          <CharString index="42">
            -36.3200073242 -222.119995117 71.3600006104 -53.5 100.020004272 -0.339996337891 83 0.31999206543 48.8000030518 5.34001159668 85 23 rrcurveto
            4.38000488281 29.6000061035 rlineto
            -1.52587890625e-05 -125.86000061 -17.5999908447 -92 vhcurveto
            -78.8600006104 0 -50.4799957275 40.0599975586 30.9600067139 186.619995117 34.6799926758 208.520004272 56.4800109863 25.1599884033 80.1199951172 0 rrcurveto
            89 116.880004883 -13.2799987793 0 hvcurveto
            4.69999694824 27.6000061035 rlineto
            -62.7199859619 13.6600036621 -89.1399993896 13.0199890137 -52 0 -99.2799987793 0 -79.3400115967 -26.9199981689 -39.379989624 -239.13999939 rrcurveto
            return
          </CharString>
          <CharString index="43">
            -19.3399963379 -122 18.7200012207 -152.279998779 143.299987793 0 68 0 104.600006104 42.6999969482 29.6600036621 22.3000030518 rrcurveto
            4.05999755859 -59 26.6000061035 0 124.339996338 785 -39 0 -45.3399963379 -286 rlineto
            -60 26 -85.6600036621 14 -45 0 -151 0 -51.6000061035 -132.679992676 -22.3399963379 -138.040008545 rrcurveto
            return
          </CharString>
          <CharString index="44">
            30.9600067139 193.36000061 72.3999938965 41.6399993896 75.8399963379 0 77 0 47.0200042725 -10.6399993896 66 -18 rrcurveto
            -60.8999938965 -382.419998169 rlineto
            -57 -25.3000030518 -65.3400115967 -26.6399993896 -79 0 -78.879989624 0 -54.3800048828 66.3800048828 26.2799987793 161.619995117 rrcurveto
            return
          </CharString>
          <CharString index="45">
            234.199996948 -24 rlineto
            77.6999816895 -8 88.3000030518 52 20 124 rrcurveto
            98.6600036621 624.600006104 rlineto
            -45.9999847412 4 -88.8999938965 12.3999938965 -106 0 -120.580001831 0 -76.3800048828 -94 -27 -168 -25 -158 13.6999969482 -126.660003662 155.380004883 0 45 0 89.1199951172 12.6600036621 68 26 rrcurveto
            -21 -133 rlineto
            -14.620010376 -93.0399932861 -72.0400085449 -37.6000061035 -51.6199951172 2.63999938965 rrcurveto
            -236.880004883 9.89999389648 rlineto
            return
          </CharString>
          <CharString index="46">
            18.2200012207 113.639984131 55.1000061035 114.36000061 112.939987183 -1.97999572754 rrcurveto
            193.220001221 -3.30000305176 -69.2400054932 -430.100006104 rlineto
            -85.9999847412 -21 -45.5200042725 -10.6000061035 -74 0 -115.320007324 0 -11.2799987793 98.6799926758 21.8800048828 140.300003052 rrcurveto
            return
          </CharString>
          <CharString index="47">
            41 0 84 531 -41 0 rlineto
            return
          </CharString>
          <CharString index="48">
            168.199996948 0 6.7200012207 41 -168.199996948 0 23 148 -29.6000061035 0 -34.3999938965 -148 rlineto
            return
          </CharString>
          <CharString index="49">
            -90.7799987793 -11.3999938965 rlineto
            return
          </CharString>
          <CharString index="50">
            7.74000549316 -19.2200012207 rlineto
            39.3200073242 21.9199981689 27.6000061035 22.9799957275 38.3399963379 0 35.0399932861 0 33.200012207 -60.0799865723 43.0199890137 0 45.7400054932 0 36.7200012207 35.1199951172 36.2799987793 30.2799987793 rrcurveto
            -8.39999389648 18.8999938965 rlineto
            -27.0200042725 -17.9799957275 -38.6000061035 -30.5999908447 -39 0 -34.7200012207 0 -35.1399993896 60.0799865723 -40.6999969482 0 -43.7599945068 0 -34.620010376 -30.379989624 -41.0399932861 -31.0200042725 rrcurveto
            return
          </CharString>
          <CharString index="51">
            -2.67999267578 -16.1199951172 11.0800018311 -13.1000061035 16.1199951172 0 16.1199951172 0 14.120010376 13.1000061035 2.67999267578 16.1199951172 2.68000793457 16.1199951172 -10.0800018311 12.1000061035 -16.120010376 0 -16.1199951172 0 -15.1199951172 -12.1000061035 -2.68000793457 -16.1199951172 rrcurveto
            return
          </CharString>
          <CharString index="52">
            314 0 6.7200012207 41 -314 0 rlineto
            return
          </CharString>
          <CharString index="53">
            -72 0 -45.3399963379 -1.7200012207 -67 -8 -1 1 -4.69999694824 -24.2400054932 2 0 rrcurveto
            return
          </CharString>
          <CharString index="54">
            45.4199981689 -12.7400054932 64.2400054932 -0.639999389648 74 0 99.6799926758 -0.339996337891 34.3200073242 47.0199890137 11 71 rrcurveto
            4.66000366211 29.3200073242 rlineto
            7.97999572754 54.1600036621 -41.3800048828 32.0199890137 -22.0200042725 8.42001342773 25.3600006104 4.7200012207 51.0600128174 31.0599975586 8 53.5999908447 rrcurveto
            6 36.9799957275 rlineto
            9 60.0000152588 -29.0600128174 52.6999969482 -83.5999908447 0.339996337891 rrcurveto
            return
          </CharString>
          <CharString index="55">
            -76 0.339996337891 -68.9199981689 1 -51.4199981689 -12.7399902344 rrcurveto
            -3.03999328613 -21.2200012207 rlineto
            return
          </CharString>
          <CharString index="56">
            190.619995117 hlineto
            51.0200042725 0 38.7400054932 -16.0200042725 -10.3000030518 -63.7799987793 rrcurveto
            -3.66000366211 -31.2400054932 rlineto
            -6.00001525879 -46.5999908447 -51.7599945068 -27.9400024414 -56.2200012207 -2 rrcurveto
            -139.039993286 -4.67999267578 -4.03999328613 -22.9199981689 142.320007324 -4.33999633789 rlineto
            46.2200012207 -0.999984741211 45.1800079346 -24.9199981689 -8.66000366211 -56.9400024414 rrcurveto
            -3.33999633789 -23 rlineto
            -10.9599914551 -69.0800018311 -39.299987793 -20.9599914551 -67.0400085449 0 rrcurveto
            0 -164.800003052 -0.34001159668 -10.879989624 vhcurveto
            return
          </CharString>
          <CharString index="57">
            32.6999969482 0 154 133 -49.4600067139 0 rlineto
            return
          </CharString>
          <CharString index="58">
            -1.33999633789 -9.37998962402 5.69999694824 -6.36000061035 9.38000488281 0 rrcurveto
            25.9400024414 hlineto
            9.38000488281 0 7.04000854492 4.33999633789 1.67999267578 11.4000091553 rrcurveto
            4.38000488281 27.3000030518 rlineto
            1.67999267578 10.0599975586 -3.35998535156 6.36000061035 -11.4000091553 0 rrcurveto
            -25.9400024414 hlineto
            -10.7200164795 1.52587890625e-05 -6.69999694824 -6.04000854492 -1.33999633789 -10.379989624 rrcurveto
            return
          </CharString>
          <CharString index="59">
            77 1.52587890625e-05 54.8999938965 32.2199859619 17 13 rrcurveto
            -68.9600067139 -434.679992676 32.9600067139 0 76 478 -32.2799987793 0 rlineto
            0 -73.5800018311 -67 -80 vhcurveto
            return
          </CharString>
          <CharString index="60">
            33.9400024414 0 535.199996948 770 -33.9400024414 0 rlineto
            return
          </CharString>
          <CharString index="61">
            93.5399932861 -1.70001220703 83.8399963379 4.74000549316 87.5 10.3600006104 rrcurveto
            4.03999328613 26.5800018311 rlineto
            return
          </CharString>
          <CharString index="62">
            116.080078125 -133 32.7001953125 0 -102.040039062 133 rlineto
            return
          </CharString>
          <CharString index="63">
            46.01953125 0 125.16015625 236.33984375 320.760742188 0 46.919921875 -236.33984375 41.33984375 0 -144.299804688 732 -47.6005859375 0 rlineto
            return
          </CharString>
          <CharString index="64">
            212.680664062 404.120117188 78.1796875 -404.120117188 rlineto
            return
          </CharString>
          <CharString index="65">
            32.7001953125 0 154 133 -49.4599609375 0 rlineto
            return
          </CharString>
          <CharString index="66">
            39.080078125 0 124.979492188 104.120117188 81.419921875 -104.120117188 33.3203125 0 -92.900390625 130 -38 0 rlineto
            return
          </CharString>
          <CharString index="67">
            7.740234375 -19.220703125 rlineto
            37.2802734375 21.919921875 28.6201171875 22.640625 40.0400390625 0.33984375 34.01953125 0.33984375 29.7998046875 -59.740234375 46.7607421875 -0.33984375 42.6796875 -0.33984375 35.7001953125 31.3798828125 40.359375 30.9599609375 rrcurveto
            -8.3994140625 18.900390625 rlineto
            -19.2001953125 -13.900390625 -51.5205078125 -32.9794921875 -33.8994140625 0.33984375 -30.6396484375 0.33984375 -37.1806640625 58.3798828125 -42.740234375 1.0205078125 -39.6796875 0 -38.7001953125 -29.0205078125 -41.0400390625 -31.01953125 rrcurveto
            return
          </CharString>
          <CharString index="68">
            -2.6796875 -16.1201171875 11.080078125 -13.099609375 16.1201171875 0 16.1201171875 0 14.119140625 13.099609375 2.6806640625 16.1201171875 2.6796875 16.1201171875 -10.080078125 12.1005859375 -16.1201171875 0 -16.1201171875 0 -15.119140625 -12.1005859375 -2.6806640625 -16.1201171875 rrcurveto
            return
          </CharString>
          <CharString index="69">
            -7.63671875 -57 40.041015625 -45 56 0 56 0 50.958984375 45 7.63671875 57 7.634765625 57 -38.3525390625 46 -56 0 -56 0 -52.6474609375 -46 -7.634765625 -57 rrcurveto
            return
          </CharString>
          <CharString index="70">
            6.171875 41.8798828125 38.9423828125 34.900390625 41.880859375 0 41.8798828125 0 29.1962890625 -34.900390625 -6.171875 -41.8798828125 -6.1728515625 -41.8798828125 -37.9140625 -33.900390625 -41.8798828125 0 -41.8798828125 0 -30.2255859375 33.900390625 6.1728515625 41.8798828125 rrcurveto
            return
          </CharString>
          <CharString index="71">
            -16.98046875 -106.540039062 66.98046875 -25.439453125 66 2.6796875 rrcurveto
            return
          </CharString>
          <CharString index="72">
            296.139648438 12.3798828125 4.720703125 28.6201171875 rlineto
            return
          </CharString>
          <CharString index="73">
            -293.80078125 hlineto
            -46.1591796875 0 -48.1806640625 6.259765625 12.2802734375 78.740234375 rrcurveto
            34.6396484375 218.48046875 349.80078125 6.69921875 4.7197265625 29.30078125 -347.799804688 6.69921875 34.6396484375 217.8203125 rlineto
            9.2802734375 58.6796875 32.759765625 30.3203125 57.240234375 0 rrcurveto
            return
          </CharString>
          <CharString index="74">
            303.799804688 0 4.3798828125 28.9599609375 rlineto
            return
          </CharString>
          <CharString index="75">
            -302.120117188 12.0400390625 rlineto
            -68.080078125 2.6796875 -62.259765625 -31.3798828125 -16 -98 rrcurveto
            return
          </CharString>
          <CharString index="76">
            -2.6796875 -16.1201171875 11.080078125 -13.099609375 16.1201171875 0 16.1201171875 0 14.1201171875 13.099609375 2.6796875 16.1201171875 2.6796875 16.1201171875 -10.080078125 12.099609375 -16.1201171875 0 -16.119140625 0 -15.1201171875 -12.099609375 -2.6806640625 -16.1201171875 rrcurveto
            return
          </CharString>
          <CharString index="77">
            116.080078125 -133 32.69921875 0 -102.040039062 133 rlineto
            return
          </CharString>
          <CharString index="78">
            32.69921875 0 154 133 -49.4599609375 0 rlineto
            return
          </CharString>
          <CharString index="79">
            39.080078125 0 124.98046875 104.120117188 81.419921875 -104.120117188 33.3203125 0 -92.900390625 130 -38 0 rlineto
            return
          </CharString>
          <CharString index="80">
            -2.6796875 -16.1201171875 11.080078125 -13.099609375 16.1201171875 0 16.1201171875 0 14.1201171875 13.099609375 2.6796875 16.1201171875 2.6796875 16.1201171875 -10.080078125 12.1005859375 -16.1201171875 0 -16.119140625 0 -15.1201171875 -12.1005859375 -2.6806640625 -16.1201171875 rrcurveto
            return
          </CharString>
          <CharString index="81">
            7.7392578125 -19.2197265625 rlineto
            37.2802734375 21.919921875 28.6201171875 22.6396484375 40.0400390625 0.33984375 34.01953125 0.33984375 29.80078125 -59.7392578125 46.759765625 -0.3408203125 42.6796875 -0.33984375 35.7001953125 31.3798828125 40.3603515625 30.9599609375 rrcurveto
            -8.400390625 18.900390625 rlineto
            -19.2001953125 -13.900390625 -51.51953125 -32.9794921875 -33.900390625 0.33984375 -30.6396484375 0.33984375 -37.1806640625 58.3798828125 -42.7392578125 1.0205078125 -39.6806640625 0 -38.69921875 -29.0205078125 -41.0400390625 -31.01953125 rrcurveto
            return
          </CharString>
          <CharString index="82">
            41.33984375 0 104.560546875 657.360351562 313.659179688 -657.360351562 39.640625 0 116 732 -41 0 -104.560546875 -656.700195312 -312.659179688 656.700195312 -40.98046875 0 rlineto
            return
          </CharString>
          <CharString index="83">
            -53 -333 96.2998046875 -36.6201171875 173.879882812 0 177.620117188 0 101.080078125 37.3798828125 50.3193359375 323 52.640625 338.919921875 -95.140625 41.7001953125 -173.33984375 0 -173.01953125 0 -103.33984375 -28.3798828125 -54 -343 rrcurveto
            return
          </CharString>
          <CharString index="84">
            50.9599609375 324.080078125 91.51953125 10.919921875 142.900390625 0 147.759765625 0 80.7001953125 -19.5 -49.640625 -315.5 -44.279296875 -280.01953125 -77.9599609375 -43.98046875 -161.140625 0 -169.139648438 0 -56.640625 39.9404296875 44.9609375 284.059570312 rrcurveto
            return
          </CharString>
          <CharString index="85">
            39.0791015625 0 124.98046875 104.120117188 81.419921875 -104.120117188 33.3203125 0 -92.900390625 130 -38 0 rlineto
            return
          </CharString>
          <CharString index="86">
            -2.6796875 -16.1201171875 11.080078125 -13.099609375 16.119140625 0 16.1201171875 0 14.1201171875 13.099609375 2.6806640625 16.1201171875 2.6796875 16.1201171875 -10.080078125 12.1005859375 -16.1201171875 0 -16.1201171875 0 -15.1201171875 -12.1005859375 -2.6796875 -16.1201171875 rrcurveto
            return
          </CharString>
          <CharString index="87">
            -46.2197265625 -292.280273438 111.040039062 -26.599609375 145.520507812 0 163.139648438 0 95.439453125 57.080078125 41.48046875 261.799804688 rrcurveto
            66.01953125 418.120117188 -41.33984375 0 -66.01953125 -418.120117188 rlineto
            -39.2197265625 -248.620117188 -92.080078125 -29.259765625 -126.700195312 0 -130.560546875 0 -80.3798828125 15.9404296875 41.220703125 261.939453125 rrcurveto
            66.01953125 418.120117188 -41.33984375 0 rlineto
            return
          </CharString>
          <CharString index="88">
            39.080078125 0 124.979492188 104.120117188 81.4208984375 -104.120117188 33.3193359375 0 -92.8994140625 130 -38 0 rlineto
            return
          </CharString>
          <CharString index="89">
            -2.6796875 -16.1201171875 11.080078125 -13.099609375 16.1201171875 0 16.1201171875 0 14.1201171875 13.099609375 2.6796875 16.1201171875 2.6796875 16.1201171875 -10.080078125 12.1005859375 -16.119140625 0 -16.1201171875 0 -15.1201171875 -12.1005859375 -2.6806640625 -16.1201171875 rrcurveto
            return
          </CharString>
          <CharString index="90">
            164.599609375 -472 -41 -260 41 0 41 260 334.600585938 472 -49.060546875 0 -300.319335938 -419.940429688 -146.48046875 419.940429688 rlineto
            return
          </CharString>
          <CharString index="91">
            -40.66015625 -236.379882812 81.640625 -49.2802734375 114 0 77 0 93.859375 48 29 19 rrcurveto
            return
          </CharString>
          <CharString index="92">
            3.080078125 -60 27.259765625 0 70 479 rlineto
            -51 49 -115.540039062 22 -70 -9 rrcurveto
            -82 -10 -98 -28.080078125 -38.6396484375 -224.259765625 rrcurveto
            return
          </CharString>
          <CharString index="93">
            30.33984375 191.66015625 54.3603515625 46.33984375 99.3203125 14.6396484375 77.9599609375 11.2998046875 74.2998046875 -26.4794921875 39.5400390625 -17.3203125 rrcurveto
            -55.9599609375 -379.240234375 rlineto
            return
          </CharString>
          <CharString index="94">
            -68 -29 -55.240234375 -26.259765625 -83.599609375 0 -99.1201171875 0 -36.560546875 69.759765625 22.66015625 144.600585938 rrcurveto
            return
          </CharString>
          <CharString index="95">
            -2.6796875 -16.1201171875 11.080078125 -13.1005859375 16.1201171875 0 16.119140625 0 14.1201171875 13.1005859375 2.6806640625 16.1201171875 2.6796875 16.1201171875 -10.080078125 12.099609375 -16.1201171875 0 -16.1201171875 0 -15.1201171875 -12.099609375 -2.6796875 -16.1201171875 rrcurveto
            return
          </CharString>
          <CharString index="96">
            -34.01953125 -194 32.6796875 -91 128 0 83 0 71.7802734375 6 84 23 rrcurveto
            4.7001953125 29.599609375 rlineto
            -78 -11 -87.080078125 -10.3193359375 -76.66015625 2.7001953125 -94.759765625 1.6591796875 -19 62.419921875 20.33984375 143.140625 37 -15 345.120117188 -56.2001953125 28 219 15 116 -78.0205078125 37 -126 0 -195 0 -33.3798828125 -107.259765625 -27.7001953125 -155.740234375 rrcurveto
            return
          </CharString>
          <CharString index="97">
            25.599609375 126.640625 10.640625 105.559570312 184.739257812 0 98.900390625 0 57.2001953125 -23.1796875 -12.66015625 -88.8203125 -24.3203125 -176.280273438 -340.099609375 56.080078125 0 0 rrcurveto
            return
          </CharString>
          <CharString index="98">
            -2.6796875 -16.1201171875 11.080078125 -13.099609375 16.1201171875 0 16.1201171875 0 14.1201171875 13.099609375 2.6796875 16.1201171875 2.6796875 16.1201171875 -10.080078125 12.1005859375 -16.1201171875 0 -16.1201171875 0 -15.119140625 -12.1005859375 -2.6806640625 -16.1201171875 rrcurveto
            return
          </CharString>
          <CharString index="99">
            7.7392578125 -19.220703125 rlineto
            37.2802734375 21.919921875 28.6201171875 22.640625 40.0400390625 0.33984375 34.01953125 0.33984375 29.80078125 -59.740234375 46.759765625 -0.33984375 42.6796875 -0.33984375 35.7001953125 31.3798828125 40.3603515625 30.9599609375 rrcurveto
            -8.400390625 18.900390625 rlineto
            -19.2001953125 -13.900390625 -51.51953125 -32.9794921875 -33.900390625 0.33984375 -30.6396484375 0.33984375 -37.1806640625 58.3798828125 -42.7392578125 1.0205078125 -39.6806640625 0 -38.69921875 -29.0205078125 -41.0400390625 -31.01953125 rrcurveto
            return
          </CharString>
          <CharString index="100">
            41 0 69.6201171875 439.360351562 rlineto
            81.01953125 38.9794921875 52.560546875 20.66015625 85.2802734375 0 76.0791015625 0 38.6201171875 -54.419921875 -11.9794921875 -74.580078125 rrcurveto
            -59 -370 41 0 59 370 rlineto
            14 88 -45 82 -106 0 -81 0 -74.5205078125 -34.01953125 -65.6796875 -36.98046875 rrcurveto
            return
          </CharString>
          <CharString index="101">
            -4.080078125 62 -26.919921875 0 rlineto
            return
          </CharString>
          <CharString index="102">
            -30 -190 41.19921875 -77.6201171875 174.640625 0 170.379882812 0 60.2998046875 63.3603515625 31.6796875 195.01953125 30.3408203125 187 -40.16015625 95.6201171875 -171.299804688 0 -164.100585938 0 -68.9794921875 -56.3798828125 -34 -217 rrcurveto
            return
          </CharString>
          <CharString index="103">
            34.9599609375 215.6796875 67.8193359375 21.3203125 117.280273438 0 119.639648438 0 58.80078125 -35.6396484375 -32.30078125 -201.360351562 -31.3193359375 -192.8203125 -66.2197265625 -29.1796875 -120.180664062 0 -118.83984375 0 -61.2802734375 24.259765625 31.640625 197.740234375 rrcurveto
            return
          </CharString>
          <CharString index="104">
            -2.6806640625 -16.1201171875 11.080078125 -13.099609375 16.1201171875 0 16.1201171875 0 14.1201171875 13.099609375 2.6796875 16.1201171875 2.6796875 16.1201171875 -10.0791015625 12.1005859375 -16.1201171875 0 -16.1201171875 0 -15.1201171875 -12.1005859375 -2.6796875 -16.1201171875 rrcurveto
            return
          </CharString>
          <CharString index="105">
            -14.33984375 -90.3798828125 46 -79.6201171875 106 0 81 0 73.51953125 34.01953125 65.6806640625 36.98046875 rrcurveto
            return
          </CharString>
          <CharString index="106">
            4.080078125 -62 26.919921875 0 84 531 -41 0 -69.2802734375 -439.360351562 rlineto
            return
          </CharString>
          <CharString index="107">
            -81.01953125 -38.9794921875 -52.560546875 -20.66015625 -85.2802734375 0 -76.0791015625 0 -39.30078125 51.01953125 12.66015625 77.98046875 rrcurveto
            58.66015625 370 -41 0 rlineto
            return
          </CharString>
          <CharString index="108">
            -2.6806640625 -16.1201171875 11.080078125 -13.099609375 16.1201171875 0 16.1201171875 0 14.1201171875 13.099609375 2.6796875 16.1201171875 2.6806640625 16.1201171875 -10.080078125 12.1005859375 -16.1201171875 0 -16.1201171875 0 -15.1201171875 -12.1005859375 -2.6796875 -16.1201171875 rrcurveto
            return
          </CharString>
          <CharString index="109">
            76.2001953125 -421 rlineto
            17.6396484375 -98.6796875 66.6796875 -10.66015625 22.3603515625 -0.66015625 -12.580078125 -24.1396484375 -92.5595703125 -200.240234375 -74.400390625 -17.3603515625 rrcurveto
            -27.259765625 vlineto
            100.440429688 7.48046875 99.2998046875 209.479492188 27.2001953125 53.0400390625 rrcurveto
            215.719726562 441.940429688 rlineto
            11.3798828125 23.0791015625 13.900390625 39.9208984375 -9.0205078125 30.359375 rrcurveto
            -30.6396484375 hlineto
            -4.6796875 -31.0595703125 -10.9404296875 -27.8798828125 -11.3603515625 -23.7001953125 rrcurveto
            -200.919921875 -410.98046875 rlineto
            0.66015625 0 -70.5595703125 -11.3193359375 -15.919921875 84.6396484375 rrcurveto
            -75.880859375 415 rlineto
            return
          </CharString>
          <CharString index="110">
            -2.6796875 -16.1201171875 11.080078125 -13.099609375 16.1201171875 0 16.119140625 0 14.1201171875 13.099609375 2.6806640625 16.1201171875 2.6796875 16.1201171875 -10.080078125 12.099609375 -16.1201171875 0 -16.1201171875 0 -15.1201171875 -12.099609375 -2.6796875 -16.1201171875 rrcurveto
            return
          </CharString>
          <CharString index="111">
            -15.6600036621 -98.3000183105 62.4600067139 -13.6799926758 52.1999969482 0 rrcurveto
            117 hlineto
            66.0399932861 0 49.9600067139 10.0399932861 15 96 rrcurveto
            40 255 rlineto
            11 66.9999847412 -25.7200012207 46.9600067139 -80.2799987793 0 rrcurveto
            -117 hlineto
            -69.6399993896 0 -52.3600006104 -24.0200042725 -13 -84 rrcurveto
            return
          </CharString>
          <CharString index="112">
            7.44000244141 -14.7599945068 272.380004883 0 -23.9600067139 -150.36000061 33.3000030518 0 23.6199951172 150.36000061 rlineto
            return
          </CharString>
          <CharString index="113">
            60.6600036621 11.6799926758 3.38000488281 22.9600067139 -58.6600036621 0 27 169 -17.5 0 -22.8000030518 -48 -19.6600036621 -121 rlineto
            return
          </CharString>
          <CharString index="114">
            -228 0 227.960006714 289 -40 0 rlineto
            return
          </CharString>
          <CharString index="115">
            204.660003662 0 4.03999328613 24.9199981689 rlineto
            return
          </CharString>
          <CharString index="116">
            294.600006104 0 -248.880004883 -443.039993286 37.6600036621 0 254.979995728 455.559997559 -9.03999328613 20.4400024414 -323.940002441 0 rlineto
            return
          </CharString>
          <CharString index="117">
            8 51.3200073242 rlineto
            6.66000366211 41.3199920654 36.1800079346 24.5399932861 45.8399963379 0 rrcurveto
            121.940002441 hlineto
            29.0000152588 0 35.7799987793 -19.6199951172 -7.32000732422 -47.5599975586 rrcurveto
            -7.66000366211 -50 rlineto
            -8.96000671387 -56.4400024414 -30.5800018311 -18.2599945068 -48.4599914551 0 rrcurveto
            -110.300003052 hlineto
            -62.1799926758 1.52587890625e-05 -16.2399902344 20.9199981689 8.30000305176 53.7799987793 rrcurveto
            return
          </CharString>
          <CharString index="118">
            -204.660003662 hlineto
            return
          </CharString>
          <CharString index="119">
            39 247 rlineto
            8.96000671387 58.0599975586 28.1999969482 22.9799957275 64.1600036621 0 rrcurveto
            109 hlineto
            66.8600006104 -1.52587890625e-05 12.5399932861 -27.5599975586 -8.63999938965 -53.4799957275 rrcurveto
            -39 -247 rlineto
            -9.30000305176 -56.120010376 -16.620010376 -24.9199981689 -71.0800018311 0 rrcurveto
            -109 hlineto
            -62.200012207 0 -23.8399963379 13.2799987793 10.9600067139 67.7600097656 rrcurveto
            return
          </CharString>
          <CharString index="120">
            77 0 54.8999938965 32.2200012207 17 13 rrcurveto
            -68.9600067139 -434.679992676 32.9600067139 0 76 478 -32.2799987793 0 rlineto
            0 -73.5800018311 -67 -80 vhcurveto
            return
          </CharString>
          <CharString index="121">
            309 0 5.38000488281 32.9600067139 -244.800003052 0 rlineto
            37.5800170898 30.6600036621 237.819992065 152.180007935 20.0200042725 125.579986572 11.3000030518 65.7600097656 -24.6800079346 74.8600006104 -95.6199951172 0 rrcurveto
            return
          </CharString>
          <CharString index="122">
            175.300003052 hlineto
            83.0799865723 -1.52587890625e-05 13 -42.4799957275 -9.97999572754 -63.5599975586 -17.3399963379 -108.380004883 -231.63999939 -151.660003662 -76 -54 rrcurveto
            return
          </CharString>
          <CharString index="123">
            45.4199981689 -12.7400054932 64.2400054932 -0.639999389648 74 0 99.6799926758 -0.339996337891 34.3200073242 47.0199890137 11 71 rrcurveto
            4.66000366211 29.3200073242 rlineto
            7.97999572754 54.1600036621 -41.3800048828 32.0199890137 -22.0200042725 8.41999816895 25.3600006104 4.7200012207 51.0600128174 31.0599975586 8 53.6000061035 rrcurveto
            6 36.9799957275 rlineto
            9 60 -29.0600128174 52.700012207 -83.5999908447 0.339996337891 rrcurveto
            return
          </CharString>
          <CharString index="124">
            -76 0.339996337891 -68.9199981689 1 -51.4199981689 -12.7400054932 rrcurveto
            -3.03999328613 -21.2200012207 rlineto
            return
          </CharString>
          <CharString index="125">
            52 -9.06001281738 80.6600036621 0.0200042724609 81 -0.339996337891 64.3600006104 -0.339996337891 48.6199951172 28.9399871826 13.6800079346 85.4000091553 rrcurveto
            10.3399963379 64 rlineto
            11 71 -32.4000091553 35.8000030518 -71.8999938965 0 -65 0 -82.6800079346 11.3199920654 -36.6399993896 -50.1199951172 rrcurveto
            42.5399932861 200.039993286 263.699996948 0 5.38000488281 32.9600067139 -295 0 -61.3399963379 -292 30.9199981689 0 rlineto
            6.66000366211 36.3199920654 36.8400115967 28.5200042725 38.8600006104 0 rrcurveto
            110.339996338 hlineto
            73.4599914551 0 -2.39999389648 -37.3600006104 -6.30000305176 -40.4799957275 rrcurveto
            -8.33999633789 -56 rlineto
            -8.95999145508 -56.1000061035 -32.1999969482 -28.2799987793 -52.1600036621 0 rrcurveto
            return
          </CharString>
          <CharString index="126">
            -34.6400146484 -207.559997559 57.700012207 -42.4400024414 67.9199981689 0 rrcurveto
            112.63999939 hlineto
            64.7399902344 0 40.9800109863 31.0200042725 11.6600036621 72 rrcurveto
            11.6600036621 71.6799926758 rlineto
            7.65998840332 47.9399871826 -16.7799987793 42.1800079346 -81.1999969482 -0.34001159668 -48 -0.339996337891 -104.699996948 -3.03999328613 -56 -6 16.5999908447 99.879989624 28.8800048828 92.0599975586 75.5 0 rrcurveto
            return
          </CharString>
          <CharString index="127">
            -50.1800079346 8.04000854492 -91.8800048828 1.32000732422 -66.6600036621 -1.32000732422 rrcurveto
            -61.2599945068 -1.32000732422 -60.6800079346 -31.6799926758 -32.6599884033 -197 rrcurveto
            return
          </CharString>
          <CharString index="128">
            204.020004272 hlineto
            45.8399963379 1.52587890625e-05 28.5400085449 -5.68000793457 -7.98001098633 -49.8600006104 rrcurveto
            -11.9799957275 -68.2599945068 rlineto
            -8.64001464844 -49.1999969482 -27.2200012207 -25.5599975586 -49.5 0 rrcurveto
            -107.679992676 hlineto
            -68.2799987793 1.52587890625e-05 -17.3000030518 71.1799926758 20.1799926758 127.380004883 rrcurveto
            return
          </CharString>
          <CharString index="129">
            -8.66000366211 -53.6600036621 17.4400024414 -50.3399963379 87.2400054932 0 rrcurveto
            121.600006104 hlineto
            57.3800048828 0 46 17.6199951172 13.3399963379 86.3800048828 rrcurveto
            9.66000366211 58 rlineto
            5.97999572754 39.2200012207 -24.1599884033 35.4199981689 -33.0200042725 8.7200012207 48.6600036621 6.03999328613 23.8999938965 44.0800018311 3.97999572754 27.1999969482 rrcurveto
            6.66000366211 40 rlineto
            13.3200073242 81.9199981689 -39.0600128174 36.4000091553 -64.5599975586 0 rrcurveto
            -111.36000061 hlineto
            -67 0 -50.3399963379 -23.0200042725 -15 -92 rrcurveto
            -7 -40 rlineto
            -5 -32.6400146484 11 -42.9600067139 48.8999938965 -13.7399902344 -27 -3.38000488281 -44.2399902344 -19.9599914551 -8 -48 rrcurveto
            return
          </CharString>
          <CharString index="130">
            5 32 rlineto
            10.9600067139 68.4400024414 30.1999969482 19.5999908447 59.1600036621 0 rrcurveto
            98.6999969482 hlineto
            56.4799957275 -1.52587890625e-05 23.879989624 -16.2799987793 -11.3000030518 -71.7599945068 rrcurveto
            -5 -32 rlineto
            -6.64001464844 -41.4800109863 -34.3999938965 -28.0399932861 -42.3800048828 0 rrcurveto
            -124.199996948 hlineto
            -37.1800079346 -1.52587890625e-05 -30.9400024414 19.5800018311 7.66000366211 49.9400024414 rrcurveto
            return
          </CharString>
          <CharString index="131">
            10.3200073242 68.2599945068 rlineto
            7.97999572754 49.1999969482 28.5400085449 25.5599975586 49.5 0 rrcurveto
            107.020004272 hlineto
            68.2799987793 -1.52587890625e-05 17.6399993896 -71.1799926758 -20.1800079346 -127.380004883 rrcurveto
            -204.020004272 hlineto
            -45.8400115967 -1.52587890625e-05 -27.2200012207 5.68000793457 7.98001098633 49.8599853516 rrcurveto
            return
          </CharString>
          <CharString index="132">
            -19 -120 78.6199951172 -42 91 0 rrcurveto
            142.880004883 hlineto
            102.059997559 0 68.6399993896 43 19 119 rrcurveto
            48.3399963379 307.339996338 rlineto
            13.6599884033 84.2799987793 -33.3399963379 77.7200012207 -124.960006714 0 rrcurveto
            -144.199996948 hlineto
            -99.7600097656 0 -77.2600097656 -51.6199951172 -17.3399963379 -110.380004883 rrcurveto
            return
          </CharString>
          <CharString index="133">
            53.3000030518 -15.8200073242 115.220001221 -0.959991455078 114 0 122 0 65.6599884033 57.0199890137 17 109 rrcurveto
            9.33999633789 59 rlineto
            14.6400146484 94.4800109863 -60.5800018311 41.7200012207 -33.0400085449 10.4399871826 33.4000091553 5.06001281738 73.9400024414 29.4799957275 16.299987793 96.8399963379 rrcurveto
            11 70.3200073242 rlineto
            15 93.0200042725 -48.8199920654 72.620010376 -111.180007935 2 rrcurveto
            return
          </CharString>
          <CharString index="134">
            -117 2 -111.679992676 -0.320007324219 -72.5399932861 -17.8000030518 rrcurveto
            -3.69999694824 -24.8800048828 rlineto
            return
          </CharString>
          <CharString index="135">
            294.5 hlineto
            71.799987793 0 56.6000061035 -32.8200073242 -14.6399993896 -91.1799926758 rrcurveto
            -10.3399963379 -69 rlineto
            -11.9799957275 -76.8400115967 -68.7200012207 -35 -74.9400024414 -1.67999267578 rrcurveto
            return
          </CharString>
          <CharString index="136">
            222.199996948 -7 rlineto
            55.9799957275 -2.00001525879 75.7200012207 -21.1599884033 -16 -100 rrcurveto
            -9.33999633789 -59 rlineto
            -16.2799987793 -100 -73.2399902344 -26 -68.4600067139 0 rrcurveto
            return
          </CharString>
          <CharString index="137">
            14.7998046875 -29.0800018311 383.780197144 0 -31.6399993896 -201.5 42.0200042725 0 31.6399993896 201.5 rlineto
            return
          </CharString>
          <CharString index="138">
            17.6799926758 117.080001831 rlineto
            14.299987793 92.7799987793 72.1999969482 16.6199951172 52.1399993896 0 rrcurveto
            129.86000061 hlineto
            128.379989624 0 -12.0200042725 -190.119995117 -22.6199951172 -141.720001221 rrcurveto
            -272.240005493 hlineto
            -71.5800170898 0 -50.7200012207 15.3200073242 14.620010376 90.0399932861 rrcurveto
            return
          </CharString>
          <CharString index="139">
            473 0 6.7200012207 42 -473 0 rlineto
            return
          </CharString>
          <CharString index="140">
            696 0 6.7200012207 42 -696 0 rlineto
            return
          </CharString>
          <CharString index="141">
            -159.33984375 -65.3203125 55.6591796875 -131.6796875 118 16 rrcurveto
            4.720703125 29.6396484375 rlineto
            -115.33984375 -3.33984375 7.9794921875 101.879882812 109.5 52.8203125 rrcurveto
            return
          </CharString>
          <CharString index="142">
            25.9400024414 0 29.0200042725 134 10.3399963379 67 -41.6600036621 0 -10.3399963379 -67 rlineto
            return
          </CharString>
          <CharString index="143">
            92.900390625 -130 38 0 147.899414062 130 -39.080078125 0 -124.979492188 -104.120117188 -81.419921875 104.120117188 rlineto
            return
          </CharString>
          <CharString index="144">
            41.599609375 -7.6591796875 136.959960938 -10.400390625 58.1806640625 0 93.2197265625 0 107.16015625 15.2998046875 22.6796875 145.400390625 rrcurveto
            10.33984375 68 rlineto
            13 82 -18.6796875 76.7998046875 -129.599609375 0 rrcurveto
            -122.5 hlineto
            -78.740234375 0 -52 9.48046875 16.33984375 105.01953125 rrcurveto
            10.66015625 66 rlineto
            17.6396484375 112.5 62.2001953125 28.5 95.1396484375 -4 0 0 171.600585938 -5.7001953125 58.580078125 -2.6396484375 rrcurveto
            4.3798828125 28.6396484375 rlineto
            -50.0400390625 8 -124.799804688 12.0205078125 -53 0.6796875 -110.640625 1.3603515625 -88.3798828125 -27.98046875 -23.6796875 -148.740234375 rrcurveto
            -10.66015625 -66 rlineto
            -12 -76.9794921875 6.3203125 -81.16015625 155.6796875 0 rrcurveto
            121.1796875 hlineto
            91.8408203125 0 20.7998046875 -39.01953125 -11.640625 -75.48046875 rrcurveto
            -10.33984375 -68 rlineto
            -16.2998046875 -106.120117188 -84.3798828125 -16.8798828125 -73.33984375 0 -93 0 -104.400390625 2.6796875 -43 4.6806640625 rrcurveto
            return
          </CharString>
          <CharString index="145">
            37.7998046875 hlineto
            81.98046875 0 25.01953125 35.3203125 16 100.6796875 rrcurveto
            -34 hlineto
            -11.9404296875 -84.2001953125 -24.51953125 -16.83984375 -46.5 -9.3603515625 rrcurveto
            -41.1396484375 -8.3994140625 rlineto
            return
          </CharString>
          <CharString index="146">
            92.8994140625 -130 38 0 147.900390625 130 -39.080078125 0 -124.98046875 -104.120117188 -81.419921875 104.120117188 rlineto
            return
          </CharString>
          <CharString index="147">
            240.400390625 0 -109.280273438 -691 41 0 109.280273438 691 246.399414062 0 6.7197265625 41 -527.799804688 0 rlineto
            return
          </CharString>
          <CharString index="148">
            92.900390625 -130 38 0 147.899414062 130 -39.0791015625 0 -124.98046875 -104.120117188 -81.419921875 104.120117188 rlineto
            return
          </CharString>
          <CharString index="149">
            473.200195312 0 6.7197265625 41 -419.099609375 0 521.66015625 650 6.7197265625 41 -473.200195312 0 -6.7197265625 -41 419.099609375 0 -521.66015625 -650 rlineto
            return
          </CharString>
          <CharString index="150">
            -1.412109375 -9.3798828125 5.837890625 -6.3603515625 9.3798828125 0 rrcurveto
            24.259765625 hlineto
            9.3798828125 0 7.1181640625 5.3603515625 1.515625 10.3798828125 rrcurveto
            9.5419921875 59.2802734375 rlineto
            1.4111328125 9.3798828125 -4.1572265625 7.0400390625 -10.3798828125 0 rrcurveto
            -24.259765625 hlineto
            -10.7197265625 0 -6.458984375 -6.0400390625 -1.515625 -10.3798828125 rrcurveto
            return
          </CharString>
          <CharString index="151">
            -159.33984375 -65.3203125 55.66015625 -131.6796875 118 16 rrcurveto
            4.7197265625 29.6396484375 rlineto
            -115.33984375 -3.33984375 7.98046875 101.879882812 109.5 52.8203125 rrcurveto
            return
          </CharString>
          <CharString index="152">
            241.200195312 0 5.0400390625 28.6201171875 rlineto
            return
          </CharString>
          <CharString index="153">
            -254.200195312 hlineto
            return
          </CharString>
          <CharString index="154">
            37 -4 164.540039062 -9.060546875 49 0 61.2802734375 0 72.3798828125 5.3798828125 17 109 rrcurveto
            8.33984375 53.7607421875 rlineto
            12 75 -46.2998046875 48.0595703125 -79.740234375 0 rrcurveto
            -135.48046875 hlineto
            -59.01953125 0 -38.66015625 -2.740234375 12.98046875 79.5400390625 rrcurveto
            7.33984375 47.7001953125 rlineto
            8.2802734375 54.3203125 25.4794921875 34.3798828125 77.2001953125 0 rrcurveto
            return
          </CharString>
          <CharString index="155">
            -51 5 -136.860351562 6.3798828125 -52 0 -103 0 -42 -41.3798828125 -13.33984375 -83.3603515625 rrcurveto
            -7.33984375 -47.7001953125 rlineto
            -16 -101.979492188 44.7197265625 -19.7802734375 94 0 rrcurveto
            136.780273438 hlineto
            61.8193359375 0 20.220703125 -33.8603515625 -7.3203125 -44.2392578125 rrcurveto
            -8.33984375 -50.7001953125 rlineto
            -13.2998046875 -81.7802734375 -57.30078125 1.3798828125 -31.01953125 0 rrcurveto
            return
          </CharString>
          <CharString index="156">
            92.8994140625 -130 38 0 147.900390625 130 -39.080078125 0 -124.979492188 -104.120117188 -81.419921875 104.120117188 rlineto
            return
          </CharString>
          <CharString index="157">
            381 hlineto
            0 0 7.3798828125 40 -1 1 rrcurveto
            -323.51953125 0 395.099609375 448 6.0400390625 41 -396 0 -6.0400390625 -41 339.219726562 0 -396.479492188 -448 rlineto
            return
          </CharString>
          <CharString index="158">
            -1.4111328125 -9.3798828125 5.8369140625 -6.3603515625 9.380859375 0 rrcurveto
            24.259765625 hlineto
            9.3798828125 0 7.1181640625 5.3603515625 1.515625 10.3798828125 rrcurveto
            9.5419921875 59.279296875 rlineto
            1.4111328125 9.380859375 -4.1572265625 7.0400390625 -10.3798828125 0 rrcurveto
            -24.259765625 hlineto
            -10.720703125 0 -6.4580078125 -6.0400390625 -1.515625 -10.380859375 rrcurveto
            return
          </CharString>
          <CharString index="159">
            41 0 51.6396484375 324.5 rlineto
            2.640625 -1.98046875 192.139648438 -8.7197265625 34.98046875 -0.66015625 rrcurveto
            105.599609375 -313.139648438 44.7001953125 0 rlineto
            return
          </CharString>
          <CharString index="160">
            -107.98046875 315.860351562 rlineto
            59.3603515625 2.6796875 94.5 14.66015625 26.259765625 189.359375 24.259765625 174.920898438 -83.8193359375 34.51953125 -81.0400390625 0 rrcurveto
            -288.240234375 hlineto
            return
          </CharString>
          <CharString index="161">
            52.919921875 334.5 246.899414062 0 rlineto
            67.8408203125 0 57.0595703125 -18.2802734375 -19.580078125 -146.51953125 -19.5595703125 -143.640625 -69.5400390625 -26.0595703125 -70.83984375 0 rrcurveto
            return
          </CharString>
          <CharString index="162">
            -9.2998046875 -72.6796875 53.33984375 -41.3203125 54.3203125 0 59.759765625 0 59.2001953125 36.2998046875 11.66015625 77.7001953125 rrcurveto
            -24.8798828125 hlineto
            -8.66015625 -55.6201171875 -42.8603515625 -33.1796875 -53.5595703125 -0.3203125 -46.8603515625 -0.66015625 -35.259765625 37.5400390625 7.9794921875 52.240234375 rrcurveto
            return
          </CharString>
          <CharString index="163">
            -31.9599609375 -199.700195312 30.6201171875 -179.580078125 186.359375 0 56.419921875 0 95.0400390625 5.9404296875 76.419921875 16.3994140625 rrcurveto
            4.0400390625 29.2998046875 rlineto
            -48.279296875 -3.3994140625 -94.720703125 -8.259765625 -84.259765625 1.01953125 -140.099609375 3.0595703125 -41.8603515625 122.380859375 33.2802734375 205.559570312 45.359375 288.16015625 93.8798828125 44.5 115.720703125 0.33984375 93.01953125 0.6796875 120.360351562 -14 8.1396484375 -1.01953125 rrcurveto
            4.3798828125 29.2998046875 rlineto
            -68 13 -101.51953125 13.0400390625 -52 0 -201.640625 0 -61.6796875 -135.360351562 -37.01953125 -231.359375 rrcurveto
            return
          </CharString>
          <CharString index="164">
            92.8994140625 -130 38 0 147.900390625 130 -39.080078125 0 -124.979492188 -104.120117188 -81.4208984375 104.120117188 rlineto
            return
          </CharString>
          <CharString index="165">
            -159.33984375 -65.3203125 55.66015625 -131.6796875 118 16 rrcurveto
            4.7197265625 29.6396484375 rlineto
            -115.33984375 -3.33984375 7.9794921875 101.879882812 109.5 52.8203125 rrcurveto
            return
          </CharString>
          <CharString index="166">
            -20.66015625 -130.98046875 34.0400390625 -58.01953125 87.740234375 0 rrcurveto
            66.01953125 0 4.3798828125 27.6201171875 rlineto
            -4.9599609375 -68.0595703125 13.3798828125 0 hvcurveto
            -32.400390625 5.7001953125 -47.0400390625 5.01953125 21.9404296875 137.280273438 rrcurveto
            94 594 -41 0 rlineto
            return
          </CharString>
          <CharString index="167">
            32.7001953125 0 154 133 -49.4609375 0 rlineto
            return
          </CharString>
          <CharString index="168">
            -36.3203125 -222.120117188 71.3603515625 -53.5 100.01953125 -0.33984375 83 0.3203125 48.7998046875 5.33984375 85 23 rrcurveto
            4.380859375 29.599609375 rlineto
            0 -125.860351562 -17.599609375 -92 vhcurveto
            -78.8603515625 0 -50.4794921875 40.0595703125 30.9599609375 186.620117188 34.6796875 208.51953125 56.48046875 25.16015625 80.1201171875 0 rrcurveto
            89 116.879882812 -13.279296875 0 hvcurveto
            4.69921875 27.599609375 rlineto
            -62.7197265625 13.66015625 -89.1396484375 13.01953125 -52 0 -99.2802734375 0 -79.33984375 -26.919921875 -39.3798828125 -239.139648438 rrcurveto
            return
          </CharString>
          <CharString index="169">
            92.900390625 -130 38 0 147.900390625 130 -39.080078125 0 -124.98046875 -104.120117188 -81.419921875 104.120117188 rlineto
            return
          </CharString>
          <CharString index="170">
            -7.6357421875 -57 40.041015625 -45 56 0 56 0 50.958984375 45 7.6357421875 57 7.634765625 57 -38.3515625 46 -56 0 -56 0 -52.6484375 -46 -7.634765625 -57 rrcurveto
            return
          </CharString>
          <CharString index="171">
            89.099609375 0 -47.939453125 -302.66015625 rlineto
            -20.66015625 -131.3203125 35.01953125 -57.6796875 88.4208984375 0 rrcurveto
            64.69921875 0 4.0400390625 27.6201171875 rlineto
            -4.9599609375 -68.0595703125 13.3798828125 0 hvcurveto
            -32.400390625 5.7001953125 -46.7001953125 5.01953125 21.6005859375 137.280273438 rrcurveto
            47.939453125 302.66015625 rlineto
            return
          </CharString>
          <CharString index="172">
            168.200195312 0 6.7197265625 41 -168.19921875 0 23 148 -29.6005859375 0 -34.3994140625 -148 rlineto
            return
          </CharString>
          <CharString index="173">
            -90.7802734375 -11.400390625 rlineto
            return
          </CharString>
          <CharString index="174">
            -2.6796875 -16.119140625 11.080078125 -13.1005859375 16.119140625 0 16.1201171875 0 14.1201171875 13.1005859375 2.6806640625 16.119140625 2.6796875 16.1201171875 -10.080078125 12.1005859375 -16.1201171875 0 -16.1201171875 0 -15.1201171875 -12.1005859375 -2.6796875 -16.1201171875 rrcurveto
            return
          </CharString>
          <CharString index="175">
            377.320007324 0 6.7200012207 41 -377.320007324 0 rlineto
            return
          </CharString>
          <CharString index="176">
            39.080078125 0 124.98046875 104.120117188 81.419921875 -104.120117188 33.3193359375 0 -92.8994140625 130 -38 0 rlineto
            return
          </CharString>
          <CharString index="177">
            -31.2998046875 -194.419921875 3.599609375 -185.83984375 199.860351562 0.98046875 85.2392578125 0 111.400390625 40.279296875 32.66015625 20.419921875 rrcurveto
            3.3994140625 -55.01953125 28.6201171875 0 61 386 rlineto
            -24 2 -22.66015625 1 -21 0 rrcurveto
            return
          </CharString>
          <CharString index="178">
            -81 0 -50.7197265625 -4.759765625 -42 -11 rrcurveto
            -4.7001953125 -26.240234375 198.700195312 0 -41.919921875 -259.98046875 rlineto
            0 -149.66015625 -51.69921875 -78 vhcurveto
            -144.719726562 -0.33984375 -25.3603515625 112.899414062 34.580078125 219.100585938 37.740234375 246.919921875 70.419921875 85.099609375 129.620117188 -0.33984375 77.6796875 -0.33984375 139.200195312 -15.8798828125 24.3603515625 -3.060546875 rrcurveto
            4.69921875 32.6005859375 rlineto
            -68 13 -121.259765625 15.01953125 -50.9794921875 -0.33984375 rrcurveto
            -199 0 -52.1201171875 -154.5 -34.3798828125 -211.560546875 rrcurveto
            return
          </CharString>
          <CharString index="179">
            -1.412109375 -9.3798828125 5.837890625 -6.3603515625 9.3798828125 0 rrcurveto
            24.259765625 hlineto
            9.3798828125 0 7.1181640625 5.3603515625 1.515625 10.3798828125 rrcurveto
            9.5419921875 59.279296875 rlineto
            1.4111328125 9.380859375 -4.15625 7.0400390625 -10.380859375 0 rrcurveto
            -24.259765625 hlineto
            -10.7197265625 0 -6.4580078125 -6.0400390625 -1.5166015625 -10.380859375 rrcurveto
            return
          </CharString>
          <CharString index="180">
            -9.2998046875 -72.6796875 53.33984375 -41.3203125 54.3203125 0 59.759765625 0 59.2001953125 36.2998046875 11.66015625 77.7001953125 rrcurveto
            -24.8798828125 hlineto
            -8.66015625 -55.6201171875 -42.8603515625 -33.1796875 -53.5595703125 -0.3203125 -46.8603515625 -0.66015625 -35.259765625 37.5400390625 7.98046875 52.240234375 rrcurveto
            return
          </CharString>
          <CharString index="181">
            234.200195312 -24 rlineto
            77.7001953125 -8 88.2998046875 52 20 124 rrcurveto
            98.66015625 624.599609375 rlineto
            -46 4 -88.900390625 12.400390625 -106 0 -120.580078125 0 -76.3798828125 -94 -27 -168 -25 -158 13.7001953125 -126.66015625 155.379882812 0 45 0 89.1201171875 12.66015625 68 26 rrcurveto
            -21 -133 rlineto
            -14.6201171875 -93.0400390625 -72.0400390625 -37.599609375 -51.6201171875 2.6396484375 rrcurveto
            -236.879882812 9.900390625 rlineto
            return
          </CharString>
          <CharString index="182">
            18.2197265625 113.639648438 55.1005859375 114.360351562 112.939453125 -1.98046875 rrcurveto
            193.220703125 -3.2998046875 -69.240234375 -430.100585938 rlineto
            -86 -21 -45.5205078125 -10.599609375 -74 0 -115.319335938 0 -11.2802734375 98.6796875 21.8798828125 140.30078125 rrcurveto
            return
          </CharString>
          <CharString index="183">
            -19 -96 67.9599609375 -59.3203125 102 0 rrcurveto
            133.059570312 hlineto
            147 0 17.98046875 86.6396484375 10.33984375 67.3603515625 rrcurveto
            5 33 rlineto
            13 79 -70.2998046875 38.48046875 -68 9 rrcurveto
            -220.30078125 28.2998046875 rlineto
            -34.859375 4.3193359375 1.4599609375 18.900390625 4 26 5 32 23.01953125 12.16015625 53.6201171875 0 rrcurveto
            147 hlineto
            138.700195312 0 44.66015625 101.83984375 10 77 18 141 -84.9599609375 46 -68.66015625 0.66015625 rrcurveto
            -100.379882812 1.33984375 rlineto
            -107 1.33984375 -72 -60.33984375 -20 -130 -8 -53 17.6201171875 -69.599609375 41.3193359375 -25.3603515625 -42.7392578125 -3.2998046875 -31.900390625 -26.240234375 -7.6396484375 -52.5 rrcurveto
            return
          </CharString>
          <CharString index="184">
            31.6396484375 154.16015625 243.33984375 -31.66015625 rlineto
            80.7001953125 -10.6396484375 34.6396484375 -27.6201171875 -8.9794921875 -56.240234375 rrcurveto
            -4.33984375 -28 rlineto
            -9.640625 -61.51953125 -24.2998046875 -51.140625 -92.66015625 0 rrcurveto
            -146.040039062 hlineto
            -55.1396484375 0 -66.5400390625 28.400390625 17.3203125 84.259765625 rrcurveto
            return
          </CharString>
          <CharString index="185">
            17.580078125 100.1796875 50.3798828125 47.8203125 82 0 rrcurveto
            104.299804688 hlineto
            74 0 38.3603515625 -61.98046875 -13.6201171875 -86.01953125 -6 -38 -27.6806640625 -99.5 -105.359375 0 rrcurveto
            -125.419921875 hlineto
            -77 0 -20.8603515625 81.900390625 9.3203125 55.599609375 rrcurveto
            return
          </CharString>
          <CharString index="186">
            -1.4111328125 -9.3798828125 5.8369140625 -6.3603515625 9.3798828125 0 rrcurveto
            24.2607421875 hlineto
            9.3798828125 0 7.1181640625 5.3603515625 1.515625 10.3798828125 rrcurveto
            9.5419921875 59.279296875 rlineto
            1.4111328125 9.380859375 -4.1572265625 7.0400390625 -10.3798828125 0 rrcurveto
            -24.259765625 hlineto
            -10.720703125 0 -6.4580078125 -6.0400390625 -1.515625 -10.380859375 rrcurveto
            return
          </CharString>
          <CharString index="187">
            97 0 -77.2799987793 -490 41 0 rlineto
            return
          </CharString>
          <CharString index="188">
            77.2799987793 490 rlineto
            return
          </CharString>
          <CharString index="189">
            -100.020004272 -13.6999969482 rlineto
            return
          </CharString>
          <CharString index="190">
            90.3999938965 0 -77.2799987793 -490 41 0 rlineto
            return
          </CharString>
          <CharString index="191">
            4.03999328613 25.2400054932 rlineto
            return
          </CharString>
          <CharString index="192">
            0 0 46.3134765625 -10.8544921875 8.3525390625 52.830078125 rrcurveto
            14.8212890625 94.068359375 rlineto
            1.3642578125 9.341796875 -2.228515625 6.6416015625 -10.8544921875 0 rrcurveto
            -21.5458984375 hlineto
            -9.6484375 0 -6.1181640625 -5.1298828125 -1.7646484375 -10.853515625 rrcurveto
            -8.28125 -53.3525390625 rlineto
            -1.669921875 -9.9541015625 5.5595703125 -5.41796875 8.44140625 0 rrcurveto
            6.9306640625 0 -5.646484375 -35.5673828125 rlineto
            -1.17578125 -6.9306640625 -2.6650390625 -11.771484375 -18.08984375 0.3056640625 rrcurveto
            return
          </CharString>
          <CharString index="193">
            265.599609375 0 4.7197265625 31.3203125 -265.599609375 0 rlineto
            return
          </CharString>
          <CharString index="194">
            0 0 46.3134765625 -10.8544921875 8.353515625 52.830078125 rrcurveto
            14.8212890625 94.068359375 rlineto
            1.3642578125 9.341796875 -2.2294921875 6.6416015625 -10.8544921875 0 rrcurveto
            -21.5458984375 hlineto
            -9.6474609375 0 -6.1181640625 -5.1298828125 -1.7646484375 -10.853515625 rrcurveto
            -8.28125 -53.3525390625 rlineto
            -1.6708984375 -9.9541015625 5.5595703125 -5.41796875 8.4423828125 0 rrcurveto
            6.9296875 0 -5.6455078125 -35.5673828125 rlineto
            -1.1767578125 -6.9306640625 -2.6650390625 -11.771484375 -18.08984375 0.3056640625 rrcurveto
            return
          </CharString>
          <CharString index="195">
            265.600585938 0 4.7197265625 31.3203125 -265.599609375 0 rlineto
            return
          </CharString>
          <CharString index="196">
            265.600585938 0 4.7197265625 31.3203125 -265.600585938 0 rlineto
            return
          </CharString>
          <CharString index="197">
            265.599609375 0 4.720703125 31.3203125 -265.600585938 0 rlineto
            return
          </CharString>
          <CharString index="198">
            0 0 46.3134765625 -10.8544921875 8.3525390625 52.830078125 rrcurveto
            14.8212890625 94.068359375 rlineto
            1.3642578125 9.341796875 -2.2294921875 6.6416015625 -10.853515625 0 rrcurveto
            -21.5458984375 hlineto
            -9.6484375 0 -6.1181640625 -5.1298828125 -1.7646484375 -10.853515625 rrcurveto
            -8.28125 -53.3525390625 rlineto
            -1.6708984375 -9.9541015625 5.5595703125 -5.41796875 8.4423828125 0 rrcurveto
            6.9296875 0 -5.6455078125 -35.5673828125 rlineto
            -1.1767578125 -6.9306640625 -2.6650390625 -11.771484375 -18.08984375 0.3056640625 rrcurveto
            return
          </CharString>
          <CharString index="199">
            -1.412109375 -9.3798828125 5.837890625 -6.3603515625 9.3798828125 0 rrcurveto
            24.259765625 hlineto
            9.3798828125 0 7.1181640625 5.3603515625 1.515625 10.3798828125 rrcurveto
            9.5419921875 59.279296875 rlineto
            1.4111328125 9.380859375 -4.1572265625 7.0400390625 -10.3798828125 0 rrcurveto
            -24.259765625 hlineto
            -10.7197265625 0 -6.458984375 -6.0400390625 -1.515625 -10.380859375 rrcurveto
            return
          </CharString>
          <CharString index="200">
            25.9400024414 0 28.3600006104 134 11 67 -41.6600036621 0 -11 -67 rlineto
            return
          </CharString>
          <CharString index="201">
            -12.6600036621 -84.6600036621 28.8199920654 -42.3200073242 90.1800079346 0 rrcurveto
            50.0599975586 hlineto
            102.020004272 0 33.6399993896 35.3000030518 13.3399963379 87.7200012207 rrcurveto
            10.6799926758 69.8000030518 rlineto
            13.3400115967 87.0399932861 -27.0800018311 39.9400024414 -93.9199981689 0 rrcurveto
            -50.0599975586 hlineto
            -104.399993896 -1.52587890625e-05 -30.2799987793 -38.6999969482 -13 -84.3199920654 rrcurveto
            return
          </CharString>
          <CharString index="202">
            10.6799926758 69.8000030518 rlineto
            11.6199951172 74.0399932861 28.1399993896 18.9599914551 71.8600006104 0 rrcurveto
            49.3999938965 hlineto
            75.8000183105 -1.52587890625e-05 15.2199859619 -24.8600006104 -10.6399993896 -68.1399993896 rrcurveto
            -10.6799926758 -69.8000030518 rlineto
            -11.6199951172 -75.0599975586 -30.8000030518 -17.9400024414 -69.5200042725 0 rrcurveto
            -49.3999938965 hlineto
            -67.4600067139 0 -24.2200012207 19.5800018311 11.620010376 73.4199981689 rrcurveto
            return
          </CharString>
          <CharString index="203">
            38 0 430.720001221 570 -38 0 rlineto
            return
          </CharString>
          <CharString index="204">
            -12.6599884033 -84.6600036621 28.8199920654 -42.3200073242 90.1800079346 0 rrcurveto
            51.3800048828 hlineto
            102.020004272 0 32.6600036621 34.6399993896 13 87.7200012207 rrcurveto
            10.6799926758 69.8000030518 rlineto
            return
          </CharString>
          <CharString index="205">
            13.9999847412 89.0199890137 -27.0800018311 38.620010376 -93.9199981689 0 rrcurveto
            -49.3999938965 hlineto
            -104.399993896 1.52587890625e-05 -31.5999908447 -38.6999969482 -13 -84.3200073242 rrcurveto
            return
          </CharString>
          <CharString index="206">
            10.6799926758 69.8000030518 rlineto
            11.620010376 74.0400085449 28.1399993896 18.9600067139 71.8600006104 0 rrcurveto
            49.3999938965 hlineto
            75.799987793 1.52587890625e-05 15.2200012207 -24.8600006104 -10.6399993896 -68.1399993896 rrcurveto
            -10.6799926758 -69.8000030518 rlineto
            -11.6199951172 -75.0599975586 -31.1399993896 -17.9400024414 -69.5199890137 0 rrcurveto
            -49.3999938965 hlineto
            -67.4599914551 0 -23.8800048828 19.5800018311 11.6199951172 73.4199981689 rrcurveto
            return
          </CharString>
          <CharString index="207">
            278.399993896 0 4.7200012207 29.9799957275 rlineto
            return
          </CharString>
          <CharString index="208">
            -8.66000366211 -52.6399993896 -31.0200042725 -253.13999939 207 1 60 0 79.2799987793 23.6000061035 58 34 rrcurveto
            return
          </CharString>
          <CharString index="209">
            4.03999328613 -50.6000061035 28.2799987793 0 48.3399963379 308 rlineto
            -23.9999847412 2 -21 1 -21 0 rrcurveto
            return
          </CharString>
          <CharString index="210">
            -81 0 -17.1600036621 -6.74000549316 -63.1199951172 -8.36000061035 rrcurveto
            -4.03999328613 -25.8999938965 184.600006104 0 -28.2400054932 -178.399993896 rlineto
            -25 -17 -90.9199981689 -40.9400024414 -81 0 -117 0 -37.2799987793 111.339996338 22.5599975586 143 30.6399993896 191.179992676 55.4800109863 58.8200073242 125.819992065 0 88.3800048828 0 62.5599975586 -8.32000732422 61 -6 rrcurveto
            4.7200012207 30.3200073242 rlineto
            -61.9399871826 14.3000030518 -105.660003662 10.6999969482 -43 0 rrcurveto
            -172 0 -57.3399963379 -97.2200012207 -30.3199920654 -184 rrcurveto
            return
          </CharString>
          <CharString index="211">
            41 0 90 570 -41 0 rlineto
            return
          </CharString>
          <CharString index="212">
            -39 -249.000015259 77.1799926758 -38.6399993896 161.660003662 0 168 0 73.3600006104 42.3800048828 39 245 41 256 -76.5200042725 36.6199951172 -164.320007324 0 -167.319992065 0 -74.0399932861 -48.3600006104 -39 -244 rrcurveto
            return
          </CharString>
          <CharString index="213">
            35.6599884033 221 66.4600067139 28 133.940002441 0 150.279998779 0 43.5399932861 -27.3800048828 -32.6799926758 -219.619995117 -31.3600006104 -214.36000061 -68.4800109863 -36.6399993896 -138.219985962 0 -146.060012817 0 -47.379989624 35.1600036621 34.3000030518 213.839996338 rrcurveto
            return
          </CharString>
          <CharString index="214">
            48.060546875 0 97.83984375 171.799804688 272.33984375 0 40.6201171875 -171.799804688 42.33984375 0 -131.919921875 570 -41 0 rlineto
            return
          </CharString>
          <CharString index="215">
            172.939453125 303.719726562 68.16015625 -303.719726562 rlineto
            return
          </CharString>
          <CharString index="216">
            41 0 40.6396484375 255.83984375 rlineto
            1 -2 162.620117188 -8.0400390625 30 -2 rrcurveto
            96.2998046875 -243.799804688 46.3408203125 0 -99.66015625 247.51953125 rlineto
            76.740234375 5.0205078125 65.4794921875 47.2001953125 12.9404296875 104.259765625 16.259765625 134.33984375 -80.3603515625 32.66015625 -64.240234375 0 rrcurveto
            -255.059570312 hlineto
            return
          </CharString>
          <CharString index="217">
            39.2607421875 245.200195312 214.399414062 0 rlineto
            45.2802734375 0 65.419921875 -24.83984375 -18.6396484375 -99.1796875 -19 -101.620117188 -66.759765625 -19.560546875 -38.9609375 0 rrcurveto
            return
          </CharString>
          <CharString index="218">
            -2.67999267578 -16.120010376 11.0800018311 -13.0999908447 16.1199951172 0 16.1199951172 0 14.7799987793 13.0999908447 2.68000793457 16.120010376 2.67999267578 16.1199951172 -10.7399902344 12.4400024414 -16.120010376 0 -16.1199951172 0 -15.1199951172 -12.4400024414 -2.68000793457 -16.1199951172 rrcurveto
            return
          </CharString>
          <CharString index="219">
            35 -12 169.200195312 -6.0400390625 49 0 55 0 78.66015625 16.3603515625 17 109 rrcurveto
            11 70 rlineto
            12 75 -37.640625 40.1396484375 -87 0 rrcurveto
            -140.200195312 hlineto
            -58.779296875 0 -38.560546875 -1.6796875 11.98046875 75.1796875 rrcurveto
            10.66015625 64.2802734375 rlineto
            9.6201171875 61.7197265625 32.83984375 33 69.16015625 0 rrcurveto
            98 144.540039062 -5.3203125 0 hvcurveto
            4.3798828125 28.6201171875 rlineto
            -66 9 -122.200195312 7.7001953125 -52 0 -103 0 -44.0205078125 -49.419921875 -13 -82 rrcurveto
            -9.9794921875 -64.2802734375 rlineto
            -14.3203125 -98.0400390625 45.060546875 -19.759765625 89.2392578125 0 rrcurveto
            140.200195312 hlineto
            63.16015625 0 23.83984375 -16.599609375 -8.9794921875 -54.900390625 rrcurveto
            -11 -70 rlineto
            -6.98046875 -43.8798828125 -28.240234375 -43.1201171875 -68.0595703125 0 rrcurveto
            -96 -159.200195312 4.98046875 0 hvcurveto
            return
          </CharString>
          <CharString index="220">
            -8 -52 31.6396484375 -33 50 0 rrcurveto
            return
          </CharString>
          <CharString index="221">
            299.760742188 12.01953125 4.7197265625 28.98046875 rlineto
            return
          </CharString>
          <CharString index="222">
            -291.559570312 hlineto
            -15.060546875 0 -36.1201171875 3.66015625 7.640625 48.7998046875 rrcurveto
            26.619140625 172.040039062 313.400390625 6.33984375 4.7197265625 29.98046875 -311.399414062 6.6796875 26.9599609375 169.719726562 rlineto
            4.66015625 30.6005859375 13.5595703125 24.1796875 55.740234375 0 rrcurveto
            return
          </CharString>
          <CharString index="223">
            278.399414062 0 4.720703125 29.98046875 rlineto
            return
          </CharString>
          <CharString index="224">
            -281.040039062 10.01953125 rlineto
            -64 0 -42.7001953125 -29.3603515625 -9.66015625 -60.6396484375 rrcurveto
            return
          </CharString>
          <CharString index="225">
            419.400390625 0 6.7197265625 41 -362.940429688 0 439.83984375 488 6.380859375 41 -419.400390625 0 -6.3798828125 -41 364.959960938 0 -441.860351562 -488 rlineto
            return
          </CharString>
          <CharString index="226">
            7.740234375 -19.220703125 rlineto
            37.2802734375 21.919921875 28.619140625 22.640625 40.0400390625 0.33984375 34.0205078125 0.33984375 29.7998046875 -59.740234375 46.759765625 -0.33984375 42.6806640625 -0.33984375 35.69921875 31.3798828125 40.3603515625 30.9599609375 rrcurveto
            -8.400390625 18.900390625 rlineto
            -19.19921875 -13.900390625 -51.5205078125 -32.9794921875 -33.8994140625 0.33984375 -30.640625 0.33984375 -37.1796875 58.3798828125 -42.740234375 1.0205078125 -39.6796875 0 -38.7001953125 -29.0205078125 -41.0400390625 -31.01953125 rrcurveto
            return
          </CharString>
          <CharString index="227">
            -22 -138 -1.33984375 -171.080078125 181 0 77 0 79.1396484375 11.3798828125 60 11 rrcurveto
            4.3798828125 28.6201171875 rlineto
            0 0 -140.799804688 -8 -73 -2 -123.580078125 0.6796875 -25.0595703125 94.8203125 25.919921875 162.5 25.2802734375 161 60.1396484375 81 115.860351562 0 65 0 131.799804688 -7 15 -3 rrcurveto
            4.3798828125 29.2998046875 rlineto
            -49 12 -117.459960938 9.7001953125 -43 0 -170 0 -56.66015625 -127.919921875 -23 -145 rrcurveto
            return
          </CharString>
          <CharString index="228">
            -8 -52 31.640625 -33 50 0 rrcurveto
            return
          </CharString>
          <CharString index="229">
            299.759765625 12.01953125 4.7197265625 28.98046875 rlineto
            return
          </CharString>
          <CharString index="230">
            -291.559570312 hlineto
            -15.060546875 0 -36.1201171875 3.66015625 7.640625 48.7998046875 rrcurveto
            26.6201171875 172.040039062 313.399414062 6.33984375 4.7197265625 29.98046875 -311.399414062 6.6796875 26.9599609375 169.719726562 rlineto
            4.66015625 30.6005859375 13.5595703125 24.1796875 55.740234375 0 rrcurveto
            return
          </CharString>
          <CharString index="231">
            70.1000061035 0 -43.6399993896 -276.199996948 218.36000061 0 rlineto
            60 0 160.039993286 -7.02000427246 45.6600036621 281.340011597 19.6599884033 122.339996338 -19.0399932861 173.339996338 -176 2 rrcurveto
            -218.020004272 0 -42.6399993896 -268.199996948 -70.1000061035 0 rlineto
            return
          </CharString>
          <CharString index="232">
            37.2599945068 235.199996948 113.100006104 0 3.69999694824 27.6000061035 -112.419998169 0 36.2599945068 227.199996948 179.399993896 0 rlineto
            89.9399871826 0 77.7200012207 -65.3200073242 -29.2799987793 -182.679992676 -21.620010376 -135.080001831 -53.2399902344 -106.919998169 -141.419998169 0 rrcurveto
            return
          </CharString>
          <CharString index="233">
            41 0 80.580078125 500.799804688 298.479492188 -500.799804688 36.3408203125 0 90 571 -40 0 -80.240234375 -497.459960938 -296.83984375 497.459960938 -39.3203125 0 rlineto
            return
          </CharString>
          <CharString index="234">
            -39 -249 77.1796875 -38.6396484375 161.66015625 0 168 0 73.359375 42.3798828125 39 245 41 256 -76.51953125 36.6201171875 -164.3203125 0 -167.319335938 0 -74.0400390625 -48.3603515625 -39 -244 rrcurveto
            return
          </CharString>
          <CharString index="235">
            35.66015625 221 66.4599609375 28 133.939453125 0 150.280273438 0 43.5400390625 -27.3798828125 -32.6806640625 -219.620117188 -31.359375 -214.360351562 -68.48046875 -36.6396484375 -138.219726562 0 -146.059570312 0 -47.380859375 35.16015625 34.30078125 213.83984375 rrcurveto
            return
          </CharString>
          <CharString index="236">
            -39 -239 98.7998046875 -26 136 0 121 0 99.400390625 32 37 233 rrcurveto
            49 310 -42 0 -49 -310 rlineto
            -27.98046875 -175.860351562 -64.33984375 -48.1396484375 -125.400390625 0 -140.099609375 0 -40.3603515625 43.51953125 28.98046875 180.48046875 rrcurveto
            49 310 -42 0 rlineto
            return
          </CharString>
          <CharString index="237">
            -2.6796875 -16.1201171875 11.080078125 -13.099609375 16.1201171875 0 16.119140625 0 14.1201171875 13.099609375 2.6806640625 16.1201171875 2.6796875 16.1201171875 -10.080078125 12.1005859375 -16.1201171875 0 -16.1201171875 0 -15.1201171875 -12.1005859375 -2.6796875 -16.1201171875 rrcurveto
            return
          </CharString>
          <CharString index="238">
            7.740234375 -19.220703125 rlineto
            37.2802734375 21.919921875 28.6201171875 22.640625 40.0400390625 0.33984375 34.01953125 0.33984375 29.7998046875 -59.740234375 46.759765625 -0.33984375 42.6806640625 -0.33984375 35.7001953125 31.3798828125 40.359375 30.9599609375 rrcurveto
            -8.3994140625 18.900390625 rlineto
            -19.2001953125 -13.900390625 -51.5205078125 -32.9794921875 -33.8994140625 0.33984375 -30.640625 0.33984375 -37.1796875 58.3798828125 -42.740234375 1.0205078125 -39.6796875 0 -38.7001953125 -29.0205078125 -41.0400390625 -31.01953125 rrcurveto
            return
          </CharString>
          <CharString index="239">
            161.900390625 -380 -30 -191 41 0 30 191 279.899414062 380 -48.359375 0 -247.66015625 -334.280273438 -142.440429688 334.280273438 rlineto
            return
          </CharString>
          <CharString index="240">
            199.200195312 0 -83.6201171875 -529 41 0 83.6201171875 529 199.200195312 0 6.7197265625 41 -439.399414062 0 rlineto
            return
          </CharString>
          <CharString index="241">
            -1.4111328125 -9.3798828125 5.8369140625 -6.3603515625 9.3798828125 0 rrcurveto
            24.259765625 hlineto
            9.3798828125 0 7.1181640625 5.3603515625 1.5166015625 10.3798828125 rrcurveto
            9.5419921875 59.2802734375 rlineto
            1.41015625 9.3798828125 -4.15625 7.0400390625 -10.3798828125 0 rrcurveto
            -24.2607421875 hlineto
            -10.7197265625 0 -6.4580078125 -6.0400390625 -1.5166015625 -10.3798828125 rrcurveto
            return
          </CharString>
          <CharString index="242">
            227.200195312 hlineto
            60 0 165.599609375 -2.759765625 39.060546875 277.379882812 22.9599609375 168.540039062 -32.5 126.83984375 -163.459960938 2 rrcurveto
            -227.860351562 hlineto
            return
          </CharString>
          <CharString index="243">
            77.560546875 490 186.200195312 0 rlineto
            112.379882812 0 53.6396484375 -65.98046875 -26.6396484375 -182.01953125 -18.98046875 -133.759765625 -56.5400390625 -108.240234375 -141.419921875 0 rrcurveto
            return
          </CharString>
          <CharString index="244">
            6.171875 41.8798828125 38.943359375 34.900390625 41.8798828125 0 41.8798828125 0 29.197265625 -34.900390625 -6.171875 -41.8798828125 -6.1728515625 -41.8798828125 -37.9140625 -33.900390625 -41.8798828125 0 -41.8798828125 0 -30.2265625 33.900390625 6.1728515625 41.8798828125 rrcurveto
            return
          </CharString>
          <CharString index="245">
            -8.6591796875 -52.640625 -31.0205078125 -253.139648438 207 1 60 0 79.2802734375 23.599609375 58 34 rrcurveto
            return
          </CharString>
          <CharString index="246">
            4.0400390625 -50.599609375 28.279296875 0 48.3408203125 308 rlineto
            -24 2 -21 1 -21 0 rrcurveto
            return
          </CharString>
          <CharString index="247">
            -81 0 -17.16015625 -6.740234375 -63.1201171875 -8.359375 rrcurveto
            -4.0400390625 -25.900390625 184.599609375 0 -28.2392578125 -178.400390625 rlineto
            -25 -17 -90.919921875 -40.939453125 -81 0 -117 0 -37.2802734375 111.33984375 22.5595703125 143 30.640625 191.1796875 55.4794921875 58.8203125 125.8203125 0 88.3798828125 0 62.5595703125 -8.3203125 61 -6 rrcurveto
            4.720703125 30.3203125 rlineto
            -61.9404296875 14.2998046875 -105.66015625 10.7001953125 -43 0 rrcurveto
            -172 0 -57.33984375 -97.2197265625 -30.3203125 -184 rrcurveto
            return
          </CharString>
          <CharString index="248">
            -1.4111328125 -9.3798828125 5.8369140625 -6.3603515625 9.3798828125 0 rrcurveto
            24.2607421875 hlineto
            9.3798828125 0 7.1171875 5.3603515625 1.5166015625 10.3798828125 rrcurveto
            9.5419921875 59.2802734375 rlineto
            1.4111328125 9.3798828125 -4.1572265625 7.0400390625 -10.3798828125 0 rrcurveto
            -24.259765625 hlineto
            -10.720703125 0 -6.4580078125 -6.0400390625 -1.515625 -10.3798828125 rrcurveto
            return
          </CharString>
          <CharString index="249">
            -1.4111328125 -9.3798828125 5.8369140625 -6.3603515625 9.3798828125 0 rrcurveto
            24.2607421875 hlineto
            9.3798828125 0 7.1181640625 5.3603515625 1.515625 10.3798828125 rrcurveto
            9.5419921875 59.2802734375 rlineto
            1.4111328125 9.3798828125 -4.1572265625 7.0400390625 -10.3798828125 0 rrcurveto
            -24.259765625 hlineto
            -10.720703125 0 -6.4580078125 -6.0400390625 -1.515625 -10.3798828125 rrcurveto
            return
          </CharString>
          <CharString index="250">
            144.299804688 -732 47.6005859375 0 200.299804688 388.51953125 84.099609375 -388.51953125 47.6005859375 0 375.099609375 732 -44.7001953125 0 -346.759765625 -677.059570312 -84.080078125 392.719726562 143.200195312 284.33984375 -45.7197265625 0 -346.100585938 -674.360351562 -133.5 674.360351562 rlineto
            return
          </CharString>
          <CharString index="251">
            130.940429688 -531 45.0400390625 0 164.819335938 293.200195312 71.2001953125 -293.200195312 42.6396484375 0 252.280273438 439.66015625 rlineto
            9.740234375 17.4599609375 20.7802734375 44.1796875 -9.0205078125 30.3603515625 rrcurveto
            -28.599609375 hlineto
            -4.6806640625 -31.060546875 -17.5595703125 -29.859375 -12.33984375 -23.0400390625 rrcurveto
            -225.680664062 -393.219726562 -69.1796875 288.799804688 51.4404296875 94.0400390625 rlineto
            9.0595703125 17.7998046875 21.4599609375 43.83984375 -9.01953125 30.3603515625 rrcurveto
            -28.2607421875 hlineto
            -4.6796875 -31.060546875 -17.5595703125 -29.2001953125 -12.33984375 -23.0400390625 rrcurveto
            -221.3203125 -392.259765625 -118.16015625 477.240234375 rlineto
            return
          </CharString>
          <CharString index="252">
            -2.6796875 -16.1201171875 11.0791015625 -13.099609375 16.1201171875 0 16.1201171875 0 14.1201171875 13.099609375 2.6796875 16.1201171875 2.6806640625 16.1201171875 -10.080078125 12.1005859375 -16.1201171875 0 -16.1201171875 0 -15.1201171875 -12.1005859375 -2.6796875 -16.1201171875 rrcurveto
            return
          </CharString>
          <CharString index="253">
            -1.412109375 -9.380859375 5.837890625 -6.359375 9.3798828125 0 rrcurveto
            24.259765625 hlineto
            9.3798828125 0 7.1181640625 5.359375 1.515625 10.380859375 rrcurveto
            9.5419921875 59.279296875 rlineto
            1.4111328125 9.3798828125 -4.1572265625 7.0400390625 -10.3798828125 0 rrcurveto
            -24.259765625 hlineto
            -10.7197265625 0 -6.458984375 -6.0400390625 -1.515625 -10.3798828125 rrcurveto
            return
          </CharString>
          <CharString index="254">
            125.33984375 -570 40.3603515625 0 174.01953125 334.099609375 75.900390625 -334.099609375 39.6796875 0 297.98046875 570 -45.0205078125 0 -265.740234375 -505.879882812 -72.8994140625 323.759765625 93.3798828125 182.120117188 -45.01953125 0 -265.420898438 -507.200195312 -110.219726562 507.200195312 rlineto
            return
          </CharString>
          <CharString index="255">
            41 0 102.66015625 648.299804688 rlineto
            8.939453125 55.2802734375 66.5205078125 8.2998046875 9.2802734375 -46.6796875 rrcurveto
            137.01953125 -607.080078125 rlineto
            22.759765625 -98.4404296875 131.959960938 17.2607421875 15.3408203125 99.759765625 rrcurveto
            101.979492188 655.299804688 -41 0 -103.3203125 -650.919921875 rlineto
            -9.279296875 -50.7197265625 -66.8203125 -13.8408203125 -10.2802734375 51.66015625 rrcurveto
            -137.719726562 609.83984375 rlineto
            -19.3798828125 86.6201171875 -133.6796875 -10.6201171875 -14.3203125 -99.3798828125 rrcurveto
            return
          </CharString>
          <CharString index="256">
            190.619995117 hlineto
            51.0200042725 -1.52587890625e-05 38.7400054932 -16.0199890137 -10.3000030518 -63.7799987793 rrcurveto
            -3.66000366211 -31.2400054932 rlineto
            -6.00001525879 -46.6000061035 -51.7599945068 -27.9399871826 -56.2200012207 -2 rrcurveto
            -139.039993286 -4.67999267578 -4.03999328613 -22.9199981689 142.320007324 -4.33999633789 rlineto
            46.2200012207 -0.999984741211 45.1800079346 -24.9199981689 -8.66000366211 -56.9400024414 rrcurveto
            -3.33999633789 -23 rlineto
            -10.9599914551 -69.0800018311 -39.299987793 -20.9600067139 -67.0400085449 0 rrcurveto
            0 -164.800003052 -0.339996337891 -10.879989624 vhcurveto
            return
          </CharString>
          <CharString index="257">
            41 0 72.6201171875 458.700195312 rlineto
            94 33 50.8603515625 7.2998046875 71 0 74.099609375 0 40.599609375 -54.419921875 -11.9794921875 -74.580078125 rrcurveto
            -59 -370 41 0 59 370 rlineto
            14 88 -45 82 -106 0 -108 0 -34.2001953125 -13 -118 -44 rrcurveto
            return
          </CharString>
          <CharString index="258">
            41 0 72.6201171875 458.700195312 rlineto
            105 37 87.8603515625 11.2802734375 100 -10.3203125 rrcurveto
            6.7197265625 41.33984375 rlineto
            -161 14 -79.560546875 -29.580078125 -96.6396484375 -39.419921875 rrcurveto
            return
          </CharString>
          <CharString index="259">
            -29.0400390625 -187.040039062 60.140625 -86.6796875 120.239257812 0 69.9599609375 0 136.860351562 8.419921875 33.66015625 5.2802734375 rrcurveto
            68.919921875 485.239257812 rlineto
            -52.5205078125 24.220703125 -89.939453125 21.7998046875 -76.2001953125 0 -154.700195312 0 -62.0400390625 -98.9599609375 -25.33984375 -172.280273438 rrcurveto
            return
          </CharString>
          <CharString index="260">
            24.2998046875 162.69921875 54.220703125 73.9599609375 117.19921875 0 62.1005859375 0 50.7197265625 -10.33984375 71.16015625 -17.599609375 rrcurveto
            -65.5 -434 rlineto
            0 -176.059570312 -2.0400390625 -25.16015625 vhcurveto
            -104.360351562 0 -29.599609375 85.5595703125 20.9794921875 141.760742188 rrcurveto
            return
          </CharString>
          <CharString index="261">
            -14 -88 46 -82 106 0 108 0 39.66015625 8.919921875 109.83984375 37.8798828125 rrcurveto
            77.7001953125 493.200195312 -41 0 -73.98046875 -467.200195312 rlineto
            -78.359375 -24.1591796875 -65.140625 -7.640625 -71 0 -74.099609375 0 -40.599609375 54.419921875 11.9794921875 74.580078125 rrcurveto
            59 370 -41 0 rlineto
            return
          </CharString>
          <CharString index="262">
            21.9199981689 135.839996338 37.7599945068 101.160003662 120.600006104 0 74 0 41.879989624 -7.96000671387 80 -21 rrcurveto
            -69.2400054932 -436.039993286 -200.199996948 0 rlineto
            -115.580001831 0 -9.06001281738 116.160003662 17.9200134277 111.839996338 rrcurveto
            return
          </CharString>
        <CharString name=".notdef">
          186 0 13 505 13 hstem
          100 14 530 14 vstem
          100 hmoveto
          558 531 -558 hlineto
          14 -509 rmoveto
          0 485 256 -241 rlineto
          -246 252 rmoveto
          511 0 -254 -242 rlineto
          -254 -263 rmoveto
          254 243 253 -243 rlineto
          -242 253 rmoveto
          252 240 0 -481 rlineto
          endchar
        </CharString>
        <CharString name="A">
          76 21 -21 21 -21 236.339996338 41 454.660003662 -20 hstemhm
          hintmask 10110000
          45 hmoveto
          46.0200042725 0 125.160003662 236.339996338 320.759994507 0 46.9199981689 -236.339996338 41.3399963379 0 -144.300003052 732 -47.6000061035 0 rlineto
          -195.279983521 -454.660003662 rmoveto
          212.679992676 404.119995117 78.1799926758 -404.119995117 rlineto
          endchar
        </CharString>
        <CharString name="AE">
          332 -3.67999267578 41 -28.620010376 28.6199951172 207.200012207 41 54.2599945068 42.6999969482 308.180007935 41.3399963379 -41.3399963379 29.3000030518 hstemhm
          hintmask 10110000
          30 hmoveto
          48.6999969482 0 182.679992676 244.520004272 239.279998779 0 -19.3000030518 -123.520004272 rlineto
          -16.6399841309 -106.539993286 73.2400054932 -20.8200073242 65.3399963379 2.68000793457 rrcurveto
          hintmask 01110000
          270.399993896 12.3800048828 4.7200012207 28.6199951172 rlineto
          hintmask 10111000
          -274 hlineto
          -46.1600189209 0 -48.5199890137 6.25999450684 12.6199951172 78.7400054932 rrcurveto
          34.9600067139 217.460006714 330.020004272 6.69999694824 5.03999328613 29.3000030518 -328.660003662 6.69999694824 34.3200073242 213.600006104 rlineto
          9.95999145508 58.6800079346 -3.91999816895 35.9000091553 92.8800048828 0 rrcurveto
          hintmask 00110100
          285.020004272 0 4.38000488281 29.3000030518 rlineto
          hintmask 10111000
          -282.679992676 12.0399932861 rlineto
          -100.819992065 3.30000305176 -44.9199981689 -26.2400054932 -84.4400024414 -114.300003052 rrcurveto
          -182.940002441 -309.239990234 rmoveto
          275.800003052 365.699996948 -58.6399993896 -365.699996948 rlineto
          endchar
        </CharString>
        <CharString name="Aacute">
          76 0 21 215.339996338 41 434.660003662 20 65 133 hstem
          451.208999634 186.699996948 vstem
          451.208984375 797 rmoveto
          -42 callsubr
          -543.44921875 -930 rmoveto
          -44 callsubr
          -195.280273438 -454.66015625 rmoveto
          -43 callsubr
          endchar
        </CharString>
        <CharString name="Abreve">
          76 0 21 215.339996338 41 434.660003662 20 65 24.8800048828 hstem
          371.134994507 24.8800048828 179.220001221 24.8800048828 vstem
          371.134765625 911 rmoveto
          55 callsubr
          -351.014648438 -911 rmoveto
          -44 callsubr
          -195.280273438 -454.66015625 rmoveto
          -43 callsubr
          endchar
        </CharString>
        <CharString name="Acircumflex">
          76 0 21 215.339996338 41 434.660003662 20 65 130 hstem
          328.158996582 278.800003052 vstem
          328.159179688 797 rmoveto
          -41 callsubr
          -431.05859375 -927 rmoveto
          -44 callsubr
          -195.280273438 -454.66015625 rmoveto
          -43 callsubr
          endchar
        </CharString>
        <CharString name="Adieresis">
          76 0 21 215.339996338 41 434.660003662 20 65 57.4400024414 hstem
          315.968994141 57.4400024414 197.559997559 57.4400024414 vstem
          315.96875 826.219726562 rmoveto
          -39 callsubr
          255 hmoveto
          -39 callsubr
          -525.96875 -826.219726562 rmoveto
          -44 callsubr
          -195.280273438 -454.66015625 rmoveto
          -43 callsubr
          endchar
        </CharString>
        <CharString name="Agrave">
          76 0 21 215.339996338 41 434.660003662 20 65 133 hstem
          335.128997803 148.779998779 vstem
          335.12890625 930 rmoveto
          -45 callsubr
          -336.869140625 -930 rmoveto
          -44 callsubr
          -195.280273438 -454.66015625 rmoveto
          -43 callsubr
          endchar
        </CharString>
        <CharString name="Amacron">
          76 0 21 215.339996338 41 434.660003662 20 65 31.3200073242 hstem
          334.880996704 270.320007324 vstem
          334.880859375 797 rmoveto
          89 callsubr
          -294.600585938 -828.3203125 rmoveto
          -44 callsubr
          -195.280273438 -454.66015625 rmoveto
          -43 callsubr
          endchar
        </CharString>
        <CharString name="Aogonek">
          294 -181 29.6399993896 131.36000061 20 0 21 215.339996338 41 434.660003662 20 hstemhm
          hintmask 11000000
          698.280273438 hmoveto
          34 callsubr
          hintmask 00111000
          -572.459960938 hmoveto
          -44 callsubr
          -195.280273438 -454.66015625 rmoveto
          -43 callsubr
          endchar
        </CharString>
        <CharString name="Aring">
          76 0 21 215.339996338 41 434.660003662 20 -1.83299255371 26.2200012207 152.559997559 26.2200012207 hstemhm
          372.815002441 203 hintmask 00011100
          372.815429688 832.166992188 rmoveto
          -38 callsubr
          25.8798828125 hmoveto
          -37 callsubr
          hintmask 11100000
          -353.6953125 -832.166992188 rmoveto
          -44 callsubr
          -195.280273438 -454.66015625 rmoveto
          -43 callsubr
          endchar
        </CharString>
        <CharString name="Atilde">
          76 0 21 215.339996338 41 434.660003662 20 65.3399963379 34.3600006104 25.3800048828 34.3600006104 hstem
          303.723632812 831.400390625 rmoveto
          -40 callsubr
          -258.723632812 -831.400390625 rmoveto
          -44 callsubr
          -195.280273438 -454.66015625 rmoveto
          -43 callsubr
          endchar
        </CharString>
        <CharString name="B">
          20 0 41.6600036621 321.179992676 41 287.160003662 41 hstem
          80 hmoveto
          263.199996948 hlineto
          153.999984741 0 56.3600006104 92.2799987793 15.3200073242 106.080001831 16.6399993896 114.339996338 -70.5 61.6399993896 -37.5800018311 8.30000305176 61.6199951172 10.0599975586 67.8200073242 61.4799957275 13.9799957275 97.3600006104 14.6199951172 99.1800079346 -28.9599914551 81.2799987793 -147.320007324 0 rrcurveto
          -263.199996948 hlineto
          -67.9400024414 -690.339996338 rmoveto
          50.9199981689 321.179992676 221.86000061 0 rlineto
          89.2799987793 1.32000732422 52.0599975586 -73.6000061035 -13.9799957275 -85.8800048828 -22.3000030518 -139.459991455 -87.5199890137 -23.5599975586 -68.4600067139 0 rrcurveto
          -164.220001221 362.179992676 rmoveto
          45.2599945068 287.160003662 222.199996948 0 rlineto
          94.3600006104 0 52.2799987793 -28.2400054932 -20.9400024414 -112.179992676 -17.6199951172 -92.5599975586 -66.8000030518 -54.1800079346 -86.8800048828 0 rrcurveto
          endchar
        </CharString>
        <CharString name="C">
          -4 -6 41 664 41 hstem
          116.320007324 373.279998779 rmoveto
          -31.9600067139 -199.699996948 30.6199951172 -179.580001831 186.36000061 0 56.4199981689 0 95.0400085449 5.94000244141 76.4199981689 16.3999938965 rrcurveto
          4.03999328613 29.3000030518 rlineto
          -48.2800140381 -3.40000915527 -94.7200012207 -8.26000976562 -84.2599945068 1.02000427246 -140.100006104 3.05999755859 -41.8600006104 122.380004883 33.2800140381 205.559997559 45.3599853516 288.160003662 93.8800048828 44.5 115.720001221 0.339996337891 93.0200042725 0.679992675781 120.36000061 -14 8.13999938965 -1.01998901367 rrcurveto
          4.38000488281 29.3000030518 rlineto
          -68 13.0000152588 -101.519989014 13.0399932861 -52 0 -201.63999939 0 -61.6800079346 -135.36000061 -37.0199890137 -231.36000061 rrcurveto
          endchar
        </CharString>
        <CharString name="Cacute">
          -4 -6 41 664 41 60 133 hstem
          416.317001343 186.699996948 vstem
          416.317382812 800 rmoveto
          -29 callsubr
          -437.236328125 -559.719726562 rmoveto
          56 callsubr
          endchar
        </CharString>
        <CharString name="Ccaron">
          -4 -6 41 664 41 60 130 hstem
          316.531005859 278.800003052 vstem
          316.53125 930 rmoveto
          57 callsubr
          -233.530273438 -556.719726562 rmoveto
          56 callsubr
          endchar
        </CharString>
        <CharString name="Ccedilla">
          -4 -172.339996338 17.1999969482 149.13999939 41 664 41 hstem
          318.440002441 34 vstem
          116.320007324 373.279998779 rmoveto
          -31.9600067139 -199.699996948 30.6199951172 -179.580001831 186.36000061 0 56.4199981689 0 95.0400085449 5.94000244141 76.4199981689 16.3999938965 rrcurveto
          4.03999328613 29.3000030518 rlineto
          -48.2800140381 -3.40000915527 -94.7200012207 -8.26000976562 -84.2599945068 1.02000427246 -140.100006104 3.05999755859 -41.1799926758 122.380004883 33.2799987793 205.559997559 45.3600006104 288.160003662 93.1999969482 44.5 115.720001221 0.339996337891 93.0200042725 0.679992675781 120.36000061 -14 8.13999938965 -1.01998901367 rrcurveto
          4.38000488281 29.3000030518 rlineto
          -68 13.0000152588 -101.519989014 13.0399932861 -52 0 -201.63999939 0 -61.6800079346 -135.36000061 -37.0199890137 -231.36000061 rrcurveto
          75.9799957275 -545.619995117 rmoveto
          37.8000030518 hlineto
          81.9799957275 0 24.3600006104 35.3199920654 16 100.680007935 0 0 -24.4799957275 -0.339996337891 -9.52000427246 0.339996337891 -11.9400024414 -84.1999969482 -24.1799926758 -18.200012207 -46.8400115967 -8 rrcurveto
          -40.4799957275 -8.39999389648 rlineto
          endchar
        </CharString>
        <CharString name="Ccircumflex">
          -4 -6 41 664 41 60 130 hstem
          293.727005005 278.800003052 vstem
          293.7265625 800 rmoveto
          -28 callsubr
          -325.306640625 -556.719726562 rmoveto
          56 callsubr
          endchar
        </CharString>
        <CharString name="Cdotaccent">
          -4 -6 41 664 41 60 91.4400024414 hstem
          394.107299805 65.6217041016 vstem
          394.107421875 815.740234375 rmoveto
          72 callsubr
          -287.328125 -501.739257812 rmoveto
          56 callsubr
          endchar
        </CharString>
        <CharString name="D">
          89 0 42.0200042725 648.979995728 41 hstem
          80 hmoveto
          263.759994507 hlineto
          186.359985352 0 90.0200042725 158.580001831 36.3399963379 199.13999939 25.9600067139 139.819992065 -1.63999938965 234.460006714 -225.660003662 0 rrcurveto
          -20.3999938965 -238.740005493 0 -0.339996337891 hvcurveto
          -68.2799987793 -689.63999939 rmoveto
          102.559997559 648.979995728 217.479995728 0 rlineto
          142.499984741 0 63.1600036621 -101.899993896 -37.2799987793 -225.100006104 -24.6600036621 -148.339996338 -79.3199920654 -173.63999939 -164.320007324 0 rrcurveto
          endchar
        </CharString>
        <CharString name="Dcaron">
          89 0 42.0200042725 648.979995728 41 63.3000030518 130 hstem
          331.442993164 278.800003052 vstem
          331.443359375 925.299804688 rmoveto
          39 callsubr
          -279.322265625 -925.299804688 rmoveto
          263.759765625 hlineto
          186.359375 0 90.0205078125 158.580078125 36.33984375 199.139648438 25.9599609375 139.8203125 -1.6396484375 234.459960938 -225.66015625 0 rrcurveto
          -20.400390625 -238.739257812 0 -0.33984375 hvcurveto
          -68.2802734375 -689.640625 rmoveto
          102.559570312 648.98046875 217.48046875 0 rlineto
          142.5 0 63.16015625 -101.900390625 -37.2802734375 -225.099609375 -24.66015625 -148.33984375 -79.3203125 -173.640625 -164.319335938 0 rrcurveto
          endchar
        </CharString>
        <CharString name="Dcroat">
          107 0 42.0200042725 317.179992676 27.6000061035 304.199996948 41 hstem
          79.7998046875 359.200195312 rmoveto
          65 0 -56.9794921875 -359.200195312 263.759765625 0 rlineto
          186.360351562 0 91.01953125 158.580078125 36.33984375 199.139648438 25.9599609375 139.8203125 -2.6396484375 234.459960938 -225.66015625 0 rrcurveto
          -20.400390625 -238.739257812 0 -0.33984375 hvcurveto
          -54.640625 -344.860351562 -65 0 rlineto
          51.3603515625 -344.780273438 rmoveto
          50.259765625 317.180664062 152.200195312 0 4.3798828125 27.599609375 -152.200195312 0 47.919921875 304.200195312 217.48046875 0 rlineto
          142.5 0 63.16015625 -101.900390625 -37.2802734375 -225.099609375 -24.66015625 -148.33984375 -79.3193359375 -173.640625 -164.3203125 0 rrcurveto
          endchar
        </CharString>
        <CharString name="E">
          -9 -3 41 -28.6199951172 28.6199951172 303.479995728 42.6999969482 306.820007324 41 -41 28.9600067139 hstemhm
          hintmask 10100000
          98 126.300003052 rmoveto
          -16.9799957275 -106.539993286 66.9799957275 -25.4399871826 66 2.67999267578 rrcurveto
          hintmask 01100000
          296.13999939 12.3800048828 4.7200012207 28.6199951172 rlineto
          hintmask 10110000
          -293.800003052 hlineto
          -46.1600036621 0 -48.1799926758 6.25999450684 12.2799987793 78.7400054932 rrcurveto
          34.6399993896 218.479995728 349.800003052 6.69999694824 4.7200012207 29.3000030518 -347.800003052 6.69999694824 34.6399993896 217.820007324 rlineto
          9.2799987793 58.6799926758 32.7599945068 30.3200073242 57.2400054932 0 rrcurveto
          hintmask 00101000
          303.800003052 0 4.38000488281 28.9600067139 rlineto
          hintmask 10110000
          -302.119995117 12.0399932861 rlineto
          -68.0800018311 2.67999267578 -62.2599945068 -31.379989624 -16 -98 rrcurveto
          endchar
        </CharString>
        <CharString name="Eacute">
          -9 -3 41 -28.6199951172 28.6199951172 303.479995728 42.6999969482 306.820007324 28.9600067139 -28.9600067139 41 60 133 hstemhm
          404.600006104 186.699996948 hintmask 00000110
          404.599609375 792 rmoveto
          -42 callsubr
          hintmask 10100000
          -443.83984375 -798.700195312 rmoveto
          -36 callsubr
          hintmask 01100000
          -35 callsubr
          hintmask 10101000
          -34 callsubr
          hintmask 00110000
          -33 callsubr
          hintmask 10101000
          -32 callsubr
          endchar
        </CharString>
        <CharString name="Ecaron">
          -9 -3 41 -28.6199951172 28.6199951172 303.479995728 42.6999969482 306.820007324 28.9600067139 -28.9600067139 41 65 130 hstemhm
          318.076004028 278.800003052 hintmask 00000110
          318.076171875 927 rmoveto
          49 callsubr
          hintmask 10100000
          -253.396484375 -800.700195312 rmoveto
          -36 callsubr
          hintmask 01100000
          -35 callsubr
          hintmask 10101000
          -34 callsubr
          hintmask 00110000
          -33 callsubr
          hintmask 10101000
          -32 callsubr
          endchar
        </CharString>
        <CharString name="Ecircumflex">
          -9 -3 41 -28.6199951172 28.6199951172 303.479995728 42.6999969482 306.820007324 28.9600067139 -28.9600067139 41 60 130.339996338 hstemhm
          290.940002441 278.800003052 hintmask 00000110
          290.940429688 792 rmoveto
          40.439453125 0 123.959960938 103.099609375 79.7197265625 -103.099609375 34.6806640625 0 -92.900390625 130.33984375 -38 0 rlineto
          hintmask 10100000
          -340.83984375 -796.040039062 rmoveto
          -36 callsubr
          hintmask 01100000
          -35 callsubr
          hintmask 10101000
          -34 callsubr
          hintmask 00110000
          -33 callsubr
          hintmask 10101000
          -32 callsubr
          endchar
        </CharString>
        <CharString name="Edieresis">
          -9 -3 41 -28.6199951172 28.6199951172 303.479995728 42.6999969482 306.820007324 28.9600067139 -28.9600067139 41 81.7799987793 57.4400024414 hstemhm
          273.13999939 57.4400024414 197.559997559 57.4400024414 hintmask 00000111
          273.139648438 843 rmoveto
          -31 callsubr
          255 hmoveto
          -31 callsubr
          hintmask 10100000
          -430.139648438 -716.700195312 rmoveto
          -36 callsubr
          hintmask 01100000
          -35 callsubr
          hintmask 10101000
          -34 callsubr
          hintmask 00110000
          -33 callsubr
          hintmask 10101000
          -32 callsubr
          endchar
        </CharString>
        <CharString name="Edotaccent">
          -9 -3 41 -28.6199951172 28.6199951172 303.479995728 42.6999969482 306.820007324 28.9600067139 -28.9600067139 41 65 91.4400024414 hstemhm
          399.576293945 65.6217041016 hintmask 00000110
          399.576171875 812.740234375 rmoveto
          -1.4111328125 -9.3798828125 5.8369140625 -6.3603515625 9.3798828125 0 rrcurveto
          24.259765625 hlineto
          9.380859375 0 7.1171875 5.3603515625 1.5166015625 10.3798828125 rrcurveto
          9.5419921875 59.279296875 rlineto
          1.4111328125 9.380859375 -4.1572265625 7.0400390625 -10.3798828125 0 rrcurveto
          -24.2607421875 hlineto
          -10.7197265625 0 -6.4580078125 -6.0400390625 -1.515625 -10.380859375 rrcurveto
          hintmask 10100000
          -311.118164062 -745.719726562 rmoveto
          -36 callsubr
          hintmask 01100000
          -35 callsubr
          hintmask 10101000
          -34 callsubr
          hintmask 00110000
          -33 callsubr
          hintmask 10101000
          -32 callsubr
          endchar
        </CharString>
        <CharString name="Egrave">
          -9 -3 41 -28.6199951172 28.6199951172 303.479995728 42.6999969482 306.820007324 28.9600067139 -28.9600067139 41 60 133 hstemhm
          299.460006714 148.779998779 hintmask 00000110
          299.459960938 925 rmoveto
          -45 callsubr
          hintmask 10100000
          -248.200195312 -798.700195312 rmoveto
          -36 callsubr
          hintmask 01100000
          -35 callsubr
          hintmask 10101000
          -34 callsubr
          hintmask 00110000
          -33 callsubr
          hintmask 10101000
          -32 callsubr
          endchar
        </CharString>
        <CharString name="Emacron">
          -9 -3 41 -28.6199951172 28.6199951172 303.479995728 42.6999969482 306.820007324 28.9600067139 -28.9600067139 41 63.3000030518 31.3200073242 hstemhm
          293.570999146 270.320007324 hintmask 00000110
          293.571289062 795.299804688 rmoveto
          86 callsubr
          hintmask 10100000
          -200.291015625 -700.3203125 rmoveto
          -36 callsubr
          hintmask 01100000
          -35 callsubr
          hintmask 10101000
          -34 callsubr
          hintmask 00110000
          -33 callsubr
          hintmask 10101000
          -32 callsubr
          endchar
        </CharString>
        <CharString name="Eng">
          62 -257 31.2599945068 246.740005493 -21 21 -21 732 -20 hstemhm
          hintmask 11010000
          80 hmoveto
          42 0 103.240005493 653.399993896 300.100006104 -651.36000061 -12.6600036621 -81.9400024414 rlineto
          -22.299987793 -140.460006714 -62.5200042725 6.66000366211 -78.8200073242 -12.0400085449 rrcurveto
          -5.03999328613 -31.2599945068 rlineto
          118 0 67 21 24 152 rrcurveto
          13.3399963379 85.3600006104 115.660003662 730.63999939 -41 0 -103.240005493 -653.399993896 -300.779998779 653.399993896 -40.9799957275 0 rlineto
          endchar
        </CharString>
        <CharString name="Eogonek">
          -11 -171.654495239 29.6399993896 131.36000061 20 -12.3455047607 41 -28.6199951172 28.6199951172 303.479995728 42.6999969482 306.820007324 28.9600067139 -28.9600067139 41 hstemhm
          hintmask 11000000
          490.20703125 9.345703125 rmoveto
          58 callsubr
          hintmask 00101000
          -411.686523438 116.954101562 rmoveto
          -36 callsubr
          hintmask 00011000
          296.139648438 12.3798828125 4.7197265625 28.6201171875 rlineto
          hintmask 00101010
          -293.799804688 hlineto
          -46.16015625 0 -48.1796875 6.259765625 12.2802734375 78.740234375 rrcurveto
          34.6396484375 218.48046875 349.799804688 6.69921875 4.720703125 29.30078125 -347.80078125 6.69921875 34.640625 217.8203125 rlineto
          9.2802734375 58.6796875 32.759765625 30.3203125 57.240234375 0 rrcurveto
          hintmask 00001100
          -33 callsubr
          hintmask 00101010
          -32 callsubr
          endchar
        </CharString>
        <CharString name="Eth">
          107 0 42.0200042725 317.179992676 27.6000061035 304.199996948 41 hstem
          70.9799957275 359.199996948 rmoveto
          65 0 -56.9799957275 -359.199996948 263.759994507 0 rlineto
          186.359985352 0 91.0200042725 158.580001831 36.3399963379 199.13999939 25.9600067139 139.819992065 -2.63999938965 234.460006714 -225.660003662 0 rrcurveto
          -20.3999938965 -238.740005493 0 -0.339996337891 hvcurveto
          -54.6399993896 -344.86000061 -65 0 rlineto
          51.3600158691 -344.779983521 rmoveto
          50.2599945068 317.179992676 152.199996948 0 4.38000488281 27.6000061035 -152.199996948 0 47.9199981689 304.199996948 217.479995728 0 rlineto
          142.499984741 0 63.1600036621 -101.899993896 -37.2799987793 -225.100006104 -24.6600036621 -148.339996338 -79.3199920654 -173.63999939 -164.320007324 0 rrcurveto
          endchar
        </CharString>
        <CharString name="Euro">
          152 -6 41 226.199996948 34.6000061035 127.399993896 33.6000061035 242.199996948 41 hstem
          70 266.220001221 rmoveto
          87 -5.02000427246 rlineto
          -35.3399963379 -235.240005493 153.660003662 -31.9600067139 77.6599884033 0 84.3200073242 0 60.2599945068 5.39999389648 84.3399963379 20.3600006104 rrcurveto
          5.03999328613 28.9400024414 rlineto
          0 -1.52587890625e-05 -126.619995117 -15.6799926758 -104.920013428 1.97999572754 -121.059997559 1.97999572754 -62 76.5800018311 25.6600036621 147.63999939 -3 2 271 2.36000061035 0 0 rrcurveto
          3.69999694824 25.2200012207 -265.660003662 5.02000427246 19.9600067139 127.399993896 268 4.36000061035 3.69999694824 24.8800048828 -266.660003662 4.36000061035 rlineto
          20.6399841309 123.760009766 38.5200042725 117.779998779 174.080001831 0.660003662109 82.6600036621 0.660003662109 139.220001221 -12.3600006104 0 0 rrcurveto
          4.38000488281 29.3000030518 rlineto
          -68.0000152588 13 -101.519989014 10.3999938965 -52 0 -244 0 -23.9800109863 -211.199996948 -11 -72 rrcurveto
          -88.3399963379 -5.69999694824 -3.69999694824 -23.1999969482 87 -4.69999694824 -19.9600067139 -127.399993896 -89.3399963379 -4.36000061035 rlineto
          endchar
        </CharString>
        <CharString name="Euro.smcp">
          -75 -5 41.3399963379 167.880004883 34.8999938965 88.1000061035 20.8999938965 187.880004883 41 hstem
          47 210.220001221 rmoveto
          67.3399963379 -6 rlineto
          -25.3600006104 -158.839996338 90.0200042725 -50.3800048828 95.0200042725 0 65 0 63.8000030518 10 66 18 rrcurveto
          4.7200012207 28.6600036621 rlineto
          -1.52587890625e-05 0 -113.819992065 -15.3200073242 -81.0200042725 0 -106.86000061 0 -32.1999969482 67.1800079346 16.3600006104 100.699996948 -2 2 188.339996338 4 0 0 rrcurveto
          3.69999694824 23.8999938965 -184 5 12.9600067139 82.1000061035 185.339996338 5 4.03999328613 22.8999938965 -184.339996338 6 rlineto
          12.299987793 75.3800048828 33.1600036621 105.5 133.800003052 0 rrcurveto
          64 122.800003052 -11 0 hvcurveto
          4.38000488281 29 rlineto
          -53.0000152588 10 -90.4599914551 13 -41 0 -191.699996948 0 -27.2800140381 -165.880004883 -9 -56 rrcurveto
          -69.3399963379 -7 -2.69999694824 -20.8999938965 67 -6 -12.9600067139 -82.1000061035 -69.3399963379 -6.32000732422 rlineto
          endchar
        </CharString>
        <CharString name="F">
          -13 21 -21 21 -21 341.479995728 42.6999969482 306.820007324 41 -41 28.9600067139 hstemhm
          hintmask 10110000
          80 hmoveto
          41 0 54.3000030518 341.479995728 349.479995728 6.69999694824 5.03999328613 29.3000030518 -348.119995117 6.69999694824 34.3000030518 217.820007324 rlineto
          9.2799987793 60 28.8000030518 29 59.8800048828 0 rrcurveto
          hintmask 00101000
          305.119995117 0 4.38000488281 28.9600067139 rlineto
          hintmask 10110000
          -302.119995117 12.0399932861 rlineto
          -70.0599975586 2.67999267578 -59.6199951172 -26.7599945068 -17.3200073242 -108.559997559 rrcurveto
          endchar
        </CharString>
        <CharString name="G">
          57 0 35.3200073242 311.679992676 42 -42 26.2400054932 325.419998169 41 hstemhm
          527.13999939 28.6199951172 hintmask 11011000
          122.279998779 373.600006104 rmoveto
          -31.3000030518 -194.420013428 3.60000610352 -185.839996338 199.86000061 0.980010986328 85.2399902344 0 111.400009155 40.2799987793 32.6600036621 20.4199981689 rrcurveto
          3.39999389648 -55.0200042725 28.6199951172 0 61 386 rlineto
          -24.0000152588 2 -22.6599884033 1 -21 0 rrcurveto
          hintmask 10111000
          -81 0 -50.7200012207 -4.75999450684 -42 -11 rrcurveto
          -4.69999694824 -26.2400054932 198.699996948 0 -41.9199981689 -259.979995728 rlineto
          1.52587890625e-05 1.52587890625e-05 -149.660003662 -51.6999969482 -78 0 -144.720001221 -0.34001159668 -25.3600006104 112.900009155 34.5800018311 219.099990845 37.7399902344 246.919998169 70.4200134277 85.1000061035 129.619995117 -0.339996337891 77.6799926758 -0.339996337891 139.200012207 -15.8800048828 24.3600006104 -3.05999755859 rrcurveto
          4.69999694824 32.6000061035 rlineto
          -67.9999847412 12.9999847412 -121.260009766 15.0200042725 -50.9799957275 -0.339996337891 rrcurveto
          -199 0 -52.1199951172 -154.5 -34.3800048828 -211.559997559 rrcurveto
          endchar
        </CharString>
        <CharString name="Gbreve">
          57 0 35.3200073242 311.679992676 26.2400054932 -26.2400054932 42 309.660003662 41 60.0139923096 24.8800048828 hstemhm
          321.757003784 24.8800048828 179.219985962 24.8800048828 -23.5970001221 28.6199951172 hintmask 00001110
          321.756835938 913.673828125 rmoveto
          55 callsubr
          hintmask 10110001
          -224.356445312 -540.07421875 rmoveto
          70 callsubr
          hintmask 11010001
          71 callsubr
          endchar
        </CharString>
        <CharString name="Gcircumflex">
          57 0 35.3200073242 311.679992676 26.2400054932 -26.2400054932 42 309.660003662 41 60.0139923096 130 hstemhm
          278.781997681 278.800003052 -30.4420013428 28.6199951172 hintmask 00001100
          278.782226562 799.673828125 rmoveto
          -41 callsubr
          hintmask 10110010
          -304.401367188 -556.07421875 rmoveto
          70 callsubr
          hintmask 11010010
          71 callsubr
          endchar
        </CharString>
        <CharString name="Gcommaaccent">
          57 -217.520004272 13.3560028076 204.164001465 35.3200073242 311.679992676 26.2400054932 -26.2400054932 42 309.660003662 41 hstemhm
          285.772354126 69.4876556396 171.879989624 28.6199951172 hintmask 10000100
          285.772460938 -217.51953125 rmoveto
          85 callsubr
          hintmask 01011010
          -165.586914062 577.763671875 rmoveto
          70 callsubr
          hintmask 01101010
          71 callsubr
          endchar
        </CharString>
        <CharString name="Gdotaccent">
          57 0 35.3200073242 311.679992676 26.2400054932 -26.2400054932 42 309.660003662 41 60.3399963379 91.4400024414 hstemhm
          406.886306763 65.6217041016 54.6319885254 28.6199951172 hintmask 00001100
          406.88671875 815.740234375 rmoveto
          -1.412109375 -9.3798828125 5.8369140625 -6.3603515625 9.380859375 0 rrcurveto
          24.259765625 hlineto
          9.3798828125 0 7.1181640625 5.3603515625 1.515625 10.3798828125 rrcurveto
          9.5419921875 59.279296875 rlineto
          1.4111328125 9.380859375 -4.1572265625 7.0400390625 -10.3798828125 0 rrcurveto
          -24.259765625 hlineto
          -10.7197265625 0 -6.458984375 -6.0400390625 -1.515625 -10.380859375 rrcurveto
          hintmask 10110010
          -294.147460938 -501.419921875 rmoveto
          70 callsubr
          hintmask 11010010
          71 callsubr
          endchar
        </CharString>
        <CharString name="H">
          76 21 -21 21 -21 333.5 41 357.5 -20 hstemhm
          hintmask 10110000
          85 hmoveto
          41 0 52.9799957275 333.5 409.399993896 0 -52.9799957275 -333.5 41 0 116 732 -41 0 -56.9799957275 -357.5 -409.399993896 0 56.9799957275 357.5 -41 0 rlineto
          endchar
        </CharString>
        <CharString name="Hbar">
          45 21 -21 21 -21 333.839996338 41.3399963379 155.020004272 28.6000061035 173.199996948 -20 hstemhm
          hintmask 10111000
          85 hmoveto
          41 0 53.3200073242 333.839996338 396.199996948 0 -53.3200073242 -333.839996338 41 0 83.9799957275 530.199996948 62.9600067139 0 4.03999328613 28.6000061035 -62.9600067139 0 27.9799957275 173.199996948 -41 0 -27.9799957275 -173.199996948 -396.199996948 0 27.9799957275 173.199996948 -41 0 rlineto
          -27.9799957275 -173.199996948 -63.6399993896 0 -4.03999328613 -28.6000061035 63.6399993896 0 rlineto
          16.379989624 -155.020019531 rmoveto
          24.6199951172 155.020004272 396.199996948 0 -24.6199951172 -155.020004272 rlineto
          endchar
        </CharString>
        <CharString name="Hcircumflex">
          76 0 21 312.5 41 337.5 20 65 130 hstem
          317.759002686 278.800003052 vstem
          317.758789062 797 rmoveto
          69 callsubr
          -380.659179688 -927 rmoveto
          41 0 52.98046875 333.5 409.399414062 0 -52.9794921875 -333.5 41 0 116 732 -41 0 -56.98046875 -357.5 -409.400390625 0 56.98046875 357.5 -41 0 rlineto
          endchar
        </CharString>
        <CharString name="I">
          -369 21 -21 21 -21 732 -20 hstemhm
          90 157 hintmask 10110000
          90 hmoveto
          -69 callsubr
          endchar
        </CharString>
        <CharString name="Iacute">
          -369 0 21 691 20 65 133 hstemhm
          90 157 -26.3910064697 186.699996948 hintmask 00101000
          220.609375 797 rmoveto
          -29 callsubr
          hintmask 11010000
          -267.848632812 -930 rmoveto
          -69 callsubr
          endchar
        </CharString>
        <CharString name="Icircumflex">
          -369 0 21 691 20 65 130 hstemhm
          90 157 -149.440994263 278.800003052 hintmask 00101000
          97.55859375 797 rmoveto
          -28 callsubr
          hintmask 11010000
          -155.458984375 -927 rmoveto
          -69 callsubr
          endchar
        </CharString>
        <CharString name="Idieresis">
          -369 0 21 691 20 65 57.4400024414 hstemhm
          85.3695068359 57.4400024414 -52.8095092773 157 93.3695068359 57.4400024414 hintmask 00110100
          85.369140625 826.219726562 rmoveto
          -27 callsubr
          255 hmoveto
          -27 callsubr
          hintmask 11001000
          -250.369140625 -826.219726562 rmoveto
          -69 callsubr
          endchar
        </CharString>
        <CharString name="Idotaccent">
          -369 0 21 691 20 65 91.4400024414 hstemhm
          90 157 -35.6596984863 65.6217041016 hintmask 00101000
          211.33984375 812.740234375 rmoveto
          51 callsubr
          hintmask 11010000
          -130.881835938 -872.01953125 rmoveto
          -69 callsubr
          endchar
        </CharString>
        <CharString name="Idotaccent.smcp">
          -367 21 -21 21 -21 626.720001221 91.4400024414 hstemhm
          155.485794067 65.6217041016 hintmask 10110000
          60 hmoveto
          104 callsubr
          hintmask 00110000
          5.4853515625 72.4599609375 rmoveto
          142 callsubr
          endchar
        </CharString>
        <CharString name="Igrave">
          -369 0 21 691 20 65 133 hstemhm
          90 157 -142.470993042 148.779998779 hintmask 00101000
          104.529296875 930 rmoveto
          -30 callsubr
          hintmask 11010000
          -61.2685546875 -930 rmoveto
          -69 callsubr
          endchar
        </CharString>
        <CharString name="Imacron">
          -369 0 21 691 20 63.3000030518 31.3200073242 hstemhm
          73.6799926758 157 -146.612594604 270.320007324 hintmask 00101000
          84.0673828125 795.299804688 rmoveto
          90 callsubr
          hintmask 11010000
          -15.107421875 -826.620117188 rmoveto
          -69 callsubr
          endchar
        </CharString>
        <CharString name="Iogonek">
          -369 -180.922119141 29.6399993896 131.36000061 20 -0.077880859375 21 691 20 hstemhm
          90 157 hintmask 11000000
          101.5859375 0.078125 rmoveto
          58 callsubr
          hintmask 00111000
          -32.765625 -0.078125 rmoveto
          -69 callsubr
          endchar
        </CharString>
        <CharString name="Itilde">
          -369 0 21 691 20 68.6399993896 34.3600006104 25.3800048828 34.3600006104 hstem
          102.539993286 157 vstem
          90.0673828125 834.700195312 rmoveto
          7.740234375 -19.2197265625 rlineto
          37.2802734375 21.919921875 28.6201171875 22.6396484375 40.0400390625 0.33984375 34.01953125 0.33984375 29.7998046875 -59.7392578125 46.7607421875 -0.3408203125 42.6796875 -0.33984375 35.7001953125 31.3798828125 40.359375 30.9599609375 rrcurveto
          -8.3994140625 18.900390625 rlineto
          -19.2001953125 -13.900390625 -51.51953125 -32.9794921875 -33.900390625 0.33984375 -30.6396484375 0.33984375 -37.1806640625 58.3798828125 -42.7392578125 1.0205078125 -39.6806640625 0 -38.7001953125 -29.0205078125 -41.0400390625 -31.01953125 rrcurveto
          12.47265625 -834.700195312 rmoveto
          -69 callsubr
          endchar
        </CharString>
        <CharString name="J">
          -240 21 27.6000061035 683.399993896 -20 hstem
          38 21 rmoveto
          47 -34 93.8000030518 -1.67999267578 51.3999938965 32.6799926758 51.6999969482 32.6600036621 16.3000030518 67.3399963379 7 47 rrcurveto
          90 567 -41 0 -90 -567 rlineto
          -25.620010376 -157.100006104 -112.619995117 16.7600097656 -79.5800018311 23.9400024414 rrcurveto
          endchar
        </CharString>
        <CharString name="Jcircumflex">
          -240 21 27.6000061035 663.399993896 20 65 130 hstem
          245.759002686 278.800003052 vstem
          245.758789062 797 rmoveto
          69 callsubr
          -355.659179688 -906 rmoveto
          47 -34 93.7998046875 -1.6796875 51.400390625 32.6796875 51.7001953125 32.66015625 16.2998046875 67.33984375 7 47 rrcurveto
          90 567 -41 0 -90 -567 rlineto
          -25.6201171875 -157.099609375 -112.620117188 16.759765625 -79.580078125 23.939453125 rrcurveto
          endchar
        </CharString>
        <CharString name="K">
          -30 21 -21 21 -21 346.5 41 344.5 -20 hstemhm
          hintmask 10110000
          80 hmoveto
          42 0 54.6399993896 346.5 133.899993896 0 176.919998169 -346.5 48.7400054932 0 -187.339996338 365.960006714 302.679992676 366.039993286 -51.0800018311 0 -287.539993286 -344.5 -130.559997559 0 54.6399993896 344.5 -41 0 rlineto
          endchar
        </CharString>
        <CharString name="Kcommaaccent">
          -30 -212.520004272 13.3560028076 199.164001465 21 325.5 41 324.5 20 hstem
          246.15234375 69.4876556396 vstem
          hintmask 00000000
          246.15234375 -212.51953125 rmoveto
          0 0 46.3134765625 -10.8544921875 8.3525390625 52.830078125 rrcurveto
          14.8212890625 94.068359375 rlineto
          1.365234375 9.341796875 -2.2294921875 6.6416015625 -10.8544921875 0 rrcurveto
          -21.5458984375 hlineto
          -9.6484375 0 -6.1171875 -5.1298828125 -1.765625 -10.853515625 rrcurveto
          -8.28125 -53.3525390625 rlineto
          -1.669921875 -9.9541015625 5.5595703125 -5.41796875 8.44140625 0 rrcurveto
          6.9306640625 0 -5.646484375 -35.5673828125 rlineto
          -1.17578125 -6.9306640625 -2.6650390625 -11.771484375 -18.08984375 0.3056640625 rrcurveto
          -168.247070312 199.1640625 rmoveto
          42 0 54.6396484375 346.5 133.900390625 0 176.919921875 -346.5 48.740234375 0 -187.33984375 365.959960938 302.6796875 366.040039062 -51.080078125 0 -287.540039062 -344.5 -130.559570312 0 54.6396484375 344.5 -41 0 rlineto
          endchar
        </CharString>
        <CharString name="L">
          -30 0 41 691 -20 hstem
          99 126 rmoveto
          -16.9799957275 -106.539993286 69.9400024414 -19.4600067139 66.3399963379 0 rrcurveto
          283.580001831 0 6.38000488281 41 -286.199996948 0 rlineto
          -45.5 0 -49.1799926758 6.25999450684 12.6199951172 78.7400054932 rrcurveto
          96.3399963379 606 -40.6600036621 0 rlineto
          endchar
        </CharString>
        <CharString name="Lacute">
          -30 0 41 671 20 63.3000030518 133 hstem
          191.666305542 186.699996948 vstem
          191.666015625 795.299804688 rmoveto
          -42 callsubr
          -250.986328125 -802.299804688 rmoveto
          -16.9794921875 -106.540039062 69.939453125 -19.4599609375 66.33984375 0 rrcurveto
          283.580078125 0 6.3798828125 41 -286.19921875 0 rlineto
          -45.5 0 -49.1806640625 6.259765625 12.6201171875 78.740234375 rrcurveto
          96.33984375 606 -40.66015625 0 rlineto
          endchar
        </CharString>
        <CharString name="Lcaron">
          -30 0 41 691 -20 hstem
          299.279998779 25.9400024414 vstem
          99 126 rmoveto
          -16.9799957275 -106.539993286 66.6369934082 -19.4600067139 66.3430023193 0 rrcurveto
          286.880004883 0 6.38000488281 41 -286.199996948 0 rlineto
          -45.5 0 -49.1799926758 6.25999450684 12.6199951172 78.7400054932 rrcurveto
          96.3399963379 606 -40.6600036621 0 rlineto
          103.600006104 -161 rmoveto
          35 callsubr
          endchar
        </CharString>
        <CharString name="Lcommaaccent">
          -30 -212.520004272 13.3560028076 199.164001465 41 671 20 hstem
          251.812347412 69.4876556396 vstem
          hintmask 00000000
          251.8125 -212.51953125 rmoveto
          85 callsubr
          -154.907226562 325.1640625 rmoveto
          -16.98046875 -106.540039062 69.9404296875 -19.4599609375 66.33984375 0 rrcurveto
          283.580078125 0 6.3798828125 41 -286.200195312 0 rlineto
          -45.5 0 -49.1796875 6.259765625 12.6201171875 78.740234375 rrcurveto
          96.33984375 606 -40.66015625 0 rlineto
          endchar
        </CharString>
        <CharString name="Lslash">
          -30 0 41 691 -20 hstem
          50.6000061035 346.399993896 rmoveto
          89.3399963379 36.3399963379 -40.9600067139 -256.740005493 rlineto
          -16.9800109863 -106.539993286 68.6170043945 -19.4600067139 66.3430023193 0 rrcurveto
          284.559997559 0 6.7200012207 41 -286.539993286 0 rlineto
          -45.5000152588 0 -48.8399963379 6.25999450684 12.6199951172 78.7400054932 rrcurveto
          43.3200073242 274.880004883 134.460006714 54.7200012207 6.38000488281 33.6000061035 -135.13999939 -54.7200012207 46.9799957275 297.520004272 -40.6600036621 0 -50 -315 -89.3399963379 -36 rlineto
          endchar
        </CharString>
        <CharString name="M">
          218 21 -21 21 -21 732 -20 hstemhm
          hintmask 10100000
          71 hmoveto
          41.6600036621 0 169.979995728 662.679992676 101.63999939 -662.679992676 44.3200073242 0 310.740005493 666.320007324 -38.8000030518 -666.320007324 41.6600036621 0 41.5200042725 732 -60.0800018311 0 -307.800003052 -663.119995117 -103.979995728 663.119995117 -55.0800018311 0 rlineto
          endchar
        </CharString>
        <CharString name="M.salt">
          235 21 -21 21 -21 hstemhm
          hintmask 10000000
          55 hmoveto
          40 0 145.979995728 656.220001221 rlineto
          10.2799835205 47.1000061035 56.6399993896 9.83999633789 6.62001037598 -49.6600036621 rrcurveto
          57 -401.179992676 rlineto
          11.3800048828 -80.2800140381 90.2600097656 4.66000366211 29.3999938965 69.5 rrcurveto
          173.320007324 410 rlineto
          19.5399932861 46.3599853516 56.3399963379 -7.97999572754 -4.31999206543 -48.0200042725 rrcurveto
          -54.3200073242 -656.559997559 41.6799926758 0 53.9799957275 651.619995117 rlineto
          8.66000366211 103 -119.199996948 14.0800018311 -40.6800079346 -87.6999969482 rrcurveto
          -172.979995728 -411 rlineto
          -12.5999908447 -30.1799926758 -33.8199920654 -4.66000366211 -4.98001098633 34.8399963379 rrcurveto
          -57.3399963379 403.199996948 rlineto
          -14.6999969482 96.1199951172 -127.13999939 -15.3200073242 -16 -102 rrcurveto
          endchar
        </CharString>
        <CharString name="N">
          76 21 -21 21 -21 732 -20 hstemhm
          hintmask 10100000
          80 hmoveto
          41.3399963379 0 104.559997559 657.36000061 313.660003662 -657.36000061 39.6399993896 0 116 732 -41 0 -104.559997559 -656.699996948 -312.660003662 656.699996948 -40.9799957275 0 rlineto
          endchar
        </CharString>
        <CharString name="N.salt">
          98 21 -21 21 -21 732 -20 hstemhm
          676.460006714 41 hintmask 10110000
          80 hmoveto
          41 0 102.660003662 648.300003052 rlineto
          8.94000244141 55.2800140381 66.5199890137 8.30000305176 9.2799987793 -46.6800079346 rrcurveto
          137.020004272 -607.080001831 rlineto
          22.759979248 -98.4400024414 131.960006714 17.2600097656 15.3399963379 99.7599945068 rrcurveto
          101.979995728 655.300003052 -41 0 -103.320007324 -650.919998169 rlineto
          -9.28001403809 -50.7199859619 -66.8200073242 -13.8399963379 -10.2799987793 51.6599884033 rrcurveto
          -137.720001221 609.839996338 rlineto
          -19.3800048828 86.620010376 -133.680007935 -10.6199951172 -14.3199920654 -99.3800048828 rrcurveto
          endchar
        </CharString>
        <CharString name="Nacute">
          76 0 21 691 20 65 133 hstem
          439.708999634 186.699996948 vstem
          439.708984375 797 rmoveto
          -42 callsubr
          -496.94921875 -930 rmoveto
          -25 callsubr
          endchar
        </CharString>
        <CharString name="Nacute.salt">
          98 0 21 691 20 65 133 hstem
          447 186.699996948 42.7600097656 41 vstem
          447 797 rmoveto
          -42 callsubr
          -504.240234375 -930 rmoveto
          148 callsubr
          endchar
        </CharString>
        <CharString name="Ncaron">
          76 0 21 691 20 65 130 hstem
          337.259994507 278.800003052 vstem
          337.259765625 927 rmoveto
          41 callsubr
          -290.580078125 -927 rmoveto
          -25 callsubr
          endchar
        </CharString>
        <CharString name="Ncaron.salt">
          98 0 21 691 20 65 130 hstem
          366.080001831 278.800003052 31.5800018311 41 vstem
          366.080078125 927 rmoveto
          36 callsubr
          -319.400390625 -927 rmoveto
          148 callsubr
          endchar
        </CharString>
        <CharString name="Ncommaaccent">
          76 -212.520004272 13.3560028076 199.164001465 21 691 20 hstem
          289.51234436 69.4876556396 vstem
          hintmask 00000000
          289.512695312 -212.51953125 rmoveto
          91 callsubr
          -211.606445312 199.1640625 rmoveto
          -25 callsubr
          endchar
        </CharString>
        <CharString name="Ncommaaccent.salt">
          98 -239.061004639 13.3560028076 225.705001831 21 691 20 hstem
          281.761352539 69.4876556396 325.210998535 41 vstem
          hintmask 00000000
          281.76171875 -239.060546875 rmoveto
          91 callsubr
          -203.85546875 225.705078125 rmoveto
          148 callsubr
          endchar
        </CharString>
        <CharString name="Ntilde">
          76 0 21 691 20 63.6399993896 34.3600006104 25.3800048828 34.3600006104 hstem
          289.606445312 829.700195312 rmoveto
          -26 callsubr
          -209.606445312 -829.700195312 rmoveto
          -25 callsubr
          endchar
        </CharString>
        <CharString name="Ntilde.salt">
          98 0 21 691 20 71.9400024414 34.3600006104 25.379989624 34.3600006104 hstem
          676.460006714 41 vstem
          283 838 rmoveto
          7.740234375 -19.2197265625 rlineto
          37.279296875 21.919921875 28.6201171875 22.6396484375 40.0400390625 0.33984375 34.0205078125 0.33984375 29.7998046875 -59.7392578125 46.759765625 -0.33984375 42.6806640625 -0.3408203125 35.69921875 31.380859375 40.3603515625 30.9599609375 rrcurveto
          -8.400390625 18.8994140625 rlineto
          -19.19921875 -13.8994140625 -51.5205078125 -32.98046875 -33.8994140625 0.33984375 -30.640625 0.33984375 -37.1796875 58.3798828125 -42.740234375 1.0205078125 -39.6796875 0 -38.7001953125 -29.0205078125 -41.0400390625 -31.01953125 rrcurveto
          -203 -838 rmoveto
          148 callsubr
          endchar
        </CharString>
        <CharString name="O">
          106 -4 41 659 41 hstem
          116.979995728 365.619995117 rmoveto
          -68 callsubr
          41 -4.61999511719 rmoveto
          -67 callsubr
          endchar
        </CharString>
        <CharString name="OE">
          470 -4 41 -27.6199951172 28.6199951172 303.479995728 42.6999969482 306.820007324 28.9600067139 -23.9600067139 41 hstemhm
          hintmask 10100000
          112.580001831 365.619995117 rmoveto
          -52.9999847412 -333 96.3000030518 -36.6199951172 173.879989624 0 114.440002441 0 81.2600097656 15.3000030518 56.6599884033 99.2599945068 -9.75999450684 -90.9400024414 61.2200012207 -25.6199951172 63.5399932861 3 rrcurveto
          hintmask 01110000
          276 12.3800048828 4.7200012207 28.6199951172 -274 0 rlineto
          -46.1600036621 0 -48.1799926758 6.25999450684 12.2799987793 78.7400054932 rrcurveto
          34.6399993896 218.479995728 330.339996338 6.69999694824 4.38000488281 29.3000030518 -327.660003662 6.69999694824 34.3000030518 217.820007324 rlineto
          9.2799987793 58.6799926758 32.7600097656 30.3200073242 57.2399902344 0 rrcurveto
          284 0 4.38000488281 28.9600067139 -281.660003662 12.0399932861 rlineto
          -72.5399932861 3 -56.5800018311 -32.8200073242 -14.7600097656 -91.3999938965 rrcurveto
          hintmask 10101000
          -25.8199920654 108.919998169 -78.6399993896 17.3000030518 -112.5 0 rrcurveto
          -173.020004272 0 -103.339996338 -28.3800048828 -54 -343 rrcurveto
          41 -4.61999511719 rmoveto
          50.9600067139 324.080001831 91.5200042725 10.9199981689 142.900009155 0 147.759994507 0 80.6999969482 -19.5 -49.6399993896 -315.5 -44.2799987793 -280.020004272 -77.9600067139 -43.9799957275 -161.13999939 0 -169.13999939 0 -56.6399993896 39.9400024414 44.9600067139 284.059997559 rrcurveto
          endchar
        </CharString>
        <CharString name="Oacute">
          106 -4 41 659 41 60 133 hstem
          440.656997681 186.699996948 vstem
          440.657226562 797 rmoveto
          -42 callsubr
          -460.916992188 -564.379882812 rmoveto
          -24 callsubr
          41 -4.6201171875 rmoveto
          -23 callsubr
          endchar
        </CharString>
        <CharString name="Ocircumflex">
          106 -4 41 659 41 60 130 hstem
          317.606994629 278.800003052 vstem
          317.607421875 797 rmoveto
          -22 callsubr
          -348.526367188 -561.379882812 rmoveto
          -24 callsubr
          41 -4.6201171875 rmoveto
          -23 callsubr
          endchar
        </CharString>
        <CharString name="Odieresis">
          106 -4 41 659 41 60 57.4400024414 hstem
          305.417007446 57.4400024414 197.559997559 57.4400024414 vstem
          305.416992188 826.219726562 rmoveto
          -21 callsubr
          255 hmoveto
          -21 callsubr
          -443.436523438 -460.599609375 rmoveto
          -24 callsubr
          41 -4.6201171875 rmoveto
          -23 callsubr
          endchar
        </CharString>
        <CharString name="Ograve">
          106 -4 41 659 41 60 133 hstem
          324.57699585 148.779998779 vstem
          324.577148438 930 rmoveto
          -45 callsubr
          -254.336914062 -564.379882812 rmoveto
          -24 callsubr
          41 -4.6201171875 rmoveto
          -23 callsubr
          endchar
        </CharString>
        <CharString name="Ohungarumlaut">
          106 -4 41 659 41 60 133 hstem
          371.837005615 324.339996338 vstem
          371.836914062 797 rmoveto
          -42 callsubr
          0.3994140625 -133 rmoveto
          -42 callsubr
          -529.736328125 -564.379882812 rmoveto
          -24 callsubr
          41 -4.6201171875 rmoveto
          -23 callsubr
          endchar
        </CharString>
        <CharString name="Omacron">
          106 -4 41 659 41 58.3000030518 31.3200073242 hstem
          326.824005127 270.320007324 vstem
          326.82421875 795.299804688 rmoveto
          86 callsubr
          -214.563476562 -461 rmoveto
          -24 callsubr
          41 -4.6201171875 rmoveto
          -23 callsubr
          endchar
        </CharString>
        <CharString name="Omega">
          210 0 30.6999969482 667.300003052 41 hstem
          71 hmoveto
          220 0 7.05999755859 42.3600006104 rlineto
          -130 116.000015259 -25.0399932861 80.3999938965 22.9799957275 143.220001221 26.9600067139 170.440002441 83.6799926758 145.580001831 213.740005493 0 217.819992065 0 26.6399993896 -149.520004272 -25.6399993896 -163.479995728 -21 -132.339996338 -57.9400024414 -116.300003052 -157 -94 rrcurveto
          -7.05999755859 -42.3600006104 228 0 5.05999755859 30.6999969482 -167.259994507 10.6600036621 rlineto
          140.899993896 88.9400177002 58.3000030518 133.059997559 19 117 29 182 -43.5599975586 176.63999939 -240.520004272 0 -262 0 -79.7599945068 -189.419998169 -26.3600006104 -153.660003662 -16.6399993896 -98.0800018311 -8.16000366211 -135.679992676 145.820007324 -119.800003052 rrcurveto
          -171.960006714 -11.3200073242 rlineto
          endchar
        </CharString>
        <CharString name="Oslash">
          106 -4 41 659 41 hstem
          79.5599975586 hmoveto
          32.6199951172 0 36.3000030518 44.9600067139 rlineto
          39.7199859619 -41.9599914551 63.3600006104 -7 81.5800018311 0 177.619995117 0 101.080001831 37.3800048828 50.3200073242 323 24.9799957275 158.919998169 -8.02000427246 96.9400024414 -33.3399963379 53.6799926758 rrcurveto
          53.0599975586 66.0800018311 -32.6199951172 0 -36.6000061035 -45.9199981689 rlineto
          -39.6999969482 42.9200134277 -66.3000030518 8 -80.5999908447 0 -173.020004272 0 -100.039993286 -31.0200042725 -54 -343 -24.3200073242 -154.539993286 7.36000061035 -91.3000030518 32.6600036621 -51.6799926758 rrcurveto
          25.3000030518 295.539993286 rmoveto
          50.9600067139 324.080001831 91.5200042725 10.9199981689 142.899993896 0 70.8399963379 0 55.9200134277 -3.63999938965 32.9799957275 -39.5399932861 rrcurveto
          -440.520004272 -551.059997559 rlineto
          -24.2399902344 46.9599914551 -1.32000732422 79.8800048828 20.9600067139 132.399993896 rrcurveto
          19.0599975586 -281.440002441 rmoveto
          440.86000061 550.399993896 rlineto
          23.2599945068 -47.9599914551 2.97999572754 -82.2200012207 -21.9599914551 -138.779998779 -44.2799987793 -280.020004272 -75.9800109863 -43.9799957275 -161.13999939 0 -76.8600006104 0 -55.8999938965 7.32000732422 -30.9799957275 35.2399902344 rrcurveto
          endchar
        </CharString>
        <CharString name="Otilde">
          106 -4 41 659 41 60.3399963379 34.3600006104 25.3800048828 34.3600006104 hstem
          293.171875 831.400390625 rmoveto
          7.740234375 -19.220703125 rlineto
          37.2802734375 21.919921875 28.619140625 22.640625 40.0400390625 0.33984375 34.0205078125 0.33984375 29.7998046875 -59.740234375 46.759765625 -0.33984375 42.6806640625 -0.33984375 35.69921875 31.3798828125 40.3603515625 30.9599609375 rrcurveto
          -8.3994140625 18.900390625 rlineto
          -19.2001953125 -13.900390625 -51.5205078125 -32.9794921875 -33.8994140625 0.33984375 -30.640625 0.33984375 -37.1796875 58.3798828125 -42.740234375 1.0205078125 -39.6796875 0 -38.7001953125 -29.0205078125 -41.0400390625 -31.01953125 rrcurveto
          -176.19140625 -465.780273438 rmoveto
          -24 callsubr
          41 -4.6201171875 rmoveto
          -23 callsubr
          endchar
        </CharString>
        <CharString name="P">
          15 21 -21 21 -21 314.5 41 -28.6199951172 28.6199951172 334.5 42 hstemhm
          hintmask 10011000
          75 hmoveto
          41 0 52.3200073242 326.880004883 rlineto
          hintmask 10101000
          5 -3 197.859985352 -9.38000488281 40 0 74 0 103.680007935 2.2799987793 31.6600036621 211.13999939 25.9599914551 173.900009155 -90.2799987793 30.1799926758 -79 0 rrcurveto
          -286.199996948 hlineto
          hintmask 00011000
          -18.6399993896 -376.5 rmoveto
          52.9199981689 334.5 245.199996948 0 rlineto
          63.4199829102 0 66.9200134277 -15.2400054932 -22.3000030518 -146.179992676 rrcurveto
          hintmask 00101000
          -22.3200073242 -150.160003662 -69.1600036621 -22.9199981689 -69.8199920654 0 rrcurveto
          endchar
        </CharString>
        <CharString name="Q">
          111 -4 41 659 41 hstem
          315.600006104 26.9199981689 vstem
          120.979995728 365.619995117 rmoveto
          -68 callsubr
          41 -4.61999511719 rmoveto
          -67 callsubr
          153.620010376 -394 rmoveto
          3.29998779297 -96.0399932861 106.220001221 -22.3800048828 76 27 rrcurveto
          7.05999755859 43.0399932861 rlineto
          -62.3199920654 -20.3399963379 -73.4199981689 -0.360000610352 -29.9199981689 69.0800018311 rrcurveto
          endchar
        </CharString>
        <CharString name="R">
          39 21 -21 21 -21 315.86000061 39.6399993896 -31 31 334.5 42 hstemhm
          hintmask 10011000
          75 hmoveto
          41 0 51.6399993896 324.5 rlineto
          2.63998413086 -1.97999572754 192.13999939 -8.7200012207 34.9799957275 -0.660003662109 rrcurveto
          105.600006104 -313.13999939 44.6999969482 0 rlineto
          hintmask 10101000
          -107.979995728 315.86000061 rlineto
          59.3600006104 2.68000793457 94.5 14.6600036621 26.2599945068 189.36000061 24.2600097656 174.919998169 -83.8200073242 34.5200042725 -81.0399932861 0 rrcurveto
          -288.240005493 hlineto
          hintmask 00011000
          -18.3000030518 -376.5 rmoveto
          52.9199981689 334.5 246.899993896 0 rlineto
          67.8400115967 0 57.0599975586 -18.2799987793 -19.5800018311 -146.520004272 -19.5599975586 -143.63999939 -69.5399932861 -26.0599975586 -70.8400115967 0 rrcurveto
          endchar
        </CharString>
        <CharString name="Racute">
          39 0 21 294.86000061 39.6399993896 -31 31 334.5 42 65 133 hstemhm
          395.828994751 186.699996948 hintmask 00001100
          395.829101562 797 rmoveto
          -42 callsubr
          hintmask 10110000
          -458.069335938 -930 rmoveto
          52 callsubr
          hintmask 11010000
          53 callsubr
          hintmask 00110000
          -18.2998046875 -376.5 rmoveto
          54 callsubr
          endchar
        </CharString>
        <CharString name="Rcaron">
          39 0 21 294.86000061 39.6399993896 -31 31 334.5 42 65 130 hstemhm
          295.080001831 278.800003052 hintmask 00001100
          295.080078125 927 rmoveto
          36 callsubr
          hintmask 10110000
          -253.400390625 -927 rmoveto
          52 callsubr
          hintmask 11010000
          53 callsubr
          hintmask 00110000
          -18.2998046875 -376.5 rmoveto
          54 callsubr
          endchar
        </CharString>
        <CharString name="Rcommaaccent">
          39 -212.520004272 13.3560028076 199.164001465 21 294.86000061 39.6399993896 -31 31 334.5 42 hstemhm
          262.212356567 69.4876556396 hintmask 10000100
          262.211914062 -212.51953125 rmoveto
          0 0 46.314453125 -10.8544921875 8.3525390625 52.830078125 rrcurveto
          14.8212890625 94.068359375 rlineto
          1.3642578125 9.341796875 -2.2294921875 6.6416015625 -10.853515625 0 rrcurveto
          -21.5458984375 hlineto
          -9.6484375 0 -6.1181640625 -5.1298828125 -1.7646484375 -10.853515625 rrcurveto
          -8.28125 -53.3525390625 rlineto
          -1.6708984375 -9.9541015625 5.5595703125 -5.41796875 8.4423828125 0 rrcurveto
          6.9296875 0 -5.6455078125 -35.5673828125 rlineto
          -1.1767578125 -6.9306640625 -2.6650390625 -11.771484375 -18.08984375 0.3056640625 rrcurveto
          hintmask 01011000
          -189.306640625 199.1640625 rmoveto
          52 callsubr
          hintmask 01101000
          53 callsubr
          hintmask 00011000
          -18.2998046875 -376.5 rmoveto
          54 callsubr
          endchar
        </CharString>
        <CharString name="S">
          -5 -8 41 305.5 41 317.5 41 hstem
          79 10.0599975586 rmoveto
          41.6000061035 -7.66000366211 136.959991455 -10.3999938965 58.1800079346 0 93.2200012207 0 107.159988403 15.3000030518 22.6800079346 145.399993896 rrcurveto
          10.3399963379 68 rlineto
          12.9999847412 81.9999847412 -18.6799926758 76.8000030518 -129.600006104 0 rrcurveto
          -122.5 hlineto
          -78.7399902344 0 -52 9.47999572754 16.3400115967 105.020004272 rrcurveto
          10.6600036621 66 rlineto
          17.6399993896 112.5 62.200012207 28.5 95.1399993896 -4 0 0 171.599990845 -5.69999694824 58.5800018311 -2.63999938965 rrcurveto
          4.38000488281 28.6399993896 rlineto
          -50.0400085449 8.00001525879 -124.799987793 12.0200042725 -53 0.679992675781 -110.640014648 1.36000061035 -88.379989624 -27.9799957275 -23.6800079346 -148.740005493 rrcurveto
          -10.6600036621 -66 rlineto
          -11.9999847412 -76.9800109863 6.31999206543 -81.1600036621 155.680007935 0 rrcurveto
          121.179992676 hlineto
          91.8399810791 0 20.8000030518 -39.0200042725 -11.6399993896 -75.4799957275 rrcurveto
          -10.3399963379 -68 rlineto
          -16.299987793 -106.119995117 -84.3800048828 -16.8800048828 -73.3399963379 0 -93 0 -104.399993896 2.67999267578 -43 4.68000793457 rrcurveto
          endchar
        </CharString>
        <CharString name="Sacute">
          -5 -8 41 305.5 41 317.5 41 60 133 hstem
          391.559997559 186.699996948 vstem
          391.559570312 798 rmoveto
          -42 callsubr
          -453.879882812 -920.940429688 rmoveto
          41.599609375 -7.6591796875 136.9609375 -10.400390625 58.1796875 0 93.2197265625 0 107.16015625 15.2998046875 22.6796875 145.400390625 rrcurveto
          10.33984375 68 rlineto
          13 82 -18.6796875 76.7998046875 -129.599609375 0 rrcurveto
          -122.5 hlineto
          -78.740234375 0 -52 9.48046875 16.33984375 105.01953125 rrcurveto
          10.66015625 66 rlineto
          17.6396484375 112.5 62.2001953125 28.5 95.1396484375 -4 0 0 171.600585938 -5.7001953125 58.580078125 -2.6396484375 rrcurveto
          4.3798828125 28.6396484375 rlineto
          -50.0400390625 8 -124.799804688 12.0205078125 -53 0.6796875 -110.640625 1.3603515625 -88.3798828125 -27.98046875 -23.6796875 -148.740234375 rrcurveto
          -10.66015625 -66 rlineto
          -12 -76.9794921875 6.3203125 -81.16015625 155.6796875 0 rrcurveto
          121.1796875 hlineto
          91.8408203125 0 20.7998046875 -39.01953125 -11.640625 -75.48046875 rrcurveto
          -10.33984375 -68 rlineto
          -16.2998046875 -106.120117188 -84.3798828125 -16.8798828125 -73.33984375 0 -93 0 -104.400390625 2.6796875 -43 4.6806640625 rrcurveto
          endchar
        </CharString>
        <CharString name="Scaron">
          -5 -8 41 305.5 41 317.5 41 60.1269989014 130 hstem
          297.79699707 278.800003052 vstem
          297.796875 928.126953125 rmoveto
          36 callsubr
          -252.1171875 -918.067382812 rmoveto
          37 callsubr
          endchar
        </CharString>
        <CharString name="Scedilla">
          -5 -181 17.1999969482 155.800003052 41 305.5 41 317.5 41 hstem
          294.5 34 vstem
          167.700195312 -181 rmoveto
          38 callsubr
          -91.400390625 173.859375 rmoveto
          37 callsubr
          endchar
        </CharString>
        <CharString name="Scircumflex">
          -5 -8 41 305.5 41 317.5 41 60.1269989014 130 hstem
          250.315994263 278.800003052 vstem
          250.31640625 798.126953125 rmoveto
          -41 callsubr
          -319.215820312 -918.067382812 rmoveto
          37 callsubr
          endchar
        </CharString>
        <CharString name="T">
          41 21 -21 21 -21 691 41 hstemhm
          hintmask 10100000
          139 691 rmoveto
          240.399993896 0 -109.279998779 -691 41 0 109.279998779 691 246.399993896 0 6.7200012207 41 -527.800003052 0 rlineto
          endchar
        </CharString>
        <CharString name="Tbar">
          14 21 -21 21 -21 403.199996948 27.6000061035 260.199996948 41 hstemhm
          hintmask 10110000
          139 691 rmoveto
          227.199996948 0 -41.2599945068 -260.199996948 -126.600006104 0 -4.03999328613 -27.6000061035 126.600006104 0 -63.9799957275 -403.199996948 41 0 63.9799957275 403.199996948 126.600006104 0 4.03999328613 27.6000061035 -126.600006104 0 41.2599945068 260.199996948 233.199996948 0 6.7200012207 41 -501.399993896 0 rlineto
          endchar
        </CharString>
        <CharString name="Tcaron">
          41 0 21 670 41 65 130 hstem
          301.279998779 278.800003052 vstem
          301.280273438 927 rmoveto
          39 callsubr
          -195.599609375 -236 rmoveto
          40 callsubr
          endchar
        </CharString>
        <CharString name="Tcommaaccent">
          41 -185 17.1999969482 167.800003052 21 670 41 hstem
          259 34 vstem
          132.200195312 -185 rmoveto
          38 callsubr
          -3.3603515625 858.799804688 rmoveto
          40 callsubr
          endchar
        </CharString>
        <CharString name="Thorn">
          -19 21 -21 21 -21 150.699996948 41 -27.5999908447 27.6000061035 354.959991455 41.3399963379 hstemhm
          hintmask 10011000
          60 hmoveto
          41 0 26.0200042725 164.100006104 rlineto
          hintmask 10101000
          43.5200042725 -10.4400024414 126.020004272 -2.30000305176 40 -0.660003662109 78.4199981689 0 102.260009766 15.620010376 29.6199951172 206.039993286 25.9600067139 179.339996338 -95.7400054932 36.3000030518 -72.8800048828 0 rrcurveto
          -210.199996948 0 22 141 -41 0 rlineto
          -38 -243 -39 -243 -38 -243 rrcurveto
          hintmask 00011000
          71.0599975586 191.699996948 rmoveto
          56.2200012207 354.960006714 210.199996948 0 rlineto
          53.7599945068 -0.660003662109 77.5599975586 -16.8800048828 -23.620010376 -152.119995117 rrcurveto
          hintmask 00101000
          -23.6399993896 -148.839996338 -57.8399963379 -36.4600067139 -82.4400024414 0 rrcurveto
          endchar
        </CharString>
        <CharString name="U">
          100 -5 41 696 -20 hstem
          129.63999939 313.880004883 rmoveto
          -46.2200164795 -292.279998779 111.040008545 -26.6000061035 145.519989014 0 163.13999939 0 95.4400024414 57.0800018311 41.4799957275 261.800003052 rrcurveto
          66.0200042725 418.119995117 -41.3399963379 0 -66.0200042725 -418.119995117 rlineto
          -39.2200164795 -248.620010376 -92.0800018311 -29.2599945068 -126.699996948 0 -130.559997559 0 -80.3800048828 15.9400024414 41.2200012207 261.940002441 rrcurveto
          66.0200042725 418.119995117 -41.3399963379 0 rlineto
          endchar
        </CharString>
        <CharString name="Uacute">
          100 -5 41 676 20 65 133 hstem
          444.968994141 186.699996948 vstem
          444.96875 797 rmoveto
          -42 callsubr
          -452.569335938 -616.120117188 rmoveto
          -20 callsubr
          endchar
        </CharString>
        <CharString name="Ubreve">
          100 -5 41 676 20 65 24.8800048828 hstem
          364.895004272 24.8800048828 179.219985962 24.8800048828 vstem
          364.89453125 911 rmoveto
          73 callsubr
          -260.135742188 -597.120117188 rmoveto
          -20 callsubr
          endchar
        </CharString>
        <CharString name="Ucircumflex">
          100 -5 41 676 20 65 130 hstem
          321.919006348 278.800003052 vstem
          321.918945312 797 rmoveto
          -19 callsubr
          -340.1796875 -613.120117188 rmoveto
          -20 callsubr
          endchar
        </CharString>
        <CharString name="Udieresis">
          100 -5 41 676 20 65 57.4400024414 hstem
          309.729003906 57.4400024414 197.559997559 57.4400024414 vstem
          309.728515625 826.219726562 rmoveto
          -18 callsubr
          255 hmoveto
          -18 callsubr
          -435.088867188 -512.33984375 rmoveto
          -20 callsubr
          endchar
        </CharString>
        <CharString name="Ugrave">
          100 -5 41 676 20 65 133 hstem
          328.889007568 148.779998779 vstem
          328.888671875 930 rmoveto
          -45 callsubr
          -245.989257812 -616.120117188 rmoveto
          -20 callsubr
          endchar
        </CharString>
        <CharString name="Uhungarumlaut">
          100 -5 41 676 20 65 133 hstem
          376.149002075 324.339996338 vstem
          376.149414062 797 rmoveto
          -29 callsubr
          0.400390625 -133 rmoveto
          -42 callsubr
          -521.389648438 -616.120117188 rmoveto
          -20 callsubr
          endchar
        </CharString>
        <CharString name="Umacron">
          100 -5 41 676 20 65 31.3200073242 hstem
          328.64100647 270.320007324 vstem
          328.640625 797 rmoveto
          88 callsubr
          -203.721679688 -514.440429688 rmoveto
          -20 callsubr
          endchar
        </CharString>
        <CharString name="Uogonek">
          100 -183.249954224 29.6399993896 131.36000061 20 -2.75004577637 41 676 20 hstemhm
          hintmask 11000000
          331.760742188 -2.25 rmoveto
          44 callsubr
          hintmask 00110000
          -223.301757812 316.129882812 rmoveto
          -20 callsubr
          endchar
        </CharString>
        <CharString name="Uring">
          100 -5 41 676 20 65 26.2200012207 152.559997559 26.2200012207 hstem
          375.983001709 203 vstem
          375.983398438 899 rmoveto
          -38 callsubr
          25.8798828125 hmoveto
          -37 callsubr
          -272.223632812 -585.120117188 rmoveto
          -20 callsubr
          endchar
        </CharString>
        <CharString name="Utilde">
          100 -5 41 676 20 65.3399963379 34.3600006104 25.3800048828 34.3600006104 hstem
          297.484375 831.400390625 rmoveto
          -8 callsubr
          -167.844726562 -517.520507812 rmoveto
          -20 callsubr
          endchar
        </CharString>
        <CharString name="V">
          96 21 -21 21 -21 732 -20 hstemhm
          hintmask 10100000
          150 732 rmoveto
          144.300003052 -732 47.6000061035 0 388.300003052 732 -46.7200012207 0 -357.960006714 -674.380004883 -132.5 674.380004883 rlineto
          endchar
        </CharString>
        <CharString name="W">
          415 21 -21 21 -21 732 -20 hstemhm
          hintmask 10100000
          150 732 rmoveto
          144.300003052 -732 47.6000061035 0 200.300003052 388.520004272 84.1000061035 -388.520004272 47.6000061035 0 375.100006104 732 -44.6999969482 0 -346.759994507 -677.059997559 -84.0800018311 392.720001221 143.199996948 284.339996338 -45.7200012207 0 -346.100006104 -674.36000061 -133.5 674.36000061 rlineto
          endchar
        </CharString>
        <CharString name="Wacute">
          415 0 21 691 20 65 133 hstem
          593.60899353 186.699996948 vstem
          593.609375 797 rmoveto
          -29 callsubr
          -580.848632812 -198 rmoveto
          143 callsubr
          endchar
        </CharString>
        <CharString name="Wcircumflex">
          415 0 21 691 20 65 130 hstem
          470.559005737 278.800003052 vstem
          470.55859375 797 rmoveto
          -28 callsubr
          -468.458984375 -195 rmoveto
          143 callsubr
          endchar
        </CharString>
        <CharString name="Wdieresis">
          415 0 21 691 20 65 57.4400024414 hstem
          458.369003296 57.4400024414 197.559997559 57.4400024414 vstem
          458.369140625 826.219726562 rmoveto
          145 callsubr
          255 hmoveto
          145 callsubr
          -563.369140625 -94.2197265625 rmoveto
          143 callsubr
          endchar
        </CharString>
        <CharString name="Wgrave">
          415 0 21 691 20 65 133 hstem
          477.529006958 148.779998779 vstem
          477.529296875 930 rmoveto
          -30 callsubr
          -374.268554688 -198 rmoveto
          143 callsubr
          endchar
        </CharString>
        <CharString name="X">
          -10 21 -21 21 -21 732 -20 hstemhm
          hintmask 10100000
          38 hmoveto
          50.7200012207 0 244.419998169 322.339996338 143.839996338 -322.339996338 45 0 -160.960006714 360.279998779 284.339996338 371.720001221 -50.7200012207 0 -252.759994507 -330.059997559 -145.880004883 330.059997559 -45 0 162.339996338 -367.339996338 rlineto
          endchar
        </CharString>
        <CharString name="X.salt">
          -1 21 -21 21 -21 732 -20 hstemhm
          hintmask 10100000
          20 hmoveto
          51.3800048828 0 236.779998779 281.36000061 rlineto
          54.3000030518 64.3600158691 -13.0800018311 77.2799987793 -33.620010376 61.3600006104 rrcurveto
          -134.100006104 247.63999939 -45 0 141.160003662 -263.119995117 rlineto
          31.6199951172 -58.6800079346 7.95999145508 -52.7799987793 -48.9599914551 -59.0200042725 rrcurveto
          115.940002441 -11.7599945068 rmoveto
          148.100006104 -286.63999939 46.3200073242 0 -153.759994507 298.399993896 rlineto
          -29.9600067139 59.0200042725 22.2599945068 54.7599945068 51.9400024414 57.3600006104 rrcurveto
          225.520004272 262.460006714 -51.3800048828 0 -210.119995117 -242.36000061 rlineto
          -52.6399841309 -60.700012207 -31.8800048828 -79.2600097656 35.6000061035 -63.0399932861 rrcurveto
          endchar
        </CharString>
        <CharString name="Y">
          56 21 -21 21 -21 732 -20 hstemhm
          hintmask 10100000
          150 732 rmoveto
          164.600006104 -472 -41 -260 41 0 41 260 334.600006104 472 -49.0599975586 0 -300.320007324 -419.940002441 -146.479995728 419.940002441 rlineto
          endchar
        </CharString>
        <CharString name="Yacute">
          56 0 21 691 20 65 133 hstem
          414.208999634 186.699996948 vstem
          414.208984375 797 rmoveto
          -42 callsubr
          -401.44921875 -198 rmoveto
          -17 callsubr
          endchar
        </CharString>
        <CharString name="Ycircumflex">
          56 0 21 691 20 65 130 hstem
          291.158996582 278.800003052 vstem
          291.159179688 797 rmoveto
          -41 callsubr
          -289.05859375 -195 rmoveto
          -17 callsubr
          endchar
        </CharString>
        <CharString name="Ydieresis">
          56 0 21 691 20 63.3000030518 57.4400024414 hstem
          264.164993286 57.4400024414 197.559997559 57.4400024414 vstem
          264.165039062 824.51953125 rmoveto
          67 callsubr
          255 hmoveto
          67 callsubr
          -383.78515625 -92.51953125 rmoveto
          164.600585938 -472 -41 -260 41 0 41 260 334.599609375 472 -49.060546875 0 -300.319335938 -419.940429688 -146.48046875 419.940429688 rlineto
          endchar
        </CharString>
        <CharString name="Ygrave">
          56 0 21 691 20 65 133 hstem
          298.128997803 148.779998779 vstem
          298.12890625 930 rmoveto
          -45 callsubr
          -194.869140625 -198 rmoveto
          -17 callsubr
          endchar
        </CharString>
        <CharString name="Z">
          -46 0 41 650 41 hstem
          35 hmoveto
          473.199996948 0 6.7200012207 41 -419.100006104 0 521.660003662 650 6.7200012207 41 -473.199996948 0 -6.7200012207 -41 419.100006104 0 -521.660003662 -650 rlineto
          endchar
        </CharString>
        <CharString name="Zacute">
          -46 0 41 650 41 63.3000030518 133 hstem
          416.572998047 186.699996948 vstem
          416.573242188 795.299804688 rmoveto
          -42 callsubr
          -483.453125 -928.299804688 rmoveto
          473.19921875 0 6.720703125 41 -419.100585938 0 521.66015625 650 6.7197265625 41 -473.19921875 0 -6.720703125 -41 419.100585938 0 -521.66015625 -650 rlineto
          endchar
        </CharString>
        <CharString name="Zcaron">
          -46 0 41 650 41 65 130 hstem
          279.259994507 278.800003052 vstem
          279.259765625 927 rmoveto
          41 callsubr
          -277.580078125 -927 rmoveto
          42 callsubr
          endchar
        </CharString>
        <CharString name="Zdotaccent">
          -46 0 41 650 41 52.4600067139 91.4400024414 hstem
          351.139297485 65.6217041016 vstem
          351.139648438 800.200195312 rmoveto
          43 callsubr
          -325.680664062 -859.48046875 rmoveto
          42 callsubr
          endchar
        </CharString>
        <CharString name="a">
          -29 -7 40.3399963379 -12.3399963379 -21 21 -21 hstemhm
          447.919998169 27.2599945068 hintmask 10010000
          90 278.660003662 rmoveto
          -40.6600036621 -236.380004883 81.6399993896 -49.2799987793 114 0 77 0 93.8600006104 48 29 19 rrcurveto
          hintmask 01010000
          3.08000183105 -60 27.2599945068 0 70 479 rlineto
          -51 49 -115.539993286 22 -70 -9 rrcurveto
          -82 -10 -98 -28.0800018311 -38.6399993896 -224.259994507 rrcurveto
          36.6799926758 -30.9600067139 rmoveto
          30.3400115967 191.659988403 54.3600006104 46.3399963379 99.3199920654 14.6399993896 77.9600067139 11.3000030518 74.3000030518 -26.4799957275 39.5399932861 -17.3200073242 rrcurveto
          -55.9600067139 -379.240005493 rlineto
          hintmask 10010000
          -68.0000152588 -29 -55.2399902344 -26.2600097656 -83.6000061035 0 -99.1199951172 0 -36.5599975586 69.7600097656 22.6599884033 144.599990845 rrcurveto
          endchar
        </CharString>
        <CharString name="a.salt">
          -24 -10.3000030518 41.3399963379 463.980010986 39.6399993896 hstem
          89.3399963379 263.419998169 rmoveto
          -29.0399932861 -187.040008545 60.1399993896 -86.6800079346 120.239990234 0 69.9600067139 0 136.86000061 8.41999816895 33.6600036621 5.2799987793 rrcurveto
          68.9199981689 485.240005493 rlineto
          -52.5199890137 24.2199859619 -89.9400024414 21.8000030518 -76.1999969482 0 -154.699996948 0 -62.0400085449 -98.9600067139 -25.3399963379 -172.279998779 rrcurveto
          41 -5.05999755859 rmoveto
          24.3000030518 162.700012207 54.2200012207 73.9600067139 117.199996948 0 62.1000061035 0 50.7200012207 -10.3400115967 71.1599884033 -17.5999908447 rrcurveto
          -65.5 -434 rlineto
          -1.52587890625e-05 1.52587890625e-05 -176.059997559 -2.04000854492 -25.1599884033 0 -104.36000061 0 -29.6000061035 85.5600128174 20.9799957275 141.759994507 rrcurveto
          endchar
        </CharString>
        <CharString name="a.smcp">
          1 21 -21 21 -21 171.800003052 41 hstemhm
          hintmask 10100000
          41.6000061035 hmoveto
          48.0599975586 0 97.8399963379 171.800003052 272.339996338 0 40.6199951172 -171.800003052 42.3399963379 0 -131.919998169 570 -41 0 rlineto
          -159.520004272 -357.199996948 rmoveto
          172.940002441 303.720001221 68.1600036621 -303.720001221 rlineto
          endchar
        </CharString>
        <CharString name="a.superior">
          -177 364 33.9403991699 hstem
          301.832992554 20.8202972412 vstem
          43.4931945801 553 rmoveto
          -23 -153 50 -36 74.9998016357 0 62 0 71.5599975586 40 20 19 rrcurveto
          2.7799987793 -54 20.8200073242 0 50.6399993896 322 rlineto
          -34 33 -97.8399963379 14.3399963379 -49.6600036621 -3.33999633789 -51.9799957275 -3.33999633789 -73.31980896 -28.6600036621 -23 -150 rrcurveto
          31.9403991699 -4 rmoveto
          17.3193054199 114.960006714 49.6600952148 37.7599945068 58.700012207 1.02000427246 48.1399993896 1.01998901367 53.6999969482 -9.2799987793 36.379989624 -14.3000030518 rrcurveto
          -37.6000061035 -231.960006714 rlineto
          -45.3390045166 -27.6199951172 -63.2010040283 -22.6600036621 -48 0 -54.600189209 0 -33.779296875 27.0399932861 18.6200866699 124.020004272 rrcurveto
          endchar
        </CharString>
        <CharString name="aacute">
          -29 -7 40.3399963379 -33.3399963379 21 581.972106934 133 hstemhm
          342.119003296 186.699996948 -80.8990020752 27.2599945068 hintmask 00110000
          342.119140625 602.971679688 rmoveto
          -42 callsubr
          hintmask 10001000
          -389.359375 -457.311523438 rmoveto
          -16 callsubr
          hintmask 01001000
          -15 callsubr
          36.6796875 -30.9599609375 rmoveto
          -14 callsubr
          hintmask 10001000
          -13 callsubr
          endchar
        </CharString>
        <CharString name="aacute.salt">
          -24 -10.3000030518 41.3399963379 463.980010986 39.6399993896 63.0399932861 133 hstem
          347.304992676 186.699996948 vstem
          347.3046875 597.700195312 rmoveto
          -42 callsubr
          -395.205078125 -467.280273438 rmoveto
          152 callsubr
          41 -5.0595703125 rmoveto
          153 callsubr
          endchar
        </CharString>
        <CharString name="aacute.smcp">
          1 0 21 150.800003052 41 417.199996948 133 hstem
          383.697006226 186.699996948 vstem
          383.697265625 630 rmoveto
          60 callsubr
          -479.336914062 -763 rmoveto
          107 callsubr
          -159.51953125 -357.200195312 rmoveto
          108 callsubr
          endchar
        </CharString>
        <CharString name="abreve">
          -29 -7 40.3399963379 -33.3399963379 21 581.972106934 24.8800048828 hstemhm
          262.244995117 24.8800048828 160.794998169 27.2599945068 -8.83499145508 24.8800048828 hintmask 00110100
          262.245117188 716.971679688 rmoveto
          -9.2998046875 -72.6796875 53.33984375 -41.3203125 54.3203125 0 59.759765625 0 59.2001953125 36.30078125 11.6591796875 77.69921875 rrcurveto
          -24.8798828125 hlineto
          -8.66015625 -55.619140625 -42.859375 -33.1806640625 -53.560546875 -0.3193359375 -46.859375 -0.66015625 -35.2607421875 37.5400390625 7.98046875 52.2392578125 rrcurveto
          hintmask 10001000
          -197.125 -438.311523438 rmoveto
          -16 callsubr
          hintmask 01001000
          -15 callsubr
          36.6796875 -30.9599609375 rmoveto
          -14 callsubr
          hintmask 10001000
          -13 callsubr
          endchar
        </CharString>
        <CharString name="abreve.salt">
          -24 -10.3000030518 41.3399963379 463.980010986 39.6399993896 61.3399963379 24.8800048828 hstem
          264.675003052 24.8800048828 179.219985962 24.8800048828 vstem
          264.674804688 710 rmoveto
          55 callsubr
          -200.21484375 -446.580078125 rmoveto
          152 callsubr
          41 -5.0595703125 rmoveto
          153 callsubr
          endchar
        </CharString>
        <CharString name="abreve.smcp">
          1 0 21 150.800003052 41 417.199996948 24.8800048828 hstem
          300.222000122 24.8800048828 179.220001221 24.8800048828 vstem
          300.221679688 744 rmoveto
          55 callsubr
          -283.501953125 -744 rmoveto
          107 callsubr
          -159.51953125 -357.200195312 rmoveto
          108 callsubr
          endchar
        </CharString>
        <CharString name="acircumflex">
          -29 -7 40.3399963379 -33.3399963379 21 581.972106934 130 hstemhm
          215.669006348 278.800003052 -46.5490112305 27.2599945068 hintmask 00110000
          215.668945312 602.971679688 rmoveto
          -19 callsubr
          hintmask 10001000
          -273.569335938 -454.311523438 rmoveto
          -16 callsubr
          hintmask 01001000
          -15 callsubr
          36.6796875 -30.9599609375 rmoveto
          -14 callsubr
          hintmask 10001000
          -13 callsubr
          endchar
        </CharString>
        <CharString name="acircumflex.salt">
          -24 -10.3000030518 41.3399963379 463.980010986 39.6399993896 61.3399963379 130 hstem
          224.759002686 278.800003052 vstem
          224.758789062 596 rmoveto
          69 callsubr
          -283.319335938 -462.580078125 rmoveto
          152 callsubr
          41 -5.0595703125 rmoveto
          153 callsubr
          endchar
        </CharString>
        <CharString name="acircumflex.smcp">
          1 0 21 150.800003052 41 417.199996948 130 hstem
          260.647003174 278.800003052 vstem
          260.647460938 630 rmoveto
          -22 callsubr
          -366.947265625 -760 rmoveto
          107 callsubr
          -159.51953125 -357.200195312 rmoveto
          108 callsubr
          endchar
        </CharString>
        <CharString name="acute">
          -360 531 133 hstem
          104 186.699996948 vstem
          104 531 rmoveto
          -50 callsubr
          endchar
        </CharString>
        <CharString name="acute.smcp">
          -360 531 133 hstem
          104 186.699996948 vstem
          104 531 rmoveto
          -50 callsubr
          endchar
        </CharString>
        <CharString name="adieresis">
          -29 -7 40.3399963379 -33.3399963379 21 581.972106934 57.4400024414 hstemhm
          203.479598999 57.4400024414 187.000396729 27.2599945068 -16.7003936768 57.4400024414 hintmask 00110100
          203.479492188 632.192382812 rmoveto
          -12 callsubr
          255 hmoveto
          -12 callsubr
          hintmask 10001000
          -368.479492188 -353.532226562 rmoveto
          -16 callsubr
          hintmask 01001000
          -15 callsubr
          36.6796875 -30.9599609375 rmoveto
          -14 callsubr
          hintmask 10001000
          -13 callsubr
          endchar
        </CharString>
        <CharString name="adieresis.salt">
          -24 -10.3000030518 41.3399963379 463.980010986 39.6399993896 61.3399963379 57.4400024414 hstem
          200.049499512 57.4400024414 197.559997559 57.4400024414 vstem
          200.049804688 625.219726562 rmoveto
          1 callsubr
          255 hmoveto
          1 callsubr
          -365.709960938 -361.799804688 rmoveto
          152 callsubr
          41 -5.0595703125 rmoveto
          153 callsubr
          endchar
        </CharString>
        <CharString name="adieresis.smcp">
          1 0 21 150.800003052 41 417.199996948 57.4400024414 hstem
          248.457000732 57.4400024414 197.559997559 57.4400024414 vstem
          248.45703125 659.219726562 rmoveto
          -21 callsubr
          255 hmoveto
          -21 callsubr
          -461.857421875 -659.219726562 rmoveto
          107 callsubr
          -159.51953125 -357.200195312 rmoveto
          108 callsubr
          endchar
        </CharString>
        <CharString name="ae">
          370 -7 40.3399963379 466.660003662 41 hstem
          50.3399963379 277.63999939 rmoveto
          -41 -231.960021973 81.3000030518 -52.6799926758 114.339996338 0 89.1399993896 0 88.4199981689 48.8999938965 46.5800018311 28.3600006104 18.6800079346 -52.2799987793 41 -24.9799957275 67.3000030518 0 83 0 71.4399871826 6 84 23 rrcurveto
          5.03999328613 29.6000061035 rlineto
          -77.9999847412 -11 -86.1000061035 -10.3200073242 -76.6599884033 2.69999694824 -94.7600097656 1.66000366211 -20.3199920654 62.4199981689 20.3399963379 143.13999939 37 -15 345.119995117 -56.1999969482 28 219 15 116 -78.0200042725 37 -126 0 -87.2399902344 0 -54.6600036621 -21.2799987793 -36.3399963379 -37.9199981689 -58.3600006104 41.6199951172 -113.979995728 25.5800018311 -64.6399993896 -8 rrcurveto
          -82 -10 -97.2800140381 -25.3600006104 -40.3399963379 -228 rrcurveto
          36.3399963379 -29.9400024414 rmoveto
          30.3400115967 191.659988403 54.6999969482 46.3399963379 98.9799957275 14.6399993896 77.620010376 11.3000030518 88.299987793 -35.1199951172 48.120010376 -20.620010376 -27.3200073242 -46.299987793 -15.3199920654 -58.9800109863 -13 -72.6199951172 -12.6600036621 -73.5800018311 -3.68000793457 -59.2799987793 8.30000305176 -44.9799957275 -55.0999908447 -29.3399963379 -88.0400085449 -37.8200073242 -78.2200012207 0.339996337891 -102.179992676 0.339996337891 -33.5 69.4200134277 22.6599884033 144.599990845 rrcurveto
          381.440002441 20.1000061035 rmoveto
          25.6000061035 130.600006104 13.2799987793 101.600006104 181.440002441 0 98.8999938965 0 57.8600006104 -23.1799926758 -12.6600036621 -88.8200073242 -24.3199920654 -176.279998779 -340.100006104 56.0800018311 0 0 rrcurveto
          endchar
        </CharString>
        <CharString name="ae.smcp">
          220 -5.30000305176 41 -29.3199920654 28.9799957275 158.660003662 39.9799957275 24.5 43 225.86000061 40 -40 29.9799957275 hstemhm
          hintmask 10110000
          37.5200042725 hmoveto
          51.0599975586 0 151.199996948 194.020004272 188.619995117 0 -17.9400024414 -115 rlineto
          -8.31999206543 -54.299987793 28.6399993896 -30.6999969482 53.3999938965 0.679992675781 rrcurveto
          hintmask 01110000
          273.899993896 11.6799926758 4.38000488281 28.9799957275 rlineto
          hintmask 10111000
          -264.759994507 0.339996337891 rlineto
          -15.4000091553 -1.52587890625e-05 -36.4600067139 2.97999572754 7.63999938965 49.1400146484 rrcurveto
          27.2799987793 170.679992676 286.960006714 6.67999267578 5.03999328613 29.9799957275 -285.279998779 6.33999633789 27.3000030518 171.419998169 rlineto
          7.63999938965 42.7799835205 10.2599945068 11.6600036621 56.0800018311 0 rrcurveto
          hintmask 00110100
          251.600006104 0 4.38000488281 29.9799957275 rlineto
          hintmask 10111000
          -251.600006104 10.0200042725 rlineto
          -95.3200073242 -3.63998413086 -32.9800109863 -9.68000793457 -55.9400024414 -72.0399932861 rrcurveto
          -141.279998779 -248 rmoveto
          210.800003052 271.800003052 -43.9799957275 -271.800003052 rlineto
          endchar
        </CharString>
        <CharString name="afii61289">
          -173 -0.660003662109 27.6199951172 hstem
          69 248 rmoveto
          10.4400024414 -18.8000030518 rlineto
          11.3399963379 5.3399810791 24.8600006104 13.9200134277 12.3200073242 11.6199951172 rrcurveto
          -10.9400024414 -71.7400054932 rlineto
          -19.6199951172 -137.259994507 35.6399993896 -51.7400054932 83.120010376 0 rrcurveto
          68.6600036621 0 4.38000488281 27.6199951172 rlineto
          -4.96000671387 1.52587890625e-05 -68.7200012207 13.379989624 0 0 -48.2400054932 8.33999633789 -27.8800048828 16.9000091553 18.620010376 122.759994507 rrcurveto
          15.9799957275 105.660003662 rlineto
          114.339996338 90 110.699996948 112.699996948 17.9600067139 101.300003052 13.6399993896 75 -36.9400024414 64.3000030518 -80 1.69999694824 -64.3999938965 1.69999694824 -50.6399993896 -41.6999969482 -11.6600036621 -67 rrcurveto
          -52 -328 rlineto
          -22 -20 -22 -19 -22 -17 rrcurveto
          113.740005493 101.800003052 rmoveto
          44.2599945068 276.199996948 rlineto
          14.9400024414 92.6399993896 126.399993896 0.220001220703 7.66000366211 -78.8600006104 11.3600006104 -107.600006104 -130.279998779 -111.799987793 -74.3399963379 -70.8000030518 rrcurveto
          endchar
        </CharString>
        <CharString name="afii61352">
          496 21 -21 21 -21 381 32.9600067139 285.079986572 35.9600067139 hstemhm
          788.660003662 32.9600067139 hintmask 10111000
          72 hmoveto
          40.3000030518 0 102 645 rlineto
          8.9400177002 54.6199951172 70.2599945068 15.5599975586 11.9199981689 -52.6199951172 rrcurveto
          145.539993286 -606.820007324 rlineto
          23.0400085449 -96.3399963379 129.979995728 24.5400085449 14.3400115967 91.3999938965 0 0 68.4799957275 433.120010376 9.86000061035 61.5399932861 11 70 30.0999908447 59.0399932861 71.5200042725 0 72 0 114.979995728 -0.339996337891 0 0 57.2600097656 -0.679992675781 44.1399993896 -11.2799987793 -20.9600067139 -133.740005493 -16 -102 -37.9599914551 -37.0399932861 -67.1000061035 0 rrcurveto
          -64.5599975586 hlineto
          -71.7199859619 1.52587890625e-05 -23.7400054932 35.0399932861 26 166 rrcurveto
          -32.9600067139 hlineto
          -28 -176 28.0800018311 -58 97.5599975586 0 rrcurveto
          65.3399963379 hlineto
          109.799987793 0 31.2200012207 65 17 107 19 121 -28.0200042725 60.6600036621 -98.9400024414 0 0 0 -159.879989624 0.339996337891 -25.1600036621 0 -90.7600097656 0 -51.2399902344 -45 -19 -122 -28 -177 -47.6600036621 -304.660003662 0 0 -11.8999938965 -55.9199981689 -67.9000091553 -11.2799987793 -10.2799987793 47.0399932861 rrcurveto
          -145.880004883 612.5 rlineto
          -20.0400085449 87.3200073242 -133.679992676 -13.3200073242 -16 -102 rrcurveto
          endchar
        </CharString>
        <CharString name="agrave">
          -29 -7 40.3399963379 -33.3399963379 21 581.972106934 133 hstemhm
          222.638900757 148.779998779 76.5010986328 27.2599945068 hintmask 00110000
          222.638671875 735.971679688 rmoveto
          -45 callsubr
          hintmask 10001000
          -179.37890625 -457.311523438 rmoveto
          -16 callsubr
          hintmask 01001000
          -15 callsubr
          36.6796875 -30.9599609375 rmoveto
          -14 callsubr
          hintmask 10001000
          -13 callsubr
          endchar
        </CharString>
        <CharString name="agrave.salt">
          -24 -10.3000030518 41.3399963379 463.980010986 39.6399993896 63.0399932861 133 hstem
          212.924499512 148.779998779 vstem
          212.924804688 730.700195312 rmoveto
          -30 callsubr
          -170.32421875 -467.280273438 rmoveto
          152 callsubr
          41 -5.0595703125 rmoveto
          153 callsubr
          endchar
        </CharString>
        <CharString name="agrave.smcp">
          1 0 21 150.800003052 41 417.199996948 133 hstem
          267.617004395 148.779998779 vstem
          267.6171875 763 rmoveto
          -45 callsubr
          -272.7578125 -763 rmoveto
          107 callsubr
          -159.51953125 -357.200195312 rmoveto
          108 callsubr
          endchar
        </CharString>
        <CharString name="amacron">
          -29 -7 40.3399963379 -33.3399963379 21 581.972106934 31.3200073242 hstemhm
          222.390701294 270.320007324 -44.7907104492 27.2599945068 hintmask 00110000
          222.390625 602.971679688 rmoveto
          90 callsubr
          hintmask 10001000
          -137.110351562 -355.631835938 rmoveto
          -16 callsubr
          hintmask 01001000
          -15 callsubr
          36.6796875 -30.9599609375 rmoveto
          -14 callsubr
          hintmask 10001000
          -13 callsubr
          endchar
        </CharString>
        <CharString name="amacron.salt">
          -24 -10.3000030518 41.3399963379 463.980010986 39.6399993896 61.3399963379 31.3200073242 hstem
          222.020706177 270.320007324 vstem
          222.020507812 596 rmoveto
          89 callsubr
          -137.400390625 -363.900390625 rmoveto
          152 callsubr
          41 -5.0595703125 rmoveto
          153 callsubr
          endchar
        </CharString>
        <CharString name="amacron.smcp">
          1 0 21 150.800003052 41 417.199996948 31.3200073242 hstem
          267.367996216 270.320007324 vstem
          267.368164062 630 rmoveto
          90 callsubr
          -230.48828125 -661.3203125 rmoveto
          107 callsubr
          -159.51953125 -357.200195312 rmoveto
          108 callsubr
          endchar
        </CharString>
        <CharString name="ampersand">
          94 21 -21 21 -21 693.679992676 25.5599975586 hstemhm
          hintmask 10100000
          92.0200042725 80.9799957275 rmoveto
          66.0200042725 -105.340011597 138.380004883 -1.30000305176 82.9400024414 69.6600036621 rrcurveto
          79.2799987793 67 66.9799957275 -111 41.6799926758 0 -79.4400024414 134.179992676 78.3600006104 67.1199951172 78.2599945068 95.5599975586 -12.7799987793 12.0800018311 -165.339996338 -140.460006714 -213.399993896 370.199996948 rlineto
          -60.5999908447 105.880004883 64.6000061035 49.1199951172 115.039993286 0 rrcurveto
          209.600006104 0 4.03999328613 25.5599975586 rlineto
          -79.8400115967 11.4400024414 -124.36000061 7.30000305176 -75.3000030518 -11.6399993896 -81.6799926758 -14.2599945068 -73.4600067139 -71.4600067139 67.6399993896 -116.619995117 rrcurveto
          49 -85 -96.3200073242 -73 rlineto
          -100.36000061 -75.6999969482 -41.2800140381 -110.339996338 62.3400115967 -98.9800109863 rrcurveto
          32.6199951172 22.4800109863 rmoveto
          -47.5800170898 77.120010376 24.5 84.1799926758 97.9199981689 72.9400024414 rrcurveto
          87.9799957275 66 150.36000061 -259.419998169 -85.3200073242 -71.6999969482 rlineto
          -76.8000030518 -64.1999816895 -104.779998779 20.2399902344 -46.2799987793 74.8400115967 rrcurveto
          endchar
        </CharString>
        <CharString name="ampersand.salt">
          361 0 41 128.5 40.6600036621 140.839996338 41 99 40.6600036621 -27.2600097656 27.2599945068 hstemhm
          211.63999939 41 hintmask 11110100
          89 287.320007324 rmoveto
          -14.3200073242 -91.6000061035 71.5400085449 -25.8800048828 65.4199981689 0 -18.9600067139 -150.5 81.1400146484 -19.3399963379 103.179992676 0 rrcurveto
          142.179992676 hlineto
          105.380004883 0 128.660003662 23.1199951172 25.9799957275 163.880004883 rrcurveto
          48.2799987793 304 rlineto
          hintmask 11101100
          157.339996338 13.3999938965 4.38000488281 27.2599945068 rlineto
          hintmask 11110100
          -155 0 23 148.339996338 -28.2799987793 0 rlineto
          hintmask 11101100
          -35.7200012207 -148.339996338 rlineto
          hintmask 11110100
          -452.220001221 hlineto
          -134.000015259 0 -82.3000030518 -13.9800109863 -21.6799926758 -139.379989624 rrcurveto
          27 -92.3000030518 rmoveto
          13.3399963379 87.0200042725 rlineto
          15.6399993896 106.08001709 56.5400085449 9.89999389648 117.419998169 2 rrcurveto
          453.539993286 0 -48.2799987793 -304 rlineto
          -18.6000061035 -118.899993896 -103.120010376 -27.1000061035 -98.8399963379 0 rrcurveto
          -138.919998169 hlineto
          -87.9799957275 1.02000427246 -54.0600128174 9.80000305176 15.9600067139 117.679992676 rrcurveto
          242.13999939 hlineto
          92.1399993896 0 40.2599945068 8.69999694824 16.3400115967 100.720001221 15.9799957275 109.020004272 -72.8000030518 4.05999755859 -55.8999938965 0 rrcurveto
          -129 hlineto
          -110.999984741 0 -51.8000030518 -57.2200012207 -21.6399993896 -124.619995117 -50.9400024414 0.339996337891 -47.0599975586 9.67999267578 10.6399993896 65.8200073242 rrcurveto
          129.020004272 -75.8399963379 rmoveto
          18.620010376 117 49.8600006104 23.8399963379 67.5800018311 0 rrcurveto
          129 hlineto
          68.8800201416 0 18.8600006104 -8.97999572754 -9.30000305176 -61.120010376 -9.63999938965 -63.5 -23.2600097656 -7.23999023438 -68.4599914551 0 rrcurveto
          endchar
        </CharString>
        <CharString name="ampersand.smcp">
          -11 21 -21 21 -21 534 35 -35 25.9400024414 hstemhm
          hintmask 10100000
          79.6999969482 65.0200042725 rmoveto
          49.6999816895 -87.6799926758 110.060012817 -0.660003662109 70.9799957275 55.9600067139 rrcurveto
          62.9400024414 50.6399993896 49.9600067139 -83.2799987793 46.3800048828 0 -65.4199981689 108.460006714 35.2200012207 31.5800018311 72.4799957275 87 -12.1399993896 15.8200073242 -116.419998169 -98.8000030518 -159.460006714 271.699996948 rlineto
          -33.2400054932 56.8399963379 17.5800018311 61.3999938965 99.6599884033 0 rrcurveto
          hintmask 00010000
          158 0 4.38000488281 25.9400024414 rlineto
          hintmask 10100000
          -110.759979248 14.7200012207 -54.1600036621 -0.660003662109 -46.3600006104 -5 -64.6600036621 -9.2799987793 -60.4400024414 -69.6800079346 52.6999969482 -91.379989624 rrcurveto
          31.2799987793 -53.8999938965 -75 -55.3399963379 rlineto
          -85.9999847412 -63.3400115967 -24.620010376 -81.0200042725 47.3600006104 -80.0399932861 rrcurveto
          36.2799987793 21.1799926758 rmoveto
          -32.2200164795 55.4399871826 8.41999816895 61.5200042725 75.9400024414 54.6399993896 rrcurveto
          70.3399963379 50.3399963379 113.080001831 -187.919998169 -66.9799957275 -55.6600036621 rlineto
          -62.2799987793 -50.5999908447 -73.7400054932 16.1199951172 -32.5599975586 56.1199951172 rrcurveto
          endchar
        </CharString>
        <CharString name="aogonek">
          -47 -180.948471069 29.6399993896 131.36000061 20 -7.05152893066 40.3399963379 -33.3399963379 21 hstemhm
          440.440002441 27.2599945068 hintmask 11000000
          444.18359375 0.0517578125 rmoveto
          44 callsubr
          hintmask 00101000
          -382.844726562 278.608398438 rmoveto
          -40.6591796875 -236.379882812 81.6396484375 -49.2802734375 114 0 77 0 93.8603515625 48 29 19 rrcurveto
          hintmask 00011000
          3.080078125 -60 27.259765625 0 70 479 rlineto
          -51 49 -115.540039062 22 -70 -9 rrcurveto
          -82 -10 -98 -28.080078125 -38.640625 -224.259765625 rrcurveto
          36.6806640625 -30.9599609375 rmoveto
          30.33984375 191.66015625 54.3603515625 46.33984375 99.3193359375 14.6396484375 77.9599609375 11.2998046875 74.30078125 -26.4794921875 39.5390625 -17.3203125 rrcurveto
          -55.9599609375 -379.240234375 rlineto
          hintmask 00101000
          -68 -29 -55.2392578125 -26.259765625 -83.6005859375 0 -99.1201171875 0 -36.5595703125 69.759765625 22.66015625 144.600585938 rrcurveto
          endchar
        </CharString>
        <CharString name="aogonek.salt">
          113 -176.940002441 29.6399993896 131.36000061 20 -14.3600006104 41.3399963379 463.980010986 39.6399993896 hstemhm
          hintmask 11000000
          459.3203125 4.0595703125 rmoveto
          -159.33984375 -65.3193359375 55.6591796875 -131.680664062 118 16 rrcurveto
          4.720703125 29.640625 rlineto
          -115.340820312 -3.33984375 7.98046875 101.879882812 109.5 52.8193359375 rrcurveto
          hintmask 00110000
          -391.16015625 259.360351562 rmoveto
          152 callsubr
          41 -5.0595703125 rmoveto
          153 callsubr
          endchar
        </CharString>
        <CharString name="aogonek.smcp">
          58 -180.948471069 29.6399993896 131.36000061 20 -0.0515289306641 21 150.800003052 41 hstemhm
          hintmask 11000000
          508.024414062 0.0517578125 rmoveto
          -159.340820312 -65.3203125 55.66015625 -131.6796875 118 16 rrcurveto
          4.720703125 29.6396484375 rlineto
          -115.340820312 -3.33984375 7.98046875 101.879882812 109.5 52.8203125 rrcurveto
          hintmask 00110000
          -487.604492188 -0.0517578125 rmoveto
          107 callsubr
          -159.51953125 -357.200195312 rmoveto
          108 callsubr
          endchar
        </CharString>
        <CharString name="approxequal">
          -80 216.259994507 36.0599975586 25.0400085449 35.7200012207 79.5200042725 36.0599975586 25.0399932861 35.7200012207 hstem
          89 250.660003662 rmoveto
          7.74000549316 -19.2200012207 rlineto
          43.7400054932 22.2599945068 29.9800109863 23.6600036621 42.4199981689 0 42.1799926758 0 34.2200012207 -61.1000061035 48.1199951172 0 48.120010376 0 37.7399902344 34.4400024414 40.3600006104 30.9600067139 rrcurveto
          -8.39999389648 18.8999938965 rlineto
          -34.1600036621 -18.6600036621 -35.5399932861 -29.5799865723 -41.7200012207 0 -41.5200042725 0 -37.5200042725 60.7599945068 -46.1399993896 0 -47.5 0 -41.0800018311 -31.4000091553 -41.0399932861 -31.0199890137 rrcurveto
          28 176.339996338 rmoveto
          7.74000549316 -19.2200012207 rlineto
          43.7400054932 22.2599945068 29.9800109863 23.6600036621 42.4199981689 0 42.1799926758 0 34.2200012207 -61.0999908447 48.1199951172 0 48.120010376 0 37.7399902344 34.4399871826 40.3600006104 30.9600067139 rrcurveto
          -8.39999389648 18.8999938965 rlineto
          -34.1600036621 -18.6599884033 -36.1999969482 -29.5800018311 -41.7200012207 0 -41.5200042725 0 -36.8600006104 60.7599945068 -46.1399993896 0 -47.5 0 -41.0800018311 -31.3999938965 -41.0399932861 -31.0200042725 rrcurveto
          endchar
        </CharString>
        <CharString name="aring">
          -29 -7 40.3399963379 -33.3399963379 21 581.972106934 26.2200012207 152.559997559 26.2200012207 hstemhm
          273.233001709 203 -28.31300354 27.2599945068 hintmask 00111000
          273.233398438 704.971679688 rmoveto
          -38 callsubr
          25.8798828125 hmoveto
          6.171875 41.880859375 38.9423828125 34.8994140625 41.880859375 0 41.8798828125 0 29.1962890625 -34.8994140625 -6.171875 -41.880859375 -6.1728515625 -41.8798828125 -37.9140625 -33.8994140625 -41.8798828125 0 -41.8798828125 0 -30.2255859375 33.8994140625 6.1728515625 41.8798828125 rrcurveto
          hintmask 10000100
          -209.11328125 -426.311523438 rmoveto
          -16 callsubr
          hintmask 01000100
          -15 callsubr
          36.6796875 -30.9599609375 rmoveto
          -14 callsubr
          hintmask 10000100
          -13 callsubr
          endchar
        </CharString>
        <CharString name="aring.salt">
          -24 -10.3000030518 41.3399963379 463.980010986 39.6399993896 61.3399963379 26.2200012207 152.559997559 26.2200012207 hstem
          279.162994385 203 vstem
          279.163085938 698 rmoveto
          63 callsubr
          25.8798828125 hmoveto
          6.171875 41.8798828125 38.943359375 34.900390625 41.8798828125 0 41.8798828125 0 29.197265625 -34.900390625 -6.171875 -41.8798828125 -6.173828125 -41.8798828125 -37.9130859375 -33.900390625 -41.880859375 0 -41.8798828125 0 -30.2255859375 33.900390625 6.1728515625 41.8798828125 rrcurveto
          -215.703125 -434.580078125 rmoveto
          152 callsubr
          41 -5.0595703125 rmoveto
          153 callsubr
          endchar
        </CharString>
        <CharString name="aring.smcp">
          1 0 21 150.800003052 41 354.479995728 26.2200012207 152.559997559 26.2200012207 hstem
          301.638000488 203 vstem
          301.637695312 669.280273438 rmoveto
          -7.6357421875 -57 40.041015625 -45 56 0 56 0 50.958984375 45 7.6357421875 57 7.6357421875 57 -38.3525390625 46 -56 0 -56 0 -52.6474609375 -46 -7.6357421875 -57 rrcurveto
          25.8798828125 hmoveto
          6.1728515625 41.8798828125 38.9423828125 34.8994140625 41.8798828125 0 41.8798828125 0 29.197265625 -34.8994140625 -6.171875 -41.8798828125 -6.1728515625 -41.8798828125 -37.9140625 -33.900390625 -41.8798828125 0 -41.8798828125 0 -30.2265625 33.900390625 6.1728515625 41.8798828125 rrcurveto
          -285.91796875 -669.280273438 rmoveto
          107 callsubr
          -159.51953125 -357.200195312 rmoveto
          108 callsubr
          endchar
        </CharString>
        <CharString name="asciicircum">
          -157 531 130.339996338 hstem
          134 278.800003052 vstem
          134 531 rmoveto
          40.4400024414 0 123.960006714 103.100006104 79.7200012207 -103.100006104 34.6799926758 0 -92.8999938965 130.339996338 -38 0 rlineto
          endchar
        </CharString>
        <CharString name="asciitilde">
          -101 537.600006104 35.7200012207 24.3599853516 35.7200012207 hstem
          140 572 rmoveto
          -57 callsubr
          endchar
        </CharString>
</ttFont>
